<ttFont>
<head>
    <!-- Most of this table will be recalculated by the compiler -->
    <tableVersion value="1.0"/>
    <fontRevision value="1.0"/>
    <checkSumAdjustment value="0xb3362eb"/>
    <magicNumber value="0x5f0f3cf5"/>
    <flags value="00000000 00011111"/>
    <unitsPerEm value="1000"/>
    <created value="Mon Jun 29 22:52:19 2015"/>
    <modified value="Mon Jun 29 22:52:19 2015"/>
    <xMin value="-25"/>
    <yMin value="-224"/>
    <xMax value="1054"/>
    <yMax value="740"/>
    <macStyle value="00000000 00000000"/>
    <lowestRecPPEM value="8"/>
    <fontDirectionHint value="2"/>
    <indexToLocFormat value="0"/>
    <glyphDataFormat value="0"/>
  </head>
    <TTGlyph name=".notdef" xMin="50" yMin="0" xMax="200" yMax="533">
      <contour>
        <pt x="50" y="0" on="1"/>
        <pt x="50" y="533" on="1"/>
        <pt x="200" y="533" on="1"/>
        <pt x="200" y="0" on="1"/>
      </contour>
      <contour>
        <pt x="100" y="50" on="1"/>
        <pt x="150" y="50" on="1"/>
        <pt x="150" y="483" on="1"/>
        <pt x="100" y="483" on="1"/>
      </contour>
    </TTGlyph>
    <TTGlyph name="A" xMin="22" yMin="-26" xMax="707" yMax="696">
      <contour>
        <pt x="280" y="685" on="1"/>
        <pt x="363" y="685" on="0"/>
        <pt x="447" y="592" on="0"/>
        <pt x="447" y="504" on="1"/>
        <pt x="444" y="414" on="0"/>
        <pt x="405" y="330" on="1"/>
        <pt x="399" y="319" on="1"/>
        <pt x="370" y="292" on="0"/>
        <pt x="257" y="183" on="0"/>
        <pt x="229" y="155" on="1"/>
        <pt x="237" y="153" on="1"/>
        <pt x="263" y="150" on="0"/>
        <pt x="291" y="128" on="1"/>
        <pt x="291" y="127" on="0"/>
        <pt x="318" y="102" on="0"/>
        <pt x="328" y="93" on="1"/>
        <pt x="357" y="64" on="1"/>
        <pt x="402" y="92" on="1"/>
        <pt x="438" y="116" on="0"/>
        <pt x="473" y="137" on="1"/>
        <pt x="500" y="154" on="1"/>
        <pt x="500" y="339" on="1"/>
        <pt x="500" y="528" on="0"/>
        <pt x="495" y="593" on="1"/>
        <pt x="495" y="601" on="1"/>
        <pt x="559" y="649" on="1"/>
        <pt x="621" y="696" on="0"/>
        <pt x="624" y="696" on="1"/>
        <pt x="625" y="695" on="1"/>
        <pt x="638" y="687" on="0"/>
        <pt x="638" y="686" on="1"/>
        <pt x="629" y="677" on="1"/>
        <pt x="600" y="651" on="0"/>
        <pt x="586" y="625" on="0"/>
        <pt x="584" y="594" on="1"/>
        <pt x="581" y="550" on="0"/>
        <pt x="580" y="443" on="1"/>
        <pt x="580" y="314" on="0"/>
        <pt x="584" y="238" on="1"/>
        <pt x="585" y="184" on="0"/>
        <pt x="589" y="171" on="1"/>
        <pt x="597" y="145" on="0"/>
        <pt x="630" y="76" on="0"/>
        <pt x="642" y="76" on="1"/>
        <pt x="647" y="76" on="0"/>
        <pt x="661" y="81" on="0"/>
        <pt x="678" y="90" on="0"/>
        <pt x="681" y="91" on="1"/>
        <pt x="687" y="93" on="0"/>
        <pt x="703" y="101" on="1"/>
        <pt x="707" y="84" on="1"/>
        <pt x="698" y="77" on="0"/>
        <pt x="668" y="54" on="0"/>
        <pt x="606" y="5" on="0"/>
        <pt x="564" y="-26" on="0"/>
        <pt x="564" y="-25" on="1"/>
        <pt x="564" y="-27" on="0"/>
        <pt x="532" y="46" on="0"/>
        <pt x="516" y="84" on="1"/>
        <pt x="500" y="121" on="1"/>
        <pt x="499" y="121" on="0"/>
        <pt x="399" y="48" on="1"/>
        <pt x="299" y="-26" on="1"/>
        <pt x="297" y="-26" on="0"/>
        <pt x="292" y="-17" on="1"/>
        <pt x="245" y="60" on="0"/>
        <pt x="189" y="77" on="1"/>
        <pt x="177" y="80" on="0"/>
        <pt x="165" y="80" on="1"/>
        <pt x="120" y="80" on="0"/>
        <pt x="58" y="43" on="1"/>
        <pt x="48" y="37" on="1"/>
        <pt x="40" y="42" on="1"/>
        <pt x="32" y="48" on="1"/>
        <pt x="65" y="73" on="1"/>
        <pt x="182" y="160" on="0"/>
        <pt x="241" y="211" on="1"/>
        <pt x="307" y="269" on="0"/>
        <pt x="333" y="309" on="1"/>
        <pt x="368" y="362" on="0"/>
        <pt x="368" y="447" on="1"/>
        <pt x="368" y="535" on="0"/>
        <pt x="317" y="582" on="1"/>
        <pt x="263" y="633" on="0"/>
        <pt x="199" y="633" on="1"/>
        <pt x="157" y="633" on="0"/>
        <pt x="88" y="577" on="0"/>
        <pt x="86" y="542" on="1"/>
        <pt x="86" y="528" on="0"/>
        <pt x="95" y="514" on="1"/>
        <pt x="106" y="497" on="0"/>
        <pt x="129" y="472" on="1"/>
        <pt x="181" y="419" on="0"/>
        <pt x="181" y="387" on="1"/>
        <pt x="181" y="348" on="0"/>
        <pt x="140" y="309" on="1"/>
        <pt x="113" y="281" on="0"/>
        <pt x="73" y="260" on="1"/>
        <pt x="64" y="255" on="1"/>
        <pt x="52" y="263" on="0"/>
        <pt x="50" y="265" on="1"/>
        <pt x="59" y="273" on="1"/>
        <pt x="112" y="307" on="0"/>
        <pt x="112" y="345" on="1"/>
        <pt x="112" y="353" on="0"/>
        <pt x="109" y="359" on="1"/>
        <pt x="102" y="377" on="0"/>
        <pt x="69" y="411" on="1"/>
        <pt x="40" y="440" on="0"/>
        <pt x="30" y="466" on="1"/>
        <pt x="22" y="487" on="0"/>
        <pt x="22" y="505" on="1"/>
        <pt x="22" y="553" on="0"/>
        <pt x="75" y="607" on="1"/>
        <pt x="158" y="685" on="0"/>
        <pt x="271" y="685" on="1"/>
      </contour>
    </TTGlyph>
    <TTGlyph name="B" xMin="48" yMin="-27" xMax="820" yMax="691">
      <contour>
        <pt x="815" y="516" on="1"/>
        <pt x="819" y="497" on="0"/>
        <pt x="820" y="496" on="1"/>
        <pt x="820" y="495" on="0"/>
        <pt x="813" y="492" on="1"/>
        <pt x="762" y="471" on="0"/>
        <pt x="732" y="454" on="1"/>
        <pt x="720" y="445" on="0"/>
        <pt x="708" y="437" on="1"/>
        <pt x="675" y="415" on="1"/>
        <pt x="640" y="394" on="1"/>
        <pt x="625" y="383" on="1"/>
        <pt x="626" y="382" on="0"/>
        <pt x="635" y="382" on="1"/>
        <pt x="675" y="382" on="0"/>
        <pt x="752" y="343" on="0"/>
        <pt x="772" y="315" on="1"/>
        <pt x="797" y="277" on="0"/>
        <pt x="797" y="220" on="1"/>
        <pt x="797" y="170" on="0"/>
        <pt x="776" y="122" on="1"/>
        <pt x="769" y="106" on="0"/>
        <pt x="762" y="97" on="0"/>
        <pt x="745" y="84" on="1"/>
        <pt x="634" y="-5" on="0"/>
        <pt x="597" y="-18" on="1"/>
        <pt x="570" y="-27" on="0"/>
        <pt x="538" y="-27" on="1"/>
        <pt x="505" y="-27" on="0"/>
        <pt x="469" y="-18" on="1"/>
        <pt x="463" y="-16" on="0"/>
        <pt x="288" y="47" on="0"/>
        <pt x="249" y="47" on="1"/>
        <pt x="199" y="47" on="0"/>
        <pt x="130" y="6" on="1"/>
        <pt x="126" y="4" on="0"/>
        <pt x="117" y="-2" on="0"/>
        <pt x="114" y="-4" on="1"/>
        <pt x="112" y="-5" on="1"/>
        <pt x="111" y="-5" on="0"/>
        <pt x="97" y="20" on="0"/>
        <pt x="97" y="21" on="1"/>
        <pt x="123" y="38" on="0"/>
        <pt x="196" y="82" on="1"/>
        <pt x="259" y="120" on="0"/>
        <pt x="284" y="140" on="1"/>
        <pt x="333" y="181" on="0"/>
        <pt x="351" y="214" on="1"/>
        <pt x="368" y="251" on="0"/>
        <pt x="368" y="353" on="1"/>
        <pt x="368" y="419" on="0"/>
        <pt x="357" y="471" on="1"/>
        <pt x="345" y="532" on="0"/>
        <pt x="278" y="609" on="0"/>
        <pt x="228" y="620" on="1"/>
        <pt x="222" y="621" on="0"/>
        <pt x="205" y="621" on="1"/>
        <pt x="160" y="621" on="0"/>
        <pt x="139" y="596" on="1"/>
        <pt x="117" y="569" on="0"/>
        <pt x="117" y="548" on="1"/>
        <pt x="117" y="538" on="0"/>
        <pt x="125" y="522" on="1"/>
        <pt x="139" y="498" on="0"/>
        <pt x="162" y="471" on="1"/>
        <pt x="190" y="436" on="0"/>
        <pt x="201" y="415" on="1"/>
        <pt x="208" y="400" on="0"/>
        <pt x="208" y="387" on="1"/>
        <pt x="208" y="349" on="0"/>
        <pt x="169" y="310" on="1"/>
        <pt x="143" y="284" on="0"/>
        <pt x="104" y="264" on="1"/>
        <pt x="86" y="256" on="0"/>
        <pt x="85" y="256" on="1"/>
        <pt x="83" y="256" on="0"/>
        <pt x="70" y="266" on="1"/>
        <pt x="82" y="274" on="1"/>
        <pt x="125" y="301" on="0"/>
        <pt x="133" y="335" on="1"/>
        <pt x="136" y="347" on="0"/>
        <pt x="130" y="359" on="1"/>
        <pt x="116" y="380" on="0"/>
        <pt x="102" y="398" on="1"/>
        <pt x="60" y="453" on="0"/>
        <pt x="53" y="476" on="1"/>
        <pt x="48" y="493" on="0"/>
        <pt x="48" y="506" on="1"/>
        <pt x="48" y="531" on="0"/>
        <pt x="62" y="559" on="1"/>
        <pt x="74" y="586" on="0"/>
        <pt x="109" y="619" on="1"/>
        <pt x="178" y="680" on="0"/>
        <pt x="243" y="689" on="1"/>
        <pt x="259" y="691" on="0"/>
        <pt x="268" y="691" on="1"/>
        <pt x="361" y="691" on="0"/>
        <pt x="425" y="594" on="1"/>
        <pt x="431" y="585" on="1"/>
        <pt x="441" y="594" on="1"/>
        <pt x="490" y="640" on="0"/>
        <pt x="540" y="663" on="1"/>
        <pt x="586" y="686" on="0"/>
        <pt x="629" y="686" on="1"/>
        <pt x="665" y="686" on="0"/>
        <pt x="687" y="670" on="1"/>
        <pt x="703" y="658" on="0"/>
        <pt x="719" y="581" on="1"/>
        <pt x="730" y="525" on="0"/>
        <pt x="743" y="513" on="1"/>
        <pt x="751" y="505" on="0"/>
        <pt x="763" y="505" on="1"/>
        <pt x="778" y="505" on="0"/>
        <pt x="804" y="512" on="1"/>
      </contour>
      <contour>
        <pt x="453" y="528" on="1"/>
        <pt x="457" y="487" on="0"/>
        <pt x="457" y="419" on="1"/>
        <pt x="458" y="357" on="1"/>
        <pt x="488" y="367" on="1"/>
        <pt x="554" y="390" on="0"/>
        <pt x="622" y="425" on="1"/>
        <pt x="673" y="449" on="0"/>
        <pt x="673" y="453" on="1"/>
        <pt x="673" y="455" on="0"/>
        <pt x="659" y="479" on="0"/>
        <pt x="642" y="520" on="0"/>
        <pt x="639" y="541" on="1"/>
        <pt x="629" y="595" on="0"/>
        <pt x="621" y="607" on="1"/>
        <pt x="615" y="618" on="0"/>
        <pt x="583" y="633" on="0"/>
        <pt x="567" y="633" on="1"/>
        <pt x="536" y="633" on="0"/>
        <pt x="493" y="599" on="1"/>
        <pt x="471" y="577" on="0"/>
        <pt x="457" y="540" on="1"/>
      </contour>
      <contour>
        <pt x="713" y="176" on="1"/>
        <pt x="713" y="253" on="0"/>
        <pt x="610" y="339" on="0"/>
        <pt x="528" y="339" on="1"/>
        <pt x="498" y="339" on="0"/>
        <pt x="481" y="334" on="1"/>
        <pt x="455" y="328" on="0"/>
        <pt x="455" y="325" on="1"/>
        <pt x="454" y="325" on="0"/>
        <pt x="452" y="313" on="1"/>
        <pt x="444" y="257" on="0"/>
        <pt x="425" y="217" on="1"/>
        <pt x="420" y="207" on="1"/>
        <pt x="360" y="160" on="0"/>
        <pt x="304" y="118" on="1"/>
        <pt x="319" y="116" on="1"/>
        <pt x="357" y="113" on="0"/>
        <pt x="393" y="103" on="1"/>
        <pt x="422" y="95" on="0"/>
        <pt x="495" y="66" on="1"/>
        <pt x="551" y="44" on="0"/>
        <pt x="585" y="38" on="1"/>
        <pt x="591" y="37" on="0"/>
        <pt x="602" y="37" on="1"/>
        <pt x="654" y="37" on="0"/>
        <pt x="713" y="120" on="0"/>
      </contour>
    </TTGlyph>
    <TTGlyph name="C" xMin="59" yMin="-24" xMax="607" yMax="685">
      <contour>
        <pt x="269" y="564" on="1"/>
        <pt x="204" y="558" on="0"/>
        <pt x="139" y="441" on="0"/>
        <pt x="139" y="358" on="1"/>
        <pt x="139" y="224" on="0"/>
        <pt x="280" y="64" on="0"/>
        <pt x="403" y="48" on="1"/>
        <pt x="425" y="46" on="0"/>
        <pt x="443" y="46" on="1"/>
        <pt x="448" y="46" on="0"/>
        <pt x="467" y="47" on="0"/>
        <pt x="470" y="47" on="1"/>
        <pt x="485" y="48" on="1"/>
        <pt x="505" y="57" on="0"/>
        <pt x="582" y="96" on="0"/>
        <pt x="601" y="106" on="1"/>
        <pt x="602" y="106" on="0"/>
        <pt x="602" y="93" on="1"/>
        <pt x="602" y="80" on="1"/>
        <pt x="490" y="10" on="0"/>
        <pt x="462" y="-13" on="1"/>
        <pt x="460" y="-15" on="0"/>
        <pt x="443" y="-19" on="1"/>
        <pt x="409" y="-24" on="0"/>
        <pt x="367" y="-24" on="1"/>
        <pt x="360" y="-24" on="0"/>
        <pt x="341" y="-23" on="0"/>
        <pt x="329" y="-22" on="0"/>
        <pt x="326" y="-22" on="1"/>
        <pt x="197" y="-3" on="0"/>
        <pt x="59" y="171" on="0"/>
        <pt x="59" y="319" on="1"/>
        <pt x="59" y="328" on="1"/>
        <pt x="62" y="412" on="0"/>
        <pt x="96" y="487" on="1"/>
        <pt x="101" y="500" on="1"/>
        <pt x="118" y="512" on="1"/>
        <pt x="189" y="563" on="0"/>
        <pt x="245" y="591" on="1"/>
        <pt x="266" y="601" on="1"/>
        <pt x="277" y="595" on="0"/>
        <pt x="299" y="585" on="1"/>
        <pt x="330" y="608" on="0"/>
        <pt x="374" y="629" on="1"/>
        <pt x="417" y="651" on="0"/>
        <pt x="497" y="682" on="1"/>
        <pt x="503" y="685" on="0"/>
        <pt x="505" y="685" on="1"/>
        <pt x="506" y="685" on="0"/>
        <pt x="521" y="639" on="0"/>
        <pt x="541" y="587" on="0"/>
        <pt x="548" y="580" on="1"/>
        <pt x="553" y="576" on="0"/>
        <pt x="563" y="576" on="1"/>
        <pt x="575" y="576" on="0"/>
        <pt x="605" y="585" on="1"/>
        <pt x="607" y="585" on="0"/>
        <pt x="607" y="575" on="1"/>
        <pt x="607" y="564" on="1"/>
        <pt x="537" y="532" on="0"/>
        <pt x="496" y="527" on="1"/>
        <pt x="460" y="552" on="0"/>
        <pt x="420" y="621" on="1"/>
        <pt x="416" y="627" on="0"/>
        <pt x="415" y="627" on="1"/>
        <pt x="410" y="627" on="0"/>
        <pt x="386" y="609" on="0"/>
        <pt x="382" y="603" on="1"/>
        <pt x="373" y="588" on="0"/>
        <pt x="373" y="528" on="0"/>
        <pt x="387" y="473" on="1"/>
        <pt x="400" y="424" on="0"/>
        <pt x="400" y="399" on="1"/>
        <pt x="400" y="337" on="0"/>
        <pt x="366" y="303" on="1"/>
        <pt x="319" y="259" on="0"/>
        <pt x="238" y="244" on="1"/>
        <pt x="236" y="244" on="0"/>
        <pt x="230" y="243" on="0"/>
        <pt x="228" y="242" on="1"/>
        <pt x="226" y="242" on="1"/>
        <pt x="214" y="257" on="1"/>
        <pt x="214" y="258" on="0"/>
        <pt x="227" y="262" on="1"/>
        <pt x="258" y="271" on="0"/>
        <pt x="287" y="299" on="1"/>
        <pt x="304" y="316" on="0"/>
        <pt x="304" y="360" on="1"/>
        <pt x="304" y="396" on="0"/>
        <pt x="286" y="462" on="1"/>
        <pt x="274" y="506" on="0"/>
        <pt x="274" y="532" on="1"/>
        <pt x="274" y="553" on="0"/>
        <pt x="277" y="561" on="1"/>
        <pt x="277" y="564" on="1"/>
      </contour>
    </TTGlyph>
    <TTGlyph name="D" xMin="27" yMin="-27" xMax="745" yMax="685">
      <contour>
        <pt x="115" y="603" on="1"/>
        <pt x="197" y="685" on="0"/>
        <pt x="365" y="685" on="1"/>
        <pt x="423" y="685" on="0"/>
        <pt x="434" y="684" on="1"/>
        <pt x="745" y="653" on="0"/>
        <pt x="745" y="405" on="1"/>
        <pt x="745" y="281" on="0"/>
        <pt x="694" y="151" on="1"/>
        <pt x="687" y="133" on="1"/>
        <pt x="657" y="103" on="1"/>
        <pt x="603" y="50" on="0"/>
        <pt x="568" y="23" on="1"/>
        <pt x="506" y="-27" on="0"/>
        <pt x="470" y="-27" on="1"/>
        <pt x="449" y="-27" on="0"/>
        <pt x="381" y="0" on="1"/>
        <pt x="307" y="30" on="0"/>
        <pt x="227" y="51" on="1"/>
        <pt x="180" y="64" on="0"/>
        <pt x="157" y="64" on="1"/>
        <pt x="122" y="64" on="0"/>
        <pt x="84" y="28" on="1"/>
        <pt x="67" y="9" on="0"/>
        <pt x="57" y="-6" on="1"/>
        <pt x="50" y="-16" on="1"/>
        <pt x="43" y="-8" on="1"/>
        <pt x="35" y="0" on="1"/>
        <pt x="35" y="7" on="0"/>
        <pt x="58" y="41" on="1"/>
        <pt x="106" y="106" on="0"/>
        <pt x="135" y="128" on="1"/>
        <pt x="141" y="133" on="1"/>
        <pt x="154" y="133" on="1"/>
        <pt x="208" y="135" on="0"/>
        <pt x="289" y="181" on="0"/>
        <pt x="297" y="215" on="1"/>
        <pt x="299" y="225" on="0"/>
        <pt x="299" y="230" on="1"/>
        <pt x="299" y="248" on="0"/>
        <pt x="283" y="283" on="0"/>
        <pt x="268" y="303" on="0"/>
        <pt x="252" y="322" on="1"/>
        <pt x="219" y="363" on="0"/>
        <pt x="212" y="375" on="1"/>
        <pt x="209" y="382" on="0"/>
        <pt x="209" y="392" on="1"/>
        <pt x="209" y="408" on="0"/>
        <pt x="217" y="427" on="1"/>
        <pt x="252" y="501" on="0"/>
        <pt x="358" y="556" on="1"/>
        <pt x="368" y="561" on="1"/>
        <pt x="374" y="558" on="1"/>
        <pt x="379" y="554" on="0"/>
        <pt x="383" y="550" on="0"/>
        <pt x="381" y="549" on="1"/>
        <pt x="371" y="541" on="1"/>
        <pt x="349" y="525" on="0"/>
        <pt x="298" y="464" on="0"/>
        <pt x="298" y="444" on="1"/>
        <pt x="298" y="443" on="0"/>
        <pt x="299" y="439" on="0"/>
        <pt x="299" y="438" on="1"/>
        <pt x="304" y="421" on="0"/>
        <pt x="340" y="369" on="1"/>
        <pt x="380" y="312" on="0"/>
        <pt x="388" y="287" on="1"/>
        <pt x="389" y="284" on="0"/>
        <pt x="389" y="277" on="1"/>
        <pt x="389" y="253" on="0"/>
        <pt x="371" y="224" on="1"/>
        <pt x="336" y="174" on="0"/>
        <pt x="267" y="136" on="1"/>
        <pt x="252" y="127" on="1"/>
        <pt x="310" y="116" on="0"/>
        <pt x="401" y="82" on="1"/>
        <pt x="494" y="47" on="0"/>
        <pt x="513" y="47" on="1"/>
        <pt x="540" y="47" on="0"/>
        <pt x="573" y="71" on="1"/>
        <pt x="612" y="102" on="0"/>
        <pt x="635" y="145" on="1"/>
        <pt x="671" y="208" on="0"/>
        <pt x="671" y="323" on="1"/>
        <pt x="671" y="541" on="0"/>
        <pt x="464" y="597" on="1"/>
        <pt x="411" y="611" on="0"/>
        <pt x="346" y="611" on="1"/>
        <pt x="208" y="611" on="0"/>
        <pt x="132" y="545" on="1"/>
        <pt x="64" y="488" on="0"/>
        <pt x="49" y="372" on="1"/>
        <pt x="48" y="367" on="1"/>
        <pt x="37" y="372" on="1"/>
        <pt x="27" y="378" on="1"/>
        <pt x="27" y="393" on="1"/>
        <pt x="33" y="524" on="0"/>
      </contour>
    </TTGlyph>
    <TTGlyph name="E" xMin="86" yMin="-24" xMax="634" yMax="685">
      <contour>
        <pt x="610" y="352" on="1"/>
        <pt x="537" y="312" on="1"/>
        <pt x="536" y="312" on="0"/>
        <pt x="531" y="315" on="0"/>
        <pt x="523" y="321" on="0"/>
        <pt x="520" y="323" on="1"/>
        <pt x="491" y="344" on="0"/>
        <pt x="475" y="355" on="1"/>
        <pt x="466" y="358" on="0"/>
        <pt x="463" y="358" on="1"/>
        <pt x="452" y="358" on="0"/>
        <pt x="427" y="347" on="0"/>
        <pt x="425" y="337" on="1"/>
        <pt x="395" y="244" on="0"/>
        <pt x="263" y="223" on="1"/>
        <pt x="251" y="221" on="1"/>
        <pt x="243" y="229" on="1"/>
        <pt x="235" y="236" on="1"/>
        <pt x="245" y="239" on="1"/>
        <pt x="274" y="247" on="0"/>
        <pt x="303" y="266" on="1"/>
        <pt x="320" y="277" on="0"/>
        <pt x="330" y="304" on="0"/>
        <pt x="330" y="336" on="1"/>
        <pt x="330" y="400" on="0"/>
        <pt x="310" y="471" on="1"/>
        <pt x="300" y="506" on="0"/>
        <pt x="300" y="531" on="1"/>
        <pt x="300" y="549" on="0"/>
        <pt x="303" y="561" on="1"/>
        <pt x="303" y="564" on="0"/>
        <pt x="301" y="564" on="1"/>
        <pt x="274" y="564" on="0"/>
        <pt x="250" y="551" on="1"/>
        <pt x="210" y="531" on="0"/>
        <pt x="165" y="426" on="0"/>
        <pt x="165" y="361" on="1"/>
        <pt x="165" y="198" on="0"/>
        <pt x="266" y="114" on="1"/>
        <pt x="353" y="46" on="0"/>
        <pt x="474" y="46" on="1"/>
        <pt x="491" y="46" on="0"/>
        <pt x="499" y="47" on="1"/>
        <pt x="511" y="48" on="1"/>
        <pt x="550" y="68" on="0"/>
        <pt x="628" y="106" on="1"/>
        <pt x="628" y="80" on="1"/>
        <pt x="605" y="65" on="1"/>
        <pt x="555" y="34" on="0"/>
        <pt x="499" y="-5" on="1"/>
        <pt x="487" y="-14" on="0"/>
        <pt x="478" y="-18" on="0"/>
        <pt x="461" y="-20" on="1"/>
        <pt x="429" y="-24" on="0"/>
        <pt x="392" y="-24" on="1"/>
        <pt x="222" y="-20" on="0"/>
        <pt x="142" y="100" on="1"/>
        <pt x="86" y="182" on="0"/>
        <pt x="86" y="315" on="1"/>
        <pt x="86" y="408" on="0"/>
        <pt x="124" y="491" on="1"/>
        <pt x="128" y="500" on="0"/>
        <pt x="139" y="508" on="1"/>
        <pt x="211" y="560" on="0"/>
        <pt x="272" y="591" on="1"/>
        <pt x="293" y="601" on="1"/>
        <pt x="298" y="598" on="0"/>
        <pt x="319" y="587" on="0"/>
        <pt x="325" y="585" on="1"/>
        <pt x="338" y="594" on="1"/>
        <pt x="404" y="637" on="0"/>
        <pt x="504" y="674" on="1"/>
        <pt x="530" y="685" on="0"/>
        <pt x="532" y="685" on="1"/>
        <pt x="533" y="685" on="0"/>
        <pt x="547" y="640" on="0"/>
        <pt x="567" y="588" on="0"/>
        <pt x="574" y="581" on="1"/>
        <pt x="580" y="575" on="0"/>
        <pt x="591" y="575" on="1"/>
        <pt x="604" y="575" on="0"/>
        <pt x="623" y="582" on="1"/>
        <pt x="632" y="585" on="0"/>
        <pt x="634" y="585" on="1"/>
        <pt x="634" y="564" on="1"/>
        <pt x="623" y="559" on="1"/>
        <pt x="572" y="535" on="0"/>
        <pt x="532" y="529" on="1"/>
        <pt x="522" y="527" on="1"/>
        <pt x="494" y="546" on="0"/>
        <pt x="442" y="627" on="1"/>
        <pt x="442" y="628" on="0"/>
        <pt x="438" y="626" on="0"/>
        <pt x="431" y="622" on="0"/>
        <pt x="428" y="620" on="1"/>
        <pt x="410" y="610" on="0"/>
        <pt x="399" y="586" on="0"/>
        <pt x="399" y="532" on="0"/>
        <pt x="409" y="487" on="1"/>
        <pt x="420" y="430" on="0"/>
        <pt x="427" y="369" on="1"/>
        <pt x="476" y="400" on="1"/>
        <pt x="526" y="431" on="0"/>
        <pt x="526" y="432" on="1"/>
        <pt x="531" y="426" on="0"/>
        <pt x="537" y="420" on="1"/>
        <pt x="565" y="382" on="0"/>
        <pt x="602" y="359" on="1"/>
        <pt x="611" y="353" on="0"/>
      </contour>
    </TTGlyph>
    <TTGlyph name="F" xMin="11" yMin="-153" xMax="612" yMax="686">
      <contour>
        <pt x="192" y="127" on="1"/>
        <pt x="192" y="108" on="0"/>
        <pt x="179" y="22" on="0"/>
        <pt x="179" y="4" on="1"/>
        <pt x="179" y="-72" on="0"/>
        <pt x="229" y="-103" on="1"/>
        <pt x="249" y="-117" on="0"/>
        <pt x="272" y="-117" on="1"/>
        <pt x="319" y="-117" on="0"/>
        <pt x="361" y="-75" on="1"/>
        <pt x="405" y="-31" on="0"/>
        <pt x="405" y="33" on="1"/>
        <pt x="405" y="58" on="0"/>
        <pt x="388" y="95" on="1"/>
        <pt x="364" y="143" on="0"/>
        <pt x="314" y="214" on="1"/>
        <pt x="269" y="278" on="0"/>
        <pt x="251" y="316" on="1"/>
        <pt x="235" y="347" on="0"/>
        <pt x="235" y="368" on="1"/>
        <pt x="235" y="399" on="0"/>
        <pt x="264" y="439" on="1"/>
        <pt x="305" y="493" on="0"/>
        <pt x="373" y="536" on="1"/>
        <pt x="382" y="543" on="1"/>
        <pt x="382" y="544" on="0"/>
        <pt x="368" y="552" on="1"/>
        <pt x="269" y="610" on="0"/>
        <pt x="212" y="616" on="1"/>
        <pt x="209" y="616" on="0"/>
        <pt x="200" y="617" on="0"/>
        <pt x="198" y="617" on="1"/>
        <pt x="182" y="617" on="0"/>
        <pt x="161" y="609" on="1"/>
        <pt x="100" y="580" on="0"/>
        <pt x="78" y="478" on="1"/>
        <pt x="75" y="463" on="1"/>
        <pt x="74" y="463" on="0"/>
        <pt x="59" y="473" on="0"/>
        <pt x="59" y="474" on="1"/>
        <pt x="59" y="498" on="0"/>
        <pt x="71" y="541" on="1"/>
        <pt x="91" y="606" on="0"/>
        <pt x="182" y="686" on="0"/>
        <pt x="253" y="686" on="1"/>
        <pt x="272" y="686" on="0"/>
        <pt x="295" y="680" on="1"/>
        <pt x="324" y="673" on="0"/>
        <pt x="432" y="622" on="0"/>
        <pt x="468" y="598" on="1"/>
        <pt x="498" y="580" on="0"/>
        <pt x="524" y="580" on="1"/>
        <pt x="529" y="580" on="0"/>
        <pt x="537" y="582" on="1"/>
        <pt x="557" y="588" on="0"/>
        <pt x="595" y="626" on="1"/>
        <pt x="612" y="643" on="1"/>
        <pt x="612" y="616" on="1"/>
        <pt x="599" y="599" on="1"/>
        <pt x="520" y="500" on="0"/>
        <pt x="482" y="500" on="1"/>
        <pt x="462" y="500" on="0"/>
        <pt x="435" y="514" on="1"/>
        <pt x="420" y="521" on="1"/>
        <pt x="380" y="515" on="0"/>
        <pt x="309" y="452" on="0"/>
        <pt x="309" y="415" on="1"/>
        <pt x="309" y="387" on="0"/>
        <pt x="340" y="334" on="1"/>
        <pt x="364" y="294" on="0"/>
        <pt x="367" y="294" on="1"/>
        <pt x="367" y="293" on="0"/>
        <pt x="383" y="309" on="0"/>
        <pt x="413" y="336" on="0"/>
        <pt x="429" y="352" on="1"/>
        <pt x="490" y="410" on="1"/>
        <pt x="517" y="377" on="0"/>
        <pt x="523" y="368" on="1"/>
        <pt x="539" y="348" on="0"/>
        <pt x="542" y="332" on="1"/>
        <pt x="542" y="329" on="0"/>
        <pt x="522" y="303" on="1"/>
        <pt x="502" y="273" on="0"/>
        <pt x="499" y="273" on="1"/>
        <pt x="484" y="294" on="0"/>
        <pt x="481" y="297" on="1"/>
        <pt x="466" y="313" on="0"/>
        <pt x="449" y="313" on="1"/>
        <pt x="440" y="313" on="0"/>
        <pt x="433" y="310" on="1"/>
        <pt x="416" y="302" on="0"/>
        <pt x="381" y="274" on="1"/>
        <pt x="378" y="271" on="1"/>
        <pt x="394" y="250" on="1"/>
        <pt x="444" y="183" on="0"/>
        <pt x="470" y="129" on="1"/>
        <pt x="484" y="96" on="0"/>
        <pt x="484" y="71" on="1"/>
        <pt x="484" y="5" on="0"/>
        <pt x="401" y="-95" on="0"/>
        <pt x="339" y="-126" on="1"/>
        <pt x="281" y="-153" on="0"/>
        <pt x="223" y="-153" on="1"/>
        <pt x="193" y="-153" on="0"/>
        <pt x="158" y="-138" on="0"/>
        <pt x="137" y="-120" on="1"/>
        <pt x="103" y="-89" on="0"/>
        <pt x="103" y="-8" on="1"/>
        <pt x="103" y="8" on="0"/>
        <pt x="109" y="77" on="0"/>
        <pt x="109" y="96" on="1"/>
        <pt x="109" y="119" on="0"/>
        <pt x="105" y="143" on="0"/>
        <pt x="89" y="161" on="0"/>
        <pt x="72" y="161" on="1"/>
        <pt x="47" y="161" on="0"/>
        <pt x="16" y="143" on="1"/>
        <pt x="14" y="154" on="1"/>
        <pt x="11" y="165" on="1"/>
        <pt x="15" y="167" on="0"/>
        <pt x="50" y="189" on="0"/>
        <pt x="58" y="193" on="1"/>
        <pt x="87" y="208" on="0"/>
        <pt x="113" y="214" on="1"/>
        <pt x="133" y="219" on="0"/>
        <pt x="143" y="219" on="1"/>
        <pt x="162" y="219" on="0"/>
        <pt x="174" y="201" on="1"/>
        <pt x="192" y="175" on="0"/>
      </contour>
    </TTGlyph>
    <TTGlyph name="G" xMin="66" yMin="-26" xMax="710" yMax="690">
      <contour>
        <pt x="373" y="560" on="1"/>
        <pt x="373" y="539" on="0"/>
        <pt x="391" y="421" on="0"/>
        <pt x="394" y="421" on="1"/>
        <pt x="399" y="421" on="0"/>
        <pt x="465" y="467" on="1"/>
        <pt x="489" y="485" on="0"/>
        <pt x="548" y="537" on="1"/>
        <pt x="538" y="543" on="1"/>
        <pt x="481" y="571" on="0"/>
        <pt x="452" y="628" on="1"/>
        <pt x="487" y="659" on="1"/>
        <pt x="521" y="690" on="0"/>
        <pt x="522" y="690" on="1"/>
        <pt x="523" y="688" on="1"/>
        <pt x="524" y="687" on="0"/>
        <pt x="525" y="684" on="0"/>
        <pt x="526" y="683" on="1"/>
        <pt x="554" y="626" on="0"/>
        <pt x="607" y="608" on="1"/>
        <pt x="617" y="606" on="0"/>
        <pt x="621" y="606" on="1"/>
        <pt x="644" y="606" on="0"/>
        <pt x="660" y="622" on="1"/>
        <pt x="665" y="601" on="0"/>
        <pt x="664" y="600" on="1"/>
        <pt x="497" y="455" on="1"/>
        <pt x="495" y="453" on="0"/>
        <pt x="527" y="453" on="1"/>
        <pt x="546" y="453" on="1"/>
        <pt x="624" y="453" on="0"/>
        <pt x="666" y="406" on="1"/>
        <pt x="710" y="357" on="0"/>
        <pt x="710" y="294" on="1"/>
        <pt x="705" y="193" on="0"/>
        <pt x="631" y="109" on="1"/>
        <pt x="621" y="98" on="1"/>
        <pt x="577" y="69" on="1"/>
        <pt x="497" y="15" on="0"/>
        <pt x="479" y="1" on="1"/>
        <pt x="444" y="-26" on="0"/>
        <pt x="370" y="-26" on="1"/>
        <pt x="341" y="-26" on="0"/>
        <pt x="333" y="-25" on="1"/>
        <pt x="205" y="-9" on="0"/>
        <pt x="66" y="170" on="0"/>
        <pt x="66" y="319" on="1"/>
        <pt x="66" y="441" on="0"/>
        <pt x="113" y="505" on="1"/>
        <pt x="191" y="552" on="1"/>
        <pt x="269" y="600" on="0"/>
        <pt x="270" y="600" on="1"/>
        <pt x="299" y="586" on="1"/>
        <pt x="300" y="586" on="0"/>
        <pt x="357" y="623" on="1"/>
        <pt x="413" y="659" on="0"/>
        <pt x="415" y="659" on="1"/>
        <pt x="416" y="659" on="0"/>
        <pt x="426" y="649" on="1"/>
        <pt x="373" y="604" on="0"/>
      </contour>
      <contour>
        <pt x="287" y="567" on="1"/>
        <pt x="287" y="569" on="0"/>
        <pt x="286" y="569" on="1"/>
        <pt x="280" y="567" on="0"/>
        <pt x="273" y="565" on="1"/>
        <pt x="217" y="550" on="0"/>
        <pt x="191" y="520" on="1"/>
        <pt x="144" y="464" on="0"/>
        <pt x="144" y="362" on="1"/>
        <pt x="144" y="355" on="1"/>
        <pt x="149" y="204" on="0"/>
        <pt x="235" y="122" on="1"/>
        <pt x="301" y="58" on="0"/>
        <pt x="387" y="44" on="1"/>
        <pt x="403" y="42" on="0"/>
        <pt x="420" y="42" on="1"/>
        <pt x="522" y="42" on="0"/>
        <pt x="579" y="118" on="1"/>
        <pt x="622" y="179" on="0"/>
        <pt x="622" y="255" on="1"/>
        <pt x="622" y="293" on="0"/>
        <pt x="602" y="338" on="0"/>
        <pt x="578" y="357" on="1"/>
        <pt x="526" y="400" on="0"/>
        <pt x="453" y="400" on="1"/>
        <pt x="434" y="400" on="0"/>
        <pt x="410" y="396" on="1"/>
        <pt x="399" y="394" on="1"/>
        <pt x="400" y="378" on="1"/>
        <pt x="400" y="372" on="1"/>
        <pt x="400" y="304" on="0"/>
        <pt x="332" y="235" on="0"/>
        <pt x="265" y="219" on="1"/>
        <pt x="239" y="213" on="0"/>
        <pt x="234" y="213" on="1"/>
        <pt x="226" y="220" on="1"/>
        <pt x="219" y="228" on="1"/>
        <pt x="221" y="229" on="0"/>
        <pt x="224" y="230" on="1"/>
        <pt x="247" y="236" on="0"/>
        <pt x="294" y="278" on="0"/>
        <pt x="300" y="298" on="1"/>
        <pt x="305" y="312" on="0"/>
        <pt x="305" y="329" on="1"/>
        <pt x="305" y="343" on="1"/>
        <pt x="305" y="383" on="0"/>
        <pt x="296" y="423" on="1"/>
        <pt x="282" y="484" on="0"/>
        <pt x="282" y="519" on="1"/>
        <pt x="282" y="545" on="0"/>
        <pt x="284" y="554" on="1"/>
        <pt x="286" y="566" on="0"/>
      </contour>
    </TTGlyph>
    <TTGlyph name="H" xMin="1" yMin="-133" xMax="644" yMax="666">
      <contour>
        <pt x="11" y="-16" on="1"/>
        <pt x="10" y="-14" on="0"/>
        <pt x="1" y="-1" on="0"/>
        <pt x="1" y="0" on="1"/>
        <pt x="2" y="2" on="1"/>
        <pt x="4" y="4" on="0"/>
        <pt x="10" y="10" on="0"/>
        <pt x="12" y="13" on="1"/>
        <pt x="79" y="88" on="0"/>
        <pt x="111" y="99" on="1"/>
        <pt x="118" y="101" on="0"/>
        <pt x="128" y="101" on="1"/>
        <pt x="160" y="99" on="0"/>
        <pt x="195" y="66" on="1"/>
        <pt x="203" y="59" on="1"/>
        <pt x="211" y="67" on="1"/>
        <pt x="239" y="95" on="0"/>
        <pt x="239" y="133" on="1"/>
        <pt x="239" y="148" on="0"/>
        <pt x="237" y="154" on="1"/>
        <pt x="231" y="176" on="0"/>
        <pt x="204" y="226" on="1"/>
        <pt x="155" y="315" on="0"/>
        <pt x="132" y="381" on="1"/>
        <pt x="123" y="408" on="0"/>
        <pt x="123" y="430" on="1"/>
        <pt x="123" y="475" on="0"/>
        <pt x="174" y="538" on="1"/>
        <pt x="221" y="595" on="0"/>
        <pt x="304" y="655" on="1"/>
        <pt x="319" y="666" on="0"/>
        <pt x="320" y="666" on="1"/>
        <pt x="377" y="609" on="0"/>
        <pt x="440" y="606" on="1"/>
        <pt x="452" y="606" on="0"/>
        <pt x="457" y="607" on="1"/>
        <pt x="470" y="612" on="0"/>
        <pt x="519" y="647" on="1"/>
        <pt x="542" y="664" on="1"/>
        <pt x="543" y="664" on="0"/>
        <pt x="543" y="654" on="1"/>
        <pt x="543" y="643" on="1"/>
        <pt x="522" y="622" on="1"/>
        <pt x="434" y="537" on="0"/>
        <pt x="403" y="537" on="1"/>
        <pt x="368" y="537" on="0"/>
        <pt x="294" y="569" on="1"/>
        <pt x="280" y="576" on="0"/>
        <pt x="270" y="580" on="1"/>
        <pt x="261" y="585" on="1"/>
        <pt x="253" y="574" on="1"/>
        <pt x="219" y="533" on="0"/>
        <pt x="208" y="493" on="1"/>
        <pt x="206" y="483" on="0"/>
        <pt x="206" y="475" on="1"/>
        <pt x="206" y="460" on="0"/>
        <pt x="209" y="447" on="1"/>
        <pt x="216" y="418" on="0"/>
        <pt x="230" y="386" on="1"/>
        <pt x="253" y="333" on="0"/>
        <pt x="255" y="331" on="1"/>
        <pt x="273" y="347" on="1"/>
        <pt x="334" y="405" on="0"/>
        <pt x="421" y="459" on="1"/>
        <pt x="437" y="468" on="1"/>
        <pt x="453" y="468" on="1"/>
        <pt x="545" y="463" on="0"/>
        <pt x="608" y="421" on="1"/>
        <pt x="618" y="415" on="1"/>
        <pt x="623" y="392" on="1"/>
        <pt x="644" y="307" on="0"/>
        <pt x="644" y="233" on="1"/>
        <pt x="644" y="97" on="0"/>
        <pt x="612" y="9" on="1"/>
        <pt x="604" y="-10" on="0"/>
        <pt x="598" y="-20" on="0"/>
        <pt x="581" y="-35" on="1"/>
        <pt x="505" y="-104" on="0"/>
        <pt x="467" y="-124" on="1"/>
        <pt x="446" y="-133" on="0"/>
        <pt x="431" y="-133" on="1"/>
        <pt x="407" y="-132" on="0"/>
        <pt x="387" y="-121" on="1"/>
        <pt x="383" y="-119" on="0"/>
        <pt x="374" y="-113" on="0"/>
        <pt x="368" y="-108" on="0"/>
        <pt x="368" y="-106" on="0"/>
        <pt x="392" y="-75" on="1"/>
        <pt x="415" y="-43" on="1"/>
        <pt x="424" y="-56" on="0"/>
        <pt x="435" y="-67" on="0"/>
        <pt x="457" y="-79" on="0"/>
        <pt x="472" y="-79" on="1"/>
        <pt x="483" y="-79" on="0"/>
        <pt x="490" y="-76" on="1"/>
        <pt x="538" y="-52" on="0"/>
        <pt x="551" y="46" on="1"/>
        <pt x="558" y="97" on="0"/>
        <pt x="558" y="180" on="1"/>
        <pt x="558" y="232" on="0"/>
        <pt x="557" y="245" on="1"/>
        <pt x="544" y="351" on="0"/>
        <pt x="498" y="383" on="1"/>
        <pt x="467" y="404" on="0"/>
        <pt x="424" y="404" on="1"/>
        <pt x="406" y="404" on="0"/>
        <pt x="387" y="398" on="1"/>
        <pt x="326" y="376" on="0"/>
        <pt x="276" y="295" on="1"/>
        <pt x="272" y="288" on="0"/>
        <pt x="273" y="285" on="1"/>
        <pt x="300" y="216" on="0"/>
        <pt x="300" y="168" on="1"/>
        <pt x="300" y="162" on="0"/>
        <pt x="300" y="154" on="0"/>
        <pt x="299" y="145" on="0"/>
        <pt x="298" y="140" on="0"/>
        <pt x="295" y="134" on="0"/>
        <pt x="294" y="130" on="0"/>
        <pt x="289" y="123" on="0"/>
        <pt x="286" y="120" on="0"/>
        <pt x="279" y="110" on="0"/>
        <pt x="277" y="107" on="1"/>
        <pt x="212" y="23" on="0"/>
        <pt x="178" y="-13" on="1"/>
        <pt x="166" y="-26" on="1"/>
        <pt x="149" y="-9" on="1"/>
        <pt x="126" y="14" on="0"/>
        <pt x="106" y="25" on="1"/>
        <pt x="92" y="32" on="0"/>
        <pt x="81" y="32" on="1"/>
        <pt x="77" y="32" on="0"/>
        <pt x="71" y="30" on="1"/>
        <pt x="54" y="23" on="0"/>
        <pt x="21" y="-7" on="1"/>
      </contour>
    </TTGlyph>
    <TTGlyph name="I" xMin="30" yMin="-26" xMax="532" yMax="686">
      <contour>
        <pt x="522" y="670" on="1"/>
        <pt x="532" y="655" on="0"/>
        <pt x="532" y="654" on="1"/>
        <pt x="471" y="593" on="0"/>
        <pt x="390" y="550" on="1"/>
        <pt x="378" y="543" on="1"/>
        <pt x="343" y="556" on="1"/>
        <pt x="223" y="601" on="0"/>
        <pt x="190" y="601" on="1"/>
        <pt x="180" y="601" on="0"/>
        <pt x="174" y="600" on="1"/>
        <pt x="122" y="592" on="0"/>
        <pt x="84" y="534" on="1"/>
        <pt x="73" y="519" on="0"/>
        <pt x="53" y="476" on="1"/>
        <pt x="49" y="463" on="0"/>
        <pt x="48" y="463" on="1"/>
        <pt x="44" y="465" on="0"/>
        <pt x="39" y="468" on="1"/>
        <pt x="30" y="473" on="1"/>
        <pt x="35" y="488" on="1"/>
        <pt x="78" y="607" on="0"/>
        <pt x="114" y="645" on="1"/>
        <pt x="153" y="686" on="0"/>
        <pt x="211" y="686" on="1"/>
        <pt x="253" y="686" on="0"/>
        <pt x="342" y="645" on="1"/>
        <pt x="399" y="618" on="0"/>
        <pt x="417" y="617" on="1"/>
        <pt x="435" y="617" on="0"/>
        <pt x="457" y="628" on="1"/>
        <pt x="488" y="644" on="0"/>
        <pt x="517" y="667" on="1"/>
      </contour>
      <contour>
        <pt x="43" y="-16" on="1"/>
        <pt x="43" y="-15" on="0"/>
        <pt x="41" y="-9" on="0"/>
        <pt x="38" y="-2" on="0"/>
        <pt x="38" y="0" on="1"/>
        <pt x="48" y="13" on="1"/>
        <pt x="78" y="53" on="0"/>
        <pt x="150" y="125" on="1"/>
        <pt x="154" y="130" on="0"/>
        <pt x="159" y="130" on="1"/>
        <pt x="167" y="130" on="0"/>
        <pt x="179" y="92" on="1"/>
        <pt x="187" y="62" on="0"/>
        <pt x="193" y="53" on="1"/>
        <pt x="213" y="22" on="0"/>
        <pt x="261" y="22" on="1"/>
        <pt x="276" y="22" on="0"/>
        <pt x="282" y="24" on="1"/>
        <pt x="317" y="34" on="0"/>
        <pt x="344" y="68" on="1"/>
        <pt x="378" y="113" on="0"/>
        <pt x="378" y="208" on="1"/>
        <pt x="378" y="253" on="0"/>
        <pt x="368" y="327" on="1"/>
        <pt x="360" y="413" on="0"/>
        <pt x="360" y="424" on="1"/>
        <pt x="360" y="430" on="0"/>
        <pt x="361" y="449" on="0"/>
        <pt x="361" y="451" on="1"/>
        <pt x="362" y="462" on="1"/>
        <pt x="412" y="523" on="0"/>
        <pt x="482" y="571" on="1"/>
        <pt x="495" y="580" on="1"/>
        <pt x="503" y="577" on="1"/>
        <pt x="511" y="575" on="1"/>
        <pt x="499" y="562" on="1"/>
        <pt x="442" y="503" on="0"/>
        <pt x="442" y="465" on="1"/>
        <pt x="442" y="430" on="0"/>
        <pt x="450" y="382" on="1"/>
        <pt x="462" y="300" on="0"/>
        <pt x="462" y="246" on="1"/>
        <pt x="462" y="176" on="0"/>
        <pt x="427" y="92" on="0"/>
        <pt x="385" y="56" on="1"/>
        <pt x="307" y="-13" on="0"/>
        <pt x="222" y="-25" on="1"/>
        <pt x="217" y="-26" on="0"/>
        <pt x="195" y="-26" on="1"/>
        <pt x="176" y="-26" on="0"/>
        <pt x="170" y="-24" on="1"/>
        <pt x="138" y="-15" on="0"/>
        <pt x="104" y="14" on="1"/>
        <pt x="96" y="21" on="1"/>
        <pt x="70" y="3" on="1"/>
      </contour>
    </TTGlyph>
    <TTGlyph name="J" xMin="-10" yMin="-139" xMax="522" yMax="686">
      <contour>
        <pt x="165" y="665" on="1"/>
        <pt x="195" y="686" on="0"/>
        <pt x="222" y="686" on="1"/>
        <pt x="245" y="686" on="0"/>
        <pt x="271" y="671" on="1"/>
        <pt x="298" y="657" on="0"/>
        <pt x="342" y="622" on="1"/>
        <pt x="365" y="602" on="0"/>
        <pt x="389" y="589" on="1"/>
        <pt x="410" y="580" on="0"/>
        <pt x="422" y="580" on="1"/>
        <pt x="426" y="580" on="0"/>
        <pt x="440" y="582" on="1"/>
        <pt x="463" y="584" on="0"/>
        <pt x="505" y="604" on="1"/>
        <pt x="509" y="606" on="0"/>
        <pt x="517" y="610" on="0"/>
        <pt x="520" y="611" on="1"/>
        <pt x="522" y="612" on="1"/>
        <pt x="522" y="591" on="1"/>
        <pt x="487" y="574" on="1"/>
        <pt x="397" y="529" on="0"/>
        <pt x="373" y="520" on="1"/>
        <pt x="363" y="516" on="0"/>
        <pt x="357" y="517" on="1"/>
        <pt x="328" y="523" on="0"/>
        <pt x="282" y="559" on="1"/>
        <pt x="234" y="596" on="0"/>
        <pt x="204" y="600" on="1"/>
        <pt x="202" y="600" on="0"/>
        <pt x="196" y="601" on="0"/>
        <pt x="194" y="601" on="1"/>
        <pt x="161" y="601" on="0"/>
        <pt x="98" y="543" on="0"/>
        <pt x="76" y="505" on="1"/>
        <pt x="69" y="495" on="1"/>
        <pt x="66" y="497" on="0"/>
        <pt x="61" y="500" on="1"/>
        <pt x="55" y="505" on="0"/>
        <pt x="55" y="508" on="0"/>
        <pt x="60" y="521" on="1"/>
        <pt x="86" y="582" on="0"/>
        <pt x="121" y="623" on="1"/>
        <pt x="143" y="649" on="0"/>
      </contour>
      <contour>
        <pt x="-4" y="64" on="1"/>
        <pt x="-5" y="66" on="0"/>
        <pt x="-9" y="77" on="0"/>
        <pt x="-10" y="80" on="1"/>
        <pt x="12" y="102" on="0"/>
        <pt x="92" y="144" on="0"/>
        <pt x="118" y="144" on="1"/>
        <pt x="158" y="144" on="0"/>
        <pt x="172" y="118" on="1"/>
        <pt x="180" y="103" on="0"/>
        <pt x="181" y="53" on="1"/>
        <pt x="183" y="-5" on="0"/>
        <pt x="197" y="-63" on="0"/>
        <pt x="220" y="-79" on="1"/>
        <pt x="245" y="-96" on="0"/>
        <pt x="278" y="-96" on="1"/>
        <pt x="328" y="-96" on="0"/>
        <pt x="383" y="-23" on="0"/>
        <pt x="383" y="39" on="1"/>
        <pt x="383" y="91" on="0"/>
        <pt x="358" y="196" on="1"/>
        <pt x="341" y="264" on="0"/>
        <pt x="336" y="292" on="1"/>
        <pt x="329" y="338" on="0"/>
        <pt x="329" y="361" on="1"/>
        <pt x="329" y="364" on="0"/>
        <pt x="330" y="376" on="0"/>
        <pt x="330" y="378" on="1"/>
        <pt x="331" y="388" on="1"/>
        <pt x="339" y="399" on="1"/>
        <pt x="390" y="466" on="0"/>
        <pt x="462" y="526" on="1"/>
        <pt x="467" y="531" on="0"/>
        <pt x="469" y="531" on="1"/>
        <pt x="470" y="531" on="0"/>
        <pt x="471" y="530" on="1"/>
        <pt x="484" y="523" on="0"/>
        <pt x="484" y="521" on="1"/>
        <pt x="480" y="516" on="0"/>
        <pt x="474" y="509" on="1"/>
        <pt x="425" y="451" on="0"/>
        <pt x="413" y="405" on="1"/>
        <pt x="411" y="398" on="0"/>
        <pt x="411" y="379" on="1"/>
        <pt x="411" y="346" on="0"/>
        <pt x="428" y="257" on="1"/>
        <pt x="458" y="108" on="0"/>
        <pt x="458" y="82" on="1"/>
        <pt x="458" y="0" on="0"/>
        <pt x="388" y="-70" on="1"/>
        <pt x="319" y="-139" on="0"/>
        <pt x="239" y="-139" on="1"/>
        <pt x="146" y="-139" on="0"/>
        <pt x="120" y="-79" on="1"/>
        <pt x="112" y="-58" on="0"/>
        <pt x="106" y="-14" on="1"/>
        <pt x="97" y="54" on="0"/>
        <pt x="85" y="67" on="1"/>
        <pt x="72" y="80" on="0"/>
        <pt x="52" y="80" on="1"/>
        <pt x="28" y="80" on="0"/>
      </contour>
    </TTGlyph>
    <TTGlyph name="K" xMin="17" yMin="-27" xMax="682" yMax="680">
      <contour>
        <pt x="80" y="106" on="1"/>
        <pt x="94" y="73" on="0"/>
        <pt x="127" y="37" on="0"/>
        <pt x="154" y="37" on="1"/>
        <pt x="219" y="41" on="0"/>
        <pt x="219" y="142" on="1"/>
        <pt x="219" y="174" on="0"/>
        <pt x="212" y="223" on="0"/>
        <pt x="203" y="254" on="0"/>
        <pt x="188" y="305" on="1"/>
        <pt x="160" y="400" on="0"/>
        <pt x="160" y="434" on="1"/>
        <pt x="160" y="443" on="0"/>
        <pt x="165" y="454" on="1"/>
        <pt x="190" y="516" on="0"/>
        <pt x="240" y="574" on="1"/>
        <pt x="268" y="604" on="0"/>
        <pt x="285" y="617" on="1"/>
        <pt x="351" y="671" on="0"/>
        <pt x="443" y="680" on="1"/>
        <pt x="460" y="680" on="1"/>
        <pt x="498" y="680" on="0"/>
        <pt x="506" y="679" on="1"/>
        <pt x="586" y="665" on="0"/>
        <pt x="618" y="617" on="1"/>
        <pt x="618" y="599" on="1"/>
        <pt x="618" y="574" on="0"/>
        <pt x="614" y="549" on="1"/>
        <pt x="607" y="509" on="0"/>
        <pt x="602" y="501" on="1"/>
        <pt x="596" y="495" on="0"/>
        <pt x="587" y="495" on="1"/>
        <pt x="586" y="495" on="0"/>
        <pt x="586" y="499" on="1"/>
        <pt x="586" y="500" on="0"/>
        <pt x="585" y="510" on="0"/>
        <pt x="585" y="513" on="1"/>
        <pt x="576" y="570" on="0"/>
        <pt x="488" y="628" on="0"/>
        <pt x="415" y="628" on="1"/>
        <pt x="334" y="628" on="0"/>
        <pt x="244" y="544" on="0"/>
        <pt x="244" y="466" on="1"/>
        <pt x="244" y="415" on="0"/>
        <pt x="258" y="377" on="1"/>
        <pt x="261" y="367" on="1"/>
        <pt x="276" y="382" on="1"/>
        <pt x="323" y="431" on="0"/>
        <pt x="417" y="494" on="0"/>
        <pt x="452" y="499" on="1"/>
        <pt x="458" y="500" on="0"/>
        <pt x="468" y="500" on="1"/>
        <pt x="503" y="500" on="0"/>
        <pt x="535" y="453" on="0"/>
        <pt x="547" y="407" on="1"/>
        <pt x="552" y="386" on="0"/>
        <pt x="580" y="357" on="0"/>
        <pt x="601" y="357" on="1"/>
        <pt x="612" y="357" on="0"/>
        <pt x="623" y="361" on="1"/>
        <pt x="623" y="360" on="0"/>
        <pt x="618" y="341" on="0"/>
        <pt x="617" y="340" on="1"/>
        <pt x="582" y="324" on="0"/>
        <pt x="541" y="305" on="1"/>
        <pt x="465" y="272" on="1"/>
        <pt x="500" y="261" on="0"/>
        <pt x="502" y="260" on="1"/>
        <pt x="512" y="255" on="1"/>
        <pt x="519" y="242" on="1"/>
        <pt x="534" y="207" on="0"/>
        <pt x="551" y="136" on="1"/>
        <pt x="559" y="97" on="0"/>
        <pt x="588" y="53" on="0"/>
        <pt x="617" y="53" on="1"/>
        <pt x="650" y="53" on="0"/>
        <pt x="682" y="74" on="1"/>
        <pt x="682" y="54" on="1"/>
        <pt x="675" y="46" on="1"/>
        <pt x="638" y="9" on="0"/>
        <pt x="605" y="-9" on="1"/>
        <pt x="575" y="-27" on="0"/>
        <pt x="554" y="-27" on="1"/>
        <pt x="542" y="-27" on="0"/>
        <pt x="532" y="-21" on="1"/>
        <pt x="505" y="-4" on="0"/>
        <pt x="491" y="36" on="1"/>
        <pt x="483" y="54" on="0"/>
        <pt x="478" y="91" on="1"/>
        <pt x="467" y="161" on="0"/>
        <pt x="443" y="213" on="0"/>
        <pt x="418" y="222" on="1"/>
        <pt x="402" y="228" on="0"/>
        <pt x="378" y="228" on="1"/>
        <pt x="338" y="228" on="0"/>
        <pt x="289" y="207" on="1"/>
        <pt x="288" y="196" on="1"/>
        <pt x="288" y="160" on="0"/>
        <pt x="284" y="138" on="1"/>
        <pt x="283" y="125" on="0"/>
        <pt x="262" y="98" on="1"/>
        <pt x="238" y="68" on="0"/>
        <pt x="219" y="49" on="1"/>
        <pt x="165" y="-6" on="0"/>
        <pt x="112" y="-24" on="1"/>
        <pt x="102" y="-27" on="1"/>
        <pt x="91" y="-25" on="1"/>
        <pt x="48" y="-14" on="0"/>
        <pt x="17" y="31" on="1"/>
        <pt x="17" y="33" on="0"/>
        <pt x="49" y="69" on="1"/>
      </contour>
      <contour>
        <pt x="421" y="434" on="1"/>
        <pt x="411" y="436" on="0"/>
        <pt x="405" y="436" on="1"/>
        <pt x="393" y="436" on="0"/>
        <pt x="378" y="431" on="1"/>
        <pt x="322" y="411" on="0"/>
        <pt x="275" y="337" on="1"/>
        <pt x="267" y="325" on="1"/>
        <pt x="271" y="313" on="1"/>
        <pt x="280" y="283" on="0"/>
        <pt x="285" y="252" on="1"/>
        <pt x="288" y="237" on="0"/>
        <pt x="288" y="234" on="1"/>
        <pt x="289" y="234" on="0"/>
        <pt x="501" y="318" on="0"/>
        <pt x="502" y="319" on="1"/>
        <pt x="501" y="321" on="0"/>
        <pt x="499" y="323" on="1"/>
        <pt x="486" y="336" on="0"/>
        <pt x="475" y="371" on="1"/>
        <pt x="473" y="376" on="0"/>
        <pt x="470" y="384" on="1"/>
        <pt x="467" y="391" on="1"/>
        <pt x="453" y="420" on="0"/>
        <pt x="434" y="430" on="1"/>
        <pt x="426" y="434" on="0"/>
      </contour>
    </TTGlyph>
    <TTGlyph name="L" xMin="33" yMin="-26" xMax="644" yMax="686">
      <contour>
        <pt x="475" y="461" on="1"/>
        <pt x="475" y="472" on="0"/>
        <pt x="480" y="532" on="0"/>
        <pt x="480" y="546" on="1"/>
        <pt x="480" y="600" on="0"/>
        <pt x="454" y="619" on="1"/>
        <pt x="426" y="638" on="0"/>
        <pt x="379" y="638" on="1"/>
        <pt x="322" y="638" on="0"/>
        <pt x="243" y="573" on="0"/>
        <pt x="239" y="526" on="1"/>
        <pt x="237" y="480" on="0"/>
        <pt x="280" y="394" on="1"/>
        <pt x="319" y="310" on="0"/>
        <pt x="320" y="268" on="1"/>
        <pt x="320" y="250" on="1"/>
        <pt x="296" y="222" on="0"/>
        <pt x="244" y="169" on="1"/>
        <pt x="203" y="128" on="1"/>
        <pt x="210" y="128" on="1"/>
        <pt x="216" y="128" on="0"/>
        <pt x="238" y="120" on="1"/>
        <pt x="362" y="71" on="0"/>
        <pt x="441" y="65" on="1"/>
        <pt x="444" y="65" on="0"/>
        <pt x="461" y="64" on="0"/>
        <pt x="466" y="64" on="1"/>
        <pt x="522" y="64" on="0"/>
        <pt x="587" y="99" on="0"/>
        <pt x="607" y="140" on="1"/>
        <pt x="617" y="158" on="0"/>
        <pt x="625" y="186" on="1"/>
        <pt x="629" y="196" on="1"/>
        <pt x="643" y="187" on="0"/>
        <pt x="644" y="186" on="1"/>
        <pt x="642" y="177" on="0"/>
        <pt x="640" y="165" on="1"/>
        <pt x="620" y="66" on="0"/>
        <pt x="595" y="24" on="1"/>
        <pt x="564" y="-26" on="0"/>
        <pt x="476" y="-26" on="1"/>
        <pt x="458" y="-26" on="0"/>
        <pt x="436" y="-24" on="1"/>
        <pt x="355" y="-13" on="0"/>
        <pt x="228" y="39" on="1"/>
        <pt x="219" y="42" on="0"/>
        <pt x="188" y="56" on="0"/>
        <pt x="170" y="63" on="0"/>
        <pt x="144" y="69" on="0"/>
        <pt x="133" y="69" on="1"/>
        <pt x="124" y="69" on="0"/>
        <pt x="116" y="65" on="1"/>
        <pt x="94" y="54" on="0"/>
        <pt x="57" y="-7" on="1"/>
        <pt x="49" y="-20" on="1"/>
        <pt x="45" y="-16" on="1"/>
        <pt x="41" y="-11" on="0"/>
        <pt x="33" y="-1" on="0"/>
        <pt x="33" y="0" on="1"/>
        <pt x="33" y="4" on="0"/>
        <pt x="57" y="54" on="1"/>
        <pt x="75" y="90" on="0"/>
        <pt x="92" y="114" on="1"/>
        <pt x="106" y="133" on="0"/>
        <pt x="111" y="134" on="1"/>
        <pt x="228" y="153" on="0"/>
        <pt x="247" y="208" on="1"/>
        <pt x="251" y="219" on="0"/>
        <pt x="251" y="231" on="1"/>
        <pt x="251" y="254" on="0"/>
        <pt x="212" y="328" on="1"/>
        <pt x="160" y="425" on="0"/>
        <pt x="160" y="468" on="1"/>
        <pt x="160" y="529" on="0"/>
        <pt x="238" y="605" on="1"/>
        <pt x="313" y="677" on="0"/>
        <pt x="425" y="685" on="1"/>
        <pt x="432" y="686" on="1"/>
        <pt x="440" y="686" on="0"/>
        <pt x="445" y="686" on="1"/>
        <pt x="510" y="686" on="0"/>
        <pt x="571" y="637" on="0"/>
        <pt x="571" y="576" on="1"/>
        <pt x="571" y="539" on="0"/>
        <pt x="564" y="488" on="1"/>
        <pt x="564" y="480" on="1"/>
        <pt x="564" y="468" on="0"/>
        <pt x="577" y="455" on="0"/>
        <pt x="590" y="453" on="0"/>
        <pt x="608" y="452" on="1"/>
        <pt x="623" y="452" on="1"/>
        <pt x="623" y="431" on="1"/>
        <pt x="619" y="430" on="1"/>
        <pt x="618" y="430" on="0"/>
        <pt x="604" y="426" on="0"/>
        <pt x="578" y="420" on="0"/>
        <pt x="566" y="417" on="1"/>
        <pt x="516" y="404" on="1"/>
        <pt x="497" y="415" on="0"/>
        <pt x="486" y="422" on="0"/>
        <pt x="475" y="444" on="0"/>
      </contour>
    </TTGlyph>
    <TTGlyph name="M" xMin="27" yMin="-27" xMax="1048" yMax="692">
      <contour>
        <pt x="37" y="-16" on="1"/>
        <pt x="35" y="-14" on="0"/>
        <pt x="29" y="-2" on="0"/>
        <pt x="27" y="0" on="1"/>
        <pt x="33" y="10" on="1"/>
        <pt x="57" y="47" on="0"/>
        <pt x="83" y="72" on="1"/>
        <pt x="110" y="99" on="0"/>
        <pt x="133" y="105" on="1"/>
        <pt x="136" y="106" on="0"/>
        <pt x="143" y="106" on="1"/>
        <pt x="178" y="106" on="0"/>
        <pt x="225" y="62" on="1"/>
        <pt x="235" y="53" on="1"/>
        <pt x="283" y="83" on="0"/>
        <pt x="307" y="117" on="1"/>
        <pt x="352" y="187" on="0"/>
        <pt x="352" y="359" on="1"/>
        <pt x="352" y="514" on="0"/>
        <pt x="284" y="584" on="1"/>
        <pt x="245" y="621" on="0"/>
        <pt x="183" y="621" on="1"/>
        <pt x="146" y="621" on="0"/>
        <pt x="120" y="598" on="1"/>
        <pt x="97" y="574" on="0"/>
        <pt x="96" y="556" on="1"/>
        <pt x="96" y="542" on="0"/>
        <pt x="104" y="525" on="1"/>
        <pt x="117" y="500" on="0"/>
        <pt x="152" y="458" on="1"/>
        <pt x="177" y="428" on="0"/>
        <pt x="189" y="397" on="1"/>
        <pt x="191" y="390" on="0"/>
        <pt x="191" y="377" on="1"/>
        <pt x="191" y="358" on="0"/>
        <pt x="184" y="344" on="1"/>
        <pt x="165" y="306" on="0"/>
        <pt x="111" y="268" on="1"/>
        <pt x="76" y="245" on="0"/>
        <pt x="70" y="245" on="1"/>
        <pt x="69" y="245" on="0"/>
        <pt x="49" y="259" on="0"/>
        <pt x="49" y="260" on="1"/>
        <pt x="53" y="263" on="0"/>
        <pt x="59" y="266" on="1"/>
        <pt x="107" y="292" on="0"/>
        <pt x="117" y="329" on="1"/>
        <pt x="118" y="332" on="0"/>
        <pt x="118" y="338" on="1"/>
        <pt x="118" y="358" on="0"/>
        <pt x="81" y="403" on="1"/>
        <pt x="47" y="448" on="0"/>
        <pt x="34" y="473" on="1"/>
        <pt x="27" y="489" on="0"/>
        <pt x="27" y="506" on="1"/>
        <pt x="30" y="556" on="0"/>
        <pt x="83" y="609" on="1"/>
        <pt x="148" y="676" on="0"/>
        <pt x="235" y="685" on="1"/>
        <pt x="242" y="686" on="0"/>
        <pt x="255" y="686" on="1"/>
        <pt x="320" y="686" on="0"/>
        <pt x="371" y="644" on="1"/>
        <pt x="403" y="616" on="0"/>
        <pt x="417" y="579" on="1"/>
        <pt x="421" y="571" on="1"/>
        <pt x="430" y="580" on="1"/>
        <pt x="479" y="640" on="0"/>
        <pt x="557" y="657" on="1"/>
        <pt x="564" y="659" on="0"/>
        <pt x="588" y="659" on="1"/>
        <pt x="631" y="659" on="0"/>
        <pt x="650" y="637" on="1"/>
        <pt x="671" y="616" on="0"/>
        <pt x="683" y="585" on="1"/>
        <pt x="687" y="578" on="1"/>
        <pt x="688" y="582" on="0"/>
        <pt x="714" y="608" on="1"/>
        <pt x="727" y="620" on="0"/>
        <pt x="762" y="645" on="1"/>
        <pt x="819" y="684" on="0"/>
        <pt x="859" y="690" on="1"/>
        <pt x="871" y="692" on="0"/>
        <pt x="877" y="692" on="1"/>
        <pt x="904" y="692" on="0"/>
        <pt x="923" y="673" on="1"/>
        <pt x="937" y="659" on="0"/>
        <pt x="954" y="610" on="1"/>
        <pt x="963" y="581" on="0"/>
        <pt x="973" y="570" on="1"/>
        <pt x="983" y="561" on="0"/>
        <pt x="1000" y="560" on="1"/>
        <pt x="1023" y="560" on="0"/>
        <pt x="1048" y="569" on="1"/>
        <pt x="1048" y="553" on="1"/>
        <pt x="1034" y="546" on="1"/>
        <pt x="985" y="519" on="0"/>
        <pt x="947" y="483" on="1"/>
        <pt x="936" y="472" on="0"/>
        <pt x="933" y="466" on="1"/>
        <pt x="905" y="402" on="0"/>
        <pt x="905" y="264" on="1"/>
        <pt x="905" y="192" on="0"/>
        <pt x="916" y="128" on="0"/>
        <pt x="940" y="91" on="1"/>
        <pt x="951" y="74" on="0"/>
        <pt x="959" y="74" on="1"/>
        <pt x="970" y="74" on="0"/>
        <pt x="1014" y="94" on="1"/>
        <pt x="1017" y="95" on="0"/>
        <pt x="1023" y="98" on="0"/>
        <pt x="1025" y="99" on="1"/>
        <pt x="1027" y="100" on="1"/>
        <pt x="1027" y="79" on="1"/>
        <pt x="956" y="27" on="1"/>
        <pt x="940" y="15" on="0"/>
        <pt x="903" y="-12" on="0"/>
        <pt x="894" y="-19" on="1"/>
        <pt x="885" y="-26" on="1"/>
        <pt x="883" y="-26" on="0"/>
        <pt x="854" y="27" on="1"/>
        <pt x="825" y="80" on="1"/>
        <pt x="825" y="192" on="1"/>
        <pt x="826" y="314" on="0"/>
        <pt x="830" y="341" on="1"/>
        <pt x="831" y="345" on="0"/>
        <pt x="833" y="356" on="1"/>
        <pt x="840" y="398" on="0"/>
        <pt x="844" y="404" on="1"/>
        <pt x="874" y="446" on="0"/>
        <pt x="920" y="489" on="1"/>
        <pt x="919" y="490" on="0"/>
        <pt x="917" y="491" on="1"/>
        <pt x="903" y="498" on="0"/>
        <pt x="898" y="508" on="1"/>
        <pt x="893" y="517" on="0"/>
        <pt x="880" y="554" on="1"/>
        <pt x="861" y="608" on="0"/>
        <pt x="852" y="616" on="1"/>
        <pt x="840" y="628" on="0"/>
        <pt x="818" y="628" on="1"/>
        <pt x="788" y="628" on="0"/>
        <pt x="758" y="608" on="1"/>
        <pt x="725" y="582" on="0"/>
        <pt x="702" y="541" on="1"/>
        <pt x="697" y="532" on="1"/>
        <pt x="700" y="515" on="1"/>
        <pt x="708" y="467" on="0"/>
        <pt x="708" y="419" on="1"/>
        <pt x="705" y="304" on="0"/>
        <pt x="667" y="188" on="1"/>
        <pt x="649" y="136" on="0"/>
        <pt x="643" y="126" on="1"/>
        <pt x="634" y="116" on="1"/>
        <pt x="626" y="105" on="0"/>
        <pt x="595" y="68" on="0"/>
        <pt x="581" y="51" on="1"/>
        <pt x="522" y="-22" on="1"/>
        <pt x="514" y="-15" on="1"/>
        <pt x="483" y="11" on="0"/>
        <pt x="466" y="18" on="1"/>
        <pt x="454" y="24" on="0"/>
        <pt x="439" y="18" on="1"/>
        <pt x="419" y="9" on="0"/>
        <pt x="394" y="-16" on="1"/>
        <pt x="390" y="-9" on="0"/>
        <pt x="384" y="5" on="1"/>
        <pt x="388" y="14" on="0"/>
        <pt x="426" y="60" on="1"/>
        <pt x="456" y="94" on="0"/>
        <pt x="471" y="102" on="1"/>
        <pt x="480" y="105" on="0"/>
        <pt x="497" y="103" on="1"/>
        <pt x="514" y="99" on="0"/>
        <pt x="541" y="81" on="1"/>
        <pt x="559" y="69" on="1"/>
        <pt x="594" y="96" on="0"/>
        <pt x="618" y="239" on="0"/>
        <pt x="618" y="350" on="1"/>
        <pt x="618" y="489" on="0"/>
        <pt x="598" y="544" on="1"/>
        <pt x="579" y="601" on="0"/>
        <pt x="517" y="601" on="1"/>
        <pt x="498" y="601" on="0"/>
        <pt x="481" y="589" on="1"/>
        <pt x="453" y="571" on="0"/>
        <pt x="437" y="537" on="1"/>
        <pt x="431" y="525" on="0"/>
        <pt x="432" y="522" on="1"/>
        <pt x="436" y="498" on="0"/>
        <pt x="436" y="443" on="1"/>
        <pt x="436" y="251" on="0"/>
        <pt x="369" y="133" on="1"/>
        <pt x="363" y="122" on="1"/>
        <pt x="280" y="50" on="1"/>
        <pt x="198" y="-24" on="0"/>
        <pt x="192" y="-27" on="1"/>
        <pt x="182" y="-18" on="1"/>
        <pt x="142" y="20" on="0"/>
        <pt x="116" y="25" on="1"/>
        <pt x="113" y="26" on="0"/>
        <pt x="106" y="26" on="1"/>
        <pt x="100" y="26" on="0"/>
        <pt x="88" y="24" on="0"/>
        <pt x="76" y="17" on="0"/>
        <pt x="68" y="13" on="0"/>
        <pt x="55" y="2" on="0"/>
        <pt x="51" y="-1" on="0"/>
        <pt x="38" y="-15" on="0"/>
      </contour>
    </TTGlyph>
    <TTGlyph name="N" xMin="27" yMin="-25" xMax="825" yMax="686">
      <contour>
        <pt x="627" y="107" on="1"/>
        <pt x="627" y="132" on="0"/>
        <pt x="624" y="251" on="0"/>
        <pt x="624" y="285" on="1"/>
        <pt x="624" y="381" on="0"/>
        <pt x="632" y="398" on="1"/>
        <pt x="638" y="408" on="0"/>
        <pt x="688" y="469" on="0"/>
        <pt x="705" y="486" on="1"/>
        <pt x="707" y="489" on="1"/>
        <pt x="696" y="489" on="1"/>
        <pt x="680" y="490" on="0"/>
        <pt x="675" y="495" on="1"/>
        <pt x="666" y="505" on="0"/>
        <pt x="653" y="551" on="1"/>
        <pt x="636" y="608" on="0"/>
        <pt x="609" y="622" on="1"/>
        <pt x="598" y="628" on="0"/>
        <pt x="584" y="628" on="1"/>
        <pt x="549" y="628" on="0"/>
        <pt x="513" y="598" on="1"/>
        <pt x="478" y="567" on="0"/>
        <pt x="445" y="497" on="1"/>
        <pt x="436" y="478" on="0"/>
        <pt x="437" y="475" on="1"/>
        <pt x="446" y="437" on="0"/>
        <pt x="446" y="348" on="1"/>
        <pt x="446" y="203" on="0"/>
        <pt x="405" y="124" on="1"/>
        <pt x="396" y="105" on="0"/>
        <pt x="387" y="94" on="0"/>
        <pt x="368" y="78" on="1"/>
        <pt x="260" y="-12" on="0"/>
        <pt x="230" y="-20" on="1"/>
        <pt x="220" y="-22" on="0"/>
        <pt x="214" y="-22" on="1"/>
        <pt x="186" y="-22" on="0"/>
        <pt x="159" y="-4" on="1"/>
        <pt x="154" y="-2" on="0"/>
        <pt x="129" y="22" on="0"/>
        <pt x="129" y="25" on="1"/>
        <pt x="188" y="105" on="0"/>
        <pt x="192" y="105" on="1"/>
        <pt x="192" y="103" on="0"/>
        <pt x="195" y="97" on="1"/>
        <pt x="213" y="42" on="0"/>
        <pt x="261" y="42" on="1"/>
        <pt x="279" y="42" on="0"/>
        <pt x="298" y="53" on="1"/>
        <pt x="337" y="77" on="0"/>
        <pt x="368" y="153" on="0"/>
        <pt x="372" y="228" on="1"/>
        <pt x="372" y="232" on="0"/>
        <pt x="373" y="259" on="0"/>
        <pt x="373" y="268" on="1"/>
        <pt x="373" y="476" on="0"/>
        <pt x="295" y="572" on="1"/>
        <pt x="268" y="604" on="0"/>
        <pt x="235" y="618" on="1"/>
        <pt x="215" y="628" on="0"/>
        <pt x="191" y="628" on="1"/>
        <pt x="176" y="628" on="0"/>
        <pt x="161" y="623" on="1"/>
        <pt x="136" y="616" on="0"/>
        <pt x="97" y="574" on="0"/>
        <pt x="97" y="548" on="1"/>
        <pt x="97" y="537" on="0"/>
        <pt x="100" y="529" on="1"/>
        <pt x="109" y="504" on="0"/>
        <pt x="144" y="462" on="1"/>
        <pt x="192" y="405" on="0"/>
        <pt x="192" y="381" on="1"/>
        <pt x="192" y="377" on="0"/>
        <pt x="190" y="367" on="1"/>
        <pt x="184" y="339" on="0"/>
        <pt x="139" y="292" on="0"/>
        <pt x="86" y="260" on="1"/>
        <pt x="70" y="250" on="1"/>
        <pt x="54" y="266" on="1"/>
        <pt x="63" y="272" on="1"/>
        <pt x="112" y="301" on="0"/>
        <pt x="112" y="334" on="1"/>
        <pt x="112" y="358" on="0"/>
        <pt x="73" y="406" on="1"/>
        <pt x="52" y="432" on="0"/>
        <pt x="37" y="458" on="1"/>
        <pt x="27" y="479" on="0"/>
        <pt x="27" y="497" on="1"/>
        <pt x="27" y="511" on="0"/>
        <pt x="33" y="529" on="1"/>
        <pt x="52" y="583" on="0"/>
        <pt x="157" y="677" on="0"/>
        <pt x="218" y="684" on="1"/>
        <pt x="222" y="685" on="0"/>
        <pt x="229" y="685" on="1"/>
        <pt x="230" y="685" on="0"/>
        <pt x="242" y="686" on="0"/>
        <pt x="246" y="686" on="1"/>
        <pt x="304" y="686" on="0"/>
        <pt x="349" y="654" on="1"/>
        <pt x="395" y="620" on="0"/>
        <pt x="420" y="553" on="1"/>
        <pt x="421" y="551" on="0"/>
        <pt x="423" y="546" on="0"/>
        <pt x="424" y="543" on="0"/>
        <pt x="425" y="540" on="0"/>
        <pt x="426" y="539" on="1"/>
        <pt x="426" y="538" on="1"/>
        <pt x="488" y="622" on="0"/>
        <pt x="489" y="623" on="1"/>
        <pt x="529" y="668" on="0"/>
        <pt x="587" y="682" on="1"/>
        <pt x="606" y="686" on="0"/>
        <pt x="633" y="686" on="1"/>
        <pt x="660" y="685" on="0"/>
        <pt x="678" y="678" on="1"/>
        <pt x="697" y="672" on="0"/>
        <pt x="717" y="645" on="0"/>
        <pt x="730" y="609" on="1"/>
        <pt x="743" y="571" on="0"/>
        <pt x="750" y="565" on="1"/>
        <pt x="764" y="553" on="0"/>
        <pt x="779" y="553" on="1"/>
        <pt x="792" y="553" on="0"/>
        <pt x="817" y="562" on="1"/>
        <pt x="819" y="557" on="0"/>
        <pt x="819" y="555" on="1"/>
        <pt x="819" y="547" on="1"/>
        <pt x="790" y="526" on="1"/>
        <pt x="743" y="492" on="0"/>
        <pt x="716" y="465" on="0"/>
        <pt x="712" y="447" on="1"/>
        <pt x="697" y="369" on="0"/>
        <pt x="697" y="281" on="1"/>
        <pt x="697" y="166" on="0"/>
        <pt x="726" y="108" on="1"/>
        <pt x="741" y="76" on="0"/>
        <pt x="755" y="68" on="1"/>
        <pt x="762" y="65" on="0"/>
        <pt x="777" y="67" on="1"/>
        <pt x="795" y="70" on="0"/>
        <pt x="825" y="93" on="1"/>
        <pt x="825" y="82" on="1"/>
        <pt x="825" y="71" on="0"/>
        <pt x="822" y="70" on="1"/>
        <pt x="821" y="67" on="0"/>
        <pt x="709" y="-13" on="0"/>
        <pt x="701" y="-18" on="1"/>
        <pt x="692" y="-25" on="1"/>
        <pt x="668" y="15" on="1"/>
        <pt x="662" y="25" on="0"/>
        <pt x="638" y="65" on="0"/>
        <pt x="635" y="70" on="1"/>
        <pt x="627" y="85" on="1"/>
      </contour>
    </TTGlyph>
    <TTGlyph name="O" xMin="12" yMin="-27" xMax="744" yMax="729">
      <contour>
        <pt x="428" y="596" on="1"/>
        <pt x="417" y="596" on="0"/>
        <pt x="359" y="593" on="0"/>
        <pt x="350" y="593" on="1"/>
        <pt x="290" y="593" on="0"/>
        <pt x="270" y="625" on="1"/>
        <pt x="265" y="637" on="0"/>
        <pt x="268" y="650" on="1"/>
        <pt x="273" y="670" on="0"/>
        <pt x="301" y="695" on="1"/>
        <pt x="332" y="723" on="0"/>
        <pt x="336" y="729" on="1"/>
        <pt x="343" y="729" on="1"/>
        <pt x="351" y="729" on="0"/>
        <pt x="351" y="728" on="1"/>
        <pt x="342" y="710" on="0"/>
        <pt x="342" y="703" on="1"/>
        <pt x="342" y="698" on="0"/>
        <pt x="347" y="691" on="1"/>
        <pt x="356" y="681" on="0"/>
        <pt x="405" y="671" on="0"/>
        <pt x="482" y="664" on="1"/>
        <pt x="558" y="658" on="0"/>
        <pt x="604" y="643" on="1"/>
        <pt x="676" y="617" on="0"/>
        <pt x="744" y="495" on="0"/>
        <pt x="744" y="392" on="1"/>
        <pt x="744" y="261" on="0"/>
        <pt x="702" y="177" on="1"/>
        <pt x="688" y="147" on="0"/>
        <pt x="654" y="108" on="0"/>
        <pt x="615" y="78" on="1"/>
        <pt x="512" y="-5" on="0"/>
        <pt x="428" y="-23" on="1"/>
        <pt x="405" y="-27" on="0"/>
        <pt x="377" y="-27" on="1"/>
        <pt x="300" y="-24" on="0"/>
        <pt x="212" y="12" on="1"/>
        <pt x="176" y="28" on="0"/>
        <pt x="149" y="34" on="1"/>
        <pt x="140" y="36" on="0"/>
        <pt x="104" y="36" on="0"/>
        <pt x="96" y="34" on="1"/>
        <pt x="56" y="23" on="0"/>
        <pt x="29" y="-13" on="1"/>
        <pt x="27" y="-15" on="1"/>
        <pt x="12" y="0" on="1"/>
        <pt x="12" y="1" on="0"/>
        <pt x="46" y="45" on="1"/>
        <pt x="63" y="66" on="0"/>
        <pt x="88" y="92" on="1"/>
        <pt x="103" y="107" on="0"/>
        <pt x="109" y="109" on="1"/>
        <pt x="144" y="123" on="0"/>
        <pt x="187" y="175" on="0"/>
        <pt x="187" y="207" on="1"/>
        <pt x="187" y="226" on="0"/>
        <pt x="174" y="255" on="1"/>
        <pt x="160" y="281" on="0"/>
        <pt x="130" y="323" on="1"/>
        <pt x="96" y="371" on="0"/>
        <pt x="80" y="399" on="0"/>
        <pt x="80" y="412" on="1"/>
        <pt x="80" y="452" on="0"/>
        <pt x="110" y="496" on="1"/>
        <pt x="140" y="541" on="0"/>
        <pt x="197" y="580" on="1"/>
        <pt x="213" y="590" on="1"/>
        <pt x="216" y="590" on="0"/>
        <pt x="224" y="585" on="1"/>
        <pt x="234" y="580" on="1"/>
        <pt x="230" y="576" on="0"/>
        <pt x="204" y="554" on="0"/>
        <pt x="199" y="549" on="1"/>
        <pt x="165" y="513" on="0"/>
        <pt x="165" y="484" on="1"/>
        <pt x="165" y="456" on="0"/>
        <pt x="188" y="411" on="1"/>
        <pt x="203" y="383" on="0"/>
        <pt x="227" y="345" on="1"/>
        <pt x="250" y="303" on="0"/>
        <pt x="255" y="290" on="1"/>
        <pt x="261" y="274" on="0"/>
        <pt x="261" y="259" on="1"/>
        <pt x="261" y="250" on="0"/>
        <pt x="258" y="238" on="1"/>
        <pt x="245" y="185" on="0"/>
        <pt x="179" y="124" on="1"/>
        <pt x="167" y="114" on="0"/>
        <pt x="167" y="112" on="1"/>
        <pt x="170" y="111" on="0"/>
        <pt x="174" y="111" on="1"/>
        <pt x="184" y="110" on="0"/>
        <pt x="260" y="82" on="1"/>
        <pt x="336" y="52" on="0"/>
        <pt x="383" y="44" on="1"/>
        <pt x="423" y="37" on="0"/>
        <pt x="453" y="37" on="1"/>
        <pt x="513" y="37" on="0"/>
        <pt x="605" y="102" on="0"/>
        <pt x="626" y="152" on="1"/>
        <pt x="655" y="219" on="0"/>
        <pt x="655" y="328" on="1"/>
        <pt x="655" y="407" on="0"/>
        <pt x="615" y="532" on="0"/>
        <pt x="578" y="559" on="1"/>
        <pt x="531" y="596" on="0"/>
      </contour>
    </TTGlyph>
    <TTGlyph name="P" xMin="28" yMin="-218" xMax="804" yMax="692">
      <contour>
        <pt x="282" y="154" on="1"/>
        <pt x="307" y="154" on="0"/>
        <pt x="331" y="146" on="1"/>
        <pt x="331" y="287" on="1"/>
        <pt x="331" y="444" on="0"/>
        <pt x="327" y="469" on="1"/>
        <pt x="321" y="522" on="0"/>
        <pt x="301" y="560" on="1"/>
        <pt x="283" y="592" on="0"/>
        <pt x="219" y="633" on="0"/>
        <pt x="184" y="633" on="1"/>
        <pt x="151" y="633" on="0"/>
        <pt x="98" y="591" on="0"/>
        <pt x="93" y="562" on="1"/>
        <pt x="89" y="549" on="0"/>
        <pt x="94" y="534" on="1"/>
        <pt x="100" y="517" on="0"/>
        <pt x="142" y="462" on="1"/>
        <pt x="178" y="417" on="0"/>
        <pt x="185" y="396" on="1"/>
        <pt x="186" y="393" on="0"/>
        <pt x="186" y="386" on="1"/>
        <pt x="186" y="358" on="0"/>
        <pt x="145" y="299" on="0"/>
        <pt x="119" y="281" on="1"/>
        <pt x="98" y="263" on="0"/>
        <pt x="70" y="250" on="1"/>
        <pt x="56" y="256" on="0"/>
        <pt x="49" y="260" on="1"/>
        <pt x="51" y="262" on="1"/>
        <pt x="65" y="272" on="0"/>
        <pt x="83" y="288" on="1"/>
        <pt x="112" y="319" on="0"/>
        <pt x="112" y="339" on="1"/>
        <pt x="112" y="344" on="0"/>
        <pt x="110" y="350" on="1"/>
        <pt x="105" y="364" on="0"/>
        <pt x="69" y="411" on="1"/>
        <pt x="42" y="444" on="0"/>
        <pt x="30" y="476" on="1"/>
        <pt x="28" y="483" on="0"/>
        <pt x="28" y="497" on="1"/>
        <pt x="28" y="519" on="0"/>
        <pt x="34" y="537" on="1"/>
        <pt x="46" y="573" on="0"/>
        <pt x="113" y="648" on="0"/>
        <pt x="153" y="669" on="1"/>
        <pt x="197" y="692" on="0"/>
        <pt x="242" y="692" on="1"/>
        <pt x="314" y="692" on="0"/>
        <pt x="353" y="653" on="1"/>
        <pt x="388" y="618" on="0"/>
        <pt x="401" y="563" on="1"/>
        <pt x="405" y="550" on="1"/>
        <pt x="410" y="555" on="0"/>
        <pt x="416" y="562" on="1"/>
        <pt x="454" y="610" on="0"/>
        <pt x="580" y="692" on="0"/>
        <pt x="637" y="692" on="1"/>
        <pt x="667" y="692" on="0"/>
        <pt x="687" y="676" on="1"/>
        <pt x="709" y="658" on="0"/>
        <pt x="718" y="584" on="1"/>
        <pt x="722" y="557" on="0"/>
        <pt x="730" y="540" on="0"/>
        <pt x="741" y="535" on="1"/>
        <pt x="751" y="530" on="0"/>
        <pt x="768" y="530" on="1"/>
        <pt x="790" y="533" on="0"/>
        <pt x="797" y="536" on="1"/>
        <pt x="798" y="537" on="0"/>
        <pt x="799" y="535" on="0"/>
        <pt x="801" y="530" on="0"/>
        <pt x="802" y="527" on="0"/>
        <pt x="803" y="524" on="1"/>
        <pt x="804" y="521" on="1"/>
        <pt x="758" y="496" on="0"/>
        <pt x="738" y="480" on="1"/>
        <pt x="697" y="447" on="0"/>
        <pt x="680" y="414" on="1"/>
        <pt x="677" y="407" on="0"/>
        <pt x="677" y="396" on="1"/>
        <pt x="677" y="378" on="0"/>
        <pt x="688" y="355" on="1"/>
        <pt x="698" y="336" on="0"/>
        <pt x="716" y="308" on="1"/>
        <pt x="739" y="273" on="0"/>
        <pt x="747" y="239" on="1"/>
        <pt x="750" y="227" on="0"/>
        <pt x="750" y="210" on="1"/>
        <pt x="750" y="199" on="0"/>
        <pt x="749" y="194" on="1"/>
        <pt x="740" y="97" on="0"/>
        <pt x="659" y="32" on="1"/>
        <pt x="605" y="-11" on="0"/>
        <pt x="560" y="-11" on="1"/>
        <pt x="553" y="-11" on="0"/>
        <pt x="541" y="-10" on="0"/>
        <pt x="527" y="-6" on="0"/>
        <pt x="517" y="-2" on="0"/>
        <pt x="491" y="8" on="0"/>
        <pt x="482" y="11" on="1"/>
        <pt x="468" y="16" on="0"/>
        <pt x="431" y="29" on="0"/>
        <pt x="420" y="33" on="1"/>
        <pt x="410" y="37" on="1"/>
        <pt x="410" y="31" on="1"/>
        <pt x="410" y="-61" on="0"/>
        <pt x="419" y="-138" on="1"/>
        <pt x="420" y="-146" on="0"/>
        <pt x="420" y="-150" on="1"/>
        <pt x="419" y="-150" on="0"/>
        <pt x="327" y="-218" on="0"/>
        <pt x="326" y="-218" on="1"/>
        <pt x="305" y="-208" on="1"/>
        <pt x="305" y="-207" on="0"/>
        <pt x="307" y="-199" on="1"/>
        <pt x="316" y="-170" on="0"/>
        <pt x="325" y="-85" on="1"/>
        <pt x="331" y="-28" on="0"/>
        <pt x="331" y="43" on="1"/>
        <pt x="331" y="63" on="1"/>
        <pt x="318" y="66" on="1"/>
        <pt x="270" y="80" on="0"/>
        <pt x="250" y="80" on="1"/>
        <pt x="233" y="80" on="0"/>
        <pt x="213" y="70" on="1"/>
        <pt x="183" y="57" on="0"/>
        <pt x="138" y="-3" on="1"/>
        <pt x="128" y="-16" on="1"/>
        <pt x="124" y="-9" on="0"/>
        <pt x="118" y="5" on="1"/>
        <pt x="125" y="20" on="1"/>
        <pt x="175" y="118" on="0"/>
        <pt x="234" y="144" on="1"/>
        <pt x="259" y="154" on="0"/>
      </contour>
      <contour>
        <pt x="610" y="64" on="1"/>
        <pt x="646" y="64" on="0"/>
        <pt x="697" y="110" on="0"/>
        <pt x="697" y="144" on="1"/>
        <pt x="697" y="151" on="0"/>
        <pt x="696" y="155" on="1"/>
        <pt x="689" y="193" on="0"/>
        <pt x="651" y="248" on="1"/>
        <pt x="611" y="304" on="0"/>
        <pt x="604" y="329" on="1"/>
        <pt x="602" y="341" on="0"/>
        <pt x="602" y="345" on="1"/>
        <pt x="602" y="358" on="0"/>
        <pt x="611" y="377" on="1"/>
        <pt x="625" y="408" on="0"/>
        <pt x="671" y="449" on="1"/>
        <pt x="679" y="455" on="0"/>
        <pt x="686" y="462" on="1"/>
        <pt x="659" y="474" on="0"/>
        <pt x="646" y="494" on="1"/>
        <pt x="637" y="507" on="0"/>
        <pt x="634" y="553" on="1"/>
        <pt x="631" y="595" on="0"/>
        <pt x="617" y="622" on="0"/>
        <pt x="593" y="631" on="1"/>
        <pt x="587" y="632" on="0"/>
        <pt x="567" y="632" on="1"/>
        <pt x="558" y="632" on="1"/>
        <pt x="522" y="626" on="0"/>
        <pt x="478" y="583" on="1"/>
        <pt x="443" y="546" on="0"/>
        <pt x="416" y="497" on="1"/>
        <pt x="410" y="484" on="1"/>
        <pt x="410" y="122" on="1"/>
        <pt x="467" y="103" on="1"/>
        <pt x="574" y="68" on="0"/>
        <pt x="597" y="65" on="1"/>
        <pt x="599" y="65" on="0"/>
        <pt x="608" y="64" on="0"/>
      </contour>
    </TTGlyph>
    <TTGlyph name="Q" xMin="11" yMin="-69" xMax="782" yMax="729">
      <contour>
        <pt x="428" y="596" on="1"/>
        <pt x="417" y="596" on="0"/>
        <pt x="359" y="593" on="0"/>
        <pt x="350" y="593" on="1"/>
        <pt x="290" y="593" on="0"/>
        <pt x="270" y="625" on="1"/>
        <pt x="268" y="630" on="0"/>
        <pt x="268" y="646" on="0"/>
        <pt x="271" y="652" on="1"/>
        <pt x="274" y="656" on="0"/>
        <pt x="295" y="682" on="0"/>
        <pt x="321" y="712" on="0"/>
        <pt x="326" y="718" on="1"/>
        <pt x="336" y="729" on="1"/>
        <pt x="343" y="729" on="1"/>
        <pt x="351" y="729" on="0"/>
        <pt x="351" y="728" on="1"/>
        <pt x="342" y="710" on="0"/>
        <pt x="342" y="703" on="1"/>
        <pt x="342" y="698" on="0"/>
        <pt x="347" y="691" on="1"/>
        <pt x="356" y="681" on="0"/>
        <pt x="405" y="671" on="0"/>
        <pt x="482" y="664" on="1"/>
        <pt x="558" y="658" on="0"/>
        <pt x="604" y="643" on="1"/>
        <pt x="744" y="591" on="0"/>
        <pt x="744" y="398" on="1"/>
        <pt x="744" y="364" on="0"/>
        <pt x="743" y="356" on="1"/>
        <pt x="731" y="242" on="0"/>
        <pt x="675" y="145" on="1"/>
        <pt x="657" y="114" on="0"/>
        <pt x="646" y="104" on="1"/>
        <pt x="638" y="97" on="0"/>
        <pt x="603" y="68" on="1"/>
        <pt x="622" y="45" on="0"/>
        <pt x="673" y="4" on="0"/>
        <pt x="691" y="-3" on="1"/>
        <pt x="697" y="-5" on="0"/>
        <pt x="710" y="-5" on="1"/>
        <pt x="741" y="-5" on="0"/>
        <pt x="774" y="16" on="1"/>
        <pt x="781" y="20" on="1"/>
        <pt x="782" y="20" on="0"/>
        <pt x="782" y="7" on="1"/>
        <pt x="782" y="-6" on="1"/>
        <pt x="771" y="-13" on="1"/>
        <pt x="722" y="-41" on="0"/>
        <pt x="670" y="-67" on="1"/>
        <pt x="666" y="-69" on="0"/>
        <pt x="665" y="-69" on="1"/>
        <pt x="647" y="-63" on="1"/>
        <pt x="564" y="-34" on="0"/>
        <pt x="523" y="1" on="1"/>
        <pt x="513" y="9" on="0"/>
        <pt x="512" y="9" on="1"/>
        <pt x="510" y="9" on="0"/>
        <pt x="499" y="3" on="1"/>
        <pt x="461" y="-15" on="0"/>
        <pt x="428" y="-23" on="1"/>
        <pt x="405" y="-27" on="0"/>
        <pt x="377" y="-27" on="1"/>
        <pt x="300" y="-24" on="0"/>
        <pt x="215" y="11" on="1"/>
        <pt x="186" y="23" on="0"/>
        <pt x="165" y="31" on="0"/>
        <pt x="140" y="36" on="0"/>
        <pt x="124" y="36" on="1"/>
        <pt x="66" y="36" on="0"/>
        <pt x="33" y="-9" on="1"/>
        <pt x="27" y="-16" on="1"/>
        <pt x="23" y="-13" on="0"/>
        <pt x="19" y="-8" on="1"/>
        <pt x="11" y="0" on="1"/>
        <pt x="27" y="20" on="1"/>
        <pt x="54" y="55" on="0"/>
        <pt x="89" y="93" on="1"/>
        <pt x="103" y="107" on="0"/>
        <pt x="109" y="109" on="1"/>
        <pt x="144" y="123" on="0"/>
        <pt x="187" y="175" on="0"/>
        <pt x="187" y="207" on="1"/>
        <pt x="187" y="226" on="0"/>
        <pt x="174" y="255" on="1"/>
        <pt x="160" y="281" on="0"/>
        <pt x="130" y="323" on="1"/>
        <pt x="96" y="371" on="0"/>
        <pt x="80" y="399" on="0"/>
        <pt x="80" y="412" on="1"/>
        <pt x="80" y="452" on="0"/>
        <pt x="110" y="496" on="1"/>
        <pt x="140" y="541" on="0"/>
        <pt x="197" y="580" on="1"/>
        <pt x="213" y="590" on="1"/>
        <pt x="216" y="590" on="0"/>
        <pt x="224" y="585" on="1"/>
        <pt x="234" y="580" on="1"/>
        <pt x="230" y="576" on="0"/>
        <pt x="204" y="554" on="0"/>
        <pt x="199" y="549" on="1"/>
        <pt x="165" y="513" on="0"/>
        <pt x="165" y="484" on="1"/>
        <pt x="165" y="456" on="0"/>
        <pt x="188" y="411" on="1"/>
        <pt x="203" y="383" on="0"/>
        <pt x="227" y="345" on="1"/>
        <pt x="250" y="303" on="0"/>
        <pt x="255" y="290" on="1"/>
        <pt x="261" y="274" on="0"/>
        <pt x="261" y="259" on="1"/>
        <pt x="261" y="250" on="0"/>
        <pt x="258" y="238" on="1"/>
        <pt x="245" y="185" on="0"/>
        <pt x="179" y="124" on="1"/>
        <pt x="167" y="114" on="0"/>
        <pt x="167" y="112" on="1"/>
        <pt x="170" y="111" on="0"/>
        <pt x="174" y="111" on="1"/>
        <pt x="184" y="110" on="0"/>
        <pt x="260" y="82" on="1"/>
        <pt x="336" y="52" on="0"/>
        <pt x="383" y="44" on="1"/>
        <pt x="423" y="37" on="0"/>
        <pt x="453" y="37" on="1"/>
        <pt x="513" y="37" on="0"/>
        <pt x="605" y="102" on="0"/>
        <pt x="626" y="152" on="1"/>
        <pt x="655" y="219" on="0"/>
        <pt x="655" y="328" on="1"/>
        <pt x="655" y="407" on="0"/>
        <pt x="615" y="532" on="0"/>
        <pt x="578" y="559" on="1"/>
        <pt x="531" y="596" on="0"/>
      </contour>
    </TTGlyph>
    <TTGlyph name="R" xMin="27" yMin="-26" xMax="824" yMax="686">
      <contour>
        <pt x="824" y="90" on="1"/>
        <pt x="824" y="74" on="1"/>
        <pt x="823" y="73" on="0"/>
        <pt x="694" y="-25" on="0"/>
        <pt x="693" y="-26" on="1"/>
        <pt x="692" y="-26" on="0"/>
        <pt x="660" y="32" on="1"/>
        <pt x="628" y="90" on="1"/>
        <pt x="629" y="111" on="1"/>
        <pt x="631" y="159" on="0"/>
        <pt x="631" y="177" on="1"/>
        <pt x="631" y="238" on="0"/>
        <pt x="624" y="274" on="1"/>
        <pt x="622" y="290" on="0"/>
        <pt x="614" y="300" on="1"/>
        <pt x="584" y="340" on="0"/>
        <pt x="523" y="340" on="1"/>
        <pt x="494" y="340" on="0"/>
        <pt x="446" y="328" on="1"/>
        <pt x="436" y="325" on="0"/>
        <pt x="431" y="325" on="1"/>
        <pt x="429" y="325" on="0"/>
        <pt x="429" y="322" on="1"/>
        <pt x="428" y="320" on="0"/>
        <pt x="426" y="306" on="1"/>
        <pt x="409" y="197" on="0"/>
        <pt x="366" y="125" on="1"/>
        <pt x="358" y="112" on="1"/>
        <pt x="342" y="99" on="1"/>
        <pt x="315" y="78" on="0"/>
        <pt x="194" y="-26" on="1"/>
        <pt x="193" y="-26" on="1"/>
        <pt x="191" y="-26" on="0"/>
        <pt x="179" y="-15" on="1"/>
        <pt x="138" y="26" on="0"/>
        <pt x="116" y="26" on="1"/>
        <pt x="80" y="26" on="0"/>
        <pt x="50" y="-8" on="1"/>
        <pt x="42" y="-16" on="1"/>
        <pt x="35" y="-8" on="1"/>
        <pt x="27" y="0" on="1"/>
        <pt x="35" y="10" on="1"/>
        <pt x="87" y="76" on="0"/>
        <pt x="130" y="98" on="1"/>
        <pt x="148" y="106" on="0"/>
        <pt x="158" y="106" on="1"/>
        <pt x="164" y="106" on="0"/>
        <pt x="174" y="102" on="1"/>
        <pt x="191" y="93" on="0"/>
        <pt x="218" y="65" on="1"/>
        <pt x="235" y="48" on="1"/>
        <pt x="237" y="48" on="0"/>
        <pt x="261" y="66" on="1"/>
        <pt x="310" y="104" on="0"/>
        <pt x="329" y="158" on="1"/>
        <pt x="352" y="227" on="0"/>
        <pt x="352" y="359" on="1"/>
        <pt x="352" y="555" on="0"/>
        <pt x="242" y="614" on="1"/>
        <pt x="214" y="628" on="0"/>
        <pt x="187" y="628" on="1"/>
        <pt x="144" y="628" on="0"/>
        <pt x="120" y="604" on="1"/>
        <pt x="91" y="577" on="0"/>
        <pt x="91" y="548" on="1"/>
        <pt x="91" y="517" on="0"/>
        <pt x="138" y="464" on="1"/>
        <pt x="166" y="430" on="0"/>
        <pt x="176" y="410" on="1"/>
        <pt x="185" y="393" on="0"/>
        <pt x="185" y="382" on="1"/>
        <pt x="185" y="376" on="1"/>
        <pt x="185" y="363" on="0"/>
        <pt x="183" y="356" on="1"/>
        <pt x="168" y="314" on="0"/>
        <pt x="118" y="275" on="1"/>
        <pt x="85" y="248" on="0"/>
        <pt x="76" y="246" on="1"/>
        <pt x="74" y="244" on="0"/>
        <pt x="64" y="253" on="1"/>
        <pt x="54" y="260" on="1"/>
        <pt x="65" y="267" on="1"/>
        <pt x="91" y="285" on="0"/>
        <pt x="100" y="302" on="1"/>
        <pt x="111" y="318" on="0"/>
        <pt x="111" y="337" on="1"/>
        <pt x="111" y="346" on="0"/>
        <pt x="108" y="353" on="1"/>
        <pt x="100" y="369" on="0"/>
        <pt x="70" y="409" on="1"/>
        <pt x="34" y="459" on="0"/>
        <pt x="29" y="478" on="1"/>
        <pt x="27" y="484" on="0"/>
        <pt x="27" y="496" on="1"/>
        <pt x="30" y="546" on="0"/>
        <pt x="71" y="595" on="1"/>
        <pt x="83" y="611" on="0"/>
        <pt x="111" y="634" on="1"/>
        <pt x="162" y="676" on="0"/>
        <pt x="223" y="684" on="1"/>
        <pt x="227" y="685" on="0"/>
        <pt x="234" y="685" on="1"/>
        <pt x="236" y="685" on="0"/>
        <pt x="247" y="686" on="0"/>
        <pt x="251" y="686" on="1"/>
        <pt x="311" y="686" on="0"/>
        <pt x="400" y="612" on="0"/>
        <pt x="419" y="559" on="1"/>
        <pt x="423" y="550" on="1"/>
        <pt x="425" y="555" on="1"/>
        <pt x="428" y="563" on="0"/>
        <pt x="484" y="623" on="0"/>
        <pt x="501" y="636" on="1"/>
        <pt x="551" y="675" on="0"/>
        <pt x="603" y="684" on="1"/>
        <pt x="607" y="685" on="0"/>
        <pt x="626" y="685" on="1"/>
        <pt x="676" y="685" on="0"/>
        <pt x="695" y="647" on="1"/>
        <pt x="705" y="627" on="0"/>
        <pt x="710" y="572" on="1"/>
        <pt x="713" y="535" on="0"/>
        <pt x="719" y="526" on="1"/>
        <pt x="730" y="513" on="0"/>
        <pt x="766" y="513" on="1"/>
        <pt x="770" y="513" on="0"/>
        <pt x="782" y="514" on="0"/>
        <pt x="786" y="514" on="0"/>
        <pt x="789" y="515" on="1"/>
        <pt x="793" y="516" on="0"/>
        <pt x="794" y="516" on="1"/>
        <pt x="795" y="515" on="0"/>
        <pt x="797" y="511" on="0"/>
        <pt x="799" y="507" on="0"/>
        <pt x="801" y="503" on="0"/>
        <pt x="802" y="502" on="1"/>
        <pt x="802" y="500" on="1"/>
        <pt x="795" y="497" on="0"/>
        <pt x="787" y="493" on="1"/>
        <pt x="701" y="460" on="0"/>
        <pt x="624" y="401" on="1"/>
        <pt x="607" y="389" on="1"/>
        <pt x="655" y="383" on="0"/>
        <pt x="688" y="358" on="1"/>
        <pt x="697" y="352" on="1"/>
        <pt x="697" y="342" on="1"/>
        <pt x="699" y="330" on="0"/>
        <pt x="699" y="297" on="1"/>
        <pt x="704" y="204" on="0"/>
        <pt x="710" y="169" on="1"/>
        <pt x="713" y="146" on="0"/>
        <pt x="750" y="69" on="0"/>
        <pt x="765" y="69" on="1"/>
        <pt x="769" y="69" on="0"/>
        <pt x="806" y="83" on="1"/>
      </contour>
      <contour>
        <pt x="562" y="628" on="1"/>
        <pt x="533" y="628" on="0"/>
        <pt x="504" y="599" on="1"/>
        <pt x="477" y="574" on="0"/>
        <pt x="443" y="507" on="1"/>
        <pt x="435" y="491" on="1"/>
        <pt x="436" y="479" on="1"/>
        <pt x="437" y="471" on="0"/>
        <pt x="437" y="446" on="1"/>
        <pt x="437" y="394" on="0"/>
        <pt x="432" y="351" on="1"/>
        <pt x="454" y="360" on="0"/>
        <pt x="481" y="370" on="1"/>
        <pt x="529" y="389" on="1"/>
        <pt x="602" y="426" on="1"/>
        <pt x="673" y="462" on="0"/>
        <pt x="673" y="463" on="1"/>
        <pt x="672" y="463" on="1"/>
        <pt x="664" y="465" on="0"/>
        <pt x="653" y="469" on="0"/>
        <pt x="645" y="472" on="0"/>
        <pt x="639" y="480" on="0"/>
        <pt x="636" y="483" on="0"/>
        <pt x="632" y="495" on="0"/>
        <pt x="631" y="500" on="0"/>
        <pt x="627" y="519" on="0"/>
        <pt x="626" y="524" on="1"/>
        <pt x="624" y="546" on="0"/>
        <pt x="618" y="576" on="0"/>
        <pt x="605" y="610" on="0"/>
        <pt x="580" y="628" on="0"/>
      </contour>
    </TTGlyph>
    <TTGlyph name="S" xMin="66" yMin="-27" xMax="756" yMax="692">
      <contour>
        <pt x="303" y="428" on="1"/>
        <pt x="303" y="368" on="0"/>
        <pt x="366" y="368" on="1"/>
        <pt x="392" y="368" on="0"/>
        <pt x="484" y="388" on="1"/>
        <pt x="580" y="409" on="0"/>
        <pt x="613" y="409" on="1"/>
        <pt x="660" y="409" on="0"/>
        <pt x="697" y="384" on="1"/>
        <pt x="725" y="365" on="0"/>
        <pt x="750" y="316" on="0"/>
        <pt x="750" y="276" on="1"/>
        <pt x="750" y="259" on="0"/>
        <pt x="748" y="243" on="1"/>
        <pt x="732" y="116" on="0"/>
        <pt x="527" y="-27" on="0"/>
        <pt x="378" y="-27" on="1"/>
        <pt x="223" y="-27" on="0"/>
        <pt x="146" y="67" on="1"/>
        <pt x="66" y="163" on="0"/>
        <pt x="66" y="307" on="1"/>
        <pt x="66" y="414" on="0"/>
        <pt x="119" y="502" on="1"/>
        <pt x="192" y="625" on="0"/>
        <pt x="356" y="676" on="1"/>
        <pt x="385" y="684" on="0"/>
        <pt x="417" y="691" on="1"/>
        <pt x="418" y="692" on="0"/>
        <pt x="420" y="692" on="1"/>
        <pt x="442" y="681" on="1"/>
        <pt x="591" y="601" on="0"/>
        <pt x="632" y="592" on="1"/>
        <pt x="637" y="591" on="0"/>
        <pt x="654" y="591" on="1"/>
        <pt x="674" y="591" on="0"/>
        <pt x="680" y="593" on="1"/>
        <pt x="723" y="605" on="0"/>
        <pt x="739" y="656" on="1"/>
        <pt x="742" y="665" on="1"/>
        <pt x="742" y="666" on="0"/>
        <pt x="754" y="656" on="0"/>
        <pt x="756" y="654" on="1"/>
        <pt x="752" y="642" on="1"/>
        <pt x="736" y="593" on="0"/>
        <pt x="675" y="537" on="0"/>
        <pt x="621" y="515" on="1"/>
        <pt x="607" y="510" on="1"/>
        <pt x="584" y="513" on="0"/>
        <pt x="541" y="534" on="0"/>
        <pt x="489" y="564" on="1"/>
        <pt x="423" y="601" on="0"/>
        <pt x="384" y="616" on="1"/>
        <pt x="359" y="627" on="0"/>
        <pt x="335" y="627" on="1"/>
        <pt x="318" y="627" on="0"/>
        <pt x="309" y="625" on="1"/>
        <pt x="260" y="614" on="0"/>
        <pt x="214" y="569" on="1"/>
        <pt x="139" y="500" on="0"/>
        <pt x="139" y="373" on="1"/>
        <pt x="139" y="233" on="0"/>
        <pt x="293" y="44" on="0"/>
        <pt x="414" y="28" on="1"/>
        <pt x="430" y="26" on="0"/>
        <pt x="455" y="26" on="1"/>
        <pt x="572" y="26" on="0"/>
        <pt x="631" y="87" on="1"/>
        <pt x="676" y="135" on="0"/>
        <pt x="676" y="207" on="1"/>
        <pt x="676" y="261" on="0"/>
        <pt x="625" y="329" on="0"/>
        <pt x="580" y="338" on="1"/>
        <pt x="574" y="339" on="0"/>
        <pt x="552" y="339" on="1"/>
        <pt x="518" y="339" on="0"/>
        <pt x="444" y="325" on="1"/>
        <pt x="367" y="310" on="0"/>
        <pt x="327" y="310" on="1"/>
        <pt x="295" y="310" on="0"/>
        <pt x="278" y="316" on="1"/>
        <pt x="258" y="324" on="0"/>
        <pt x="230" y="363" on="0"/>
        <pt x="230" y="390" on="1"/>
        <pt x="230" y="427" on="0"/>
        <pt x="259" y="461" on="1"/>
        <pt x="284" y="486" on="0"/>
        <pt x="338" y="507" on="1"/>
        <pt x="351" y="498" on="0"/>
        <pt x="351" y="495" on="1"/>
        <pt x="303" y="472" on="0"/>
      </contour>
    </TTGlyph>
    <TTGlyph name="T" xMin="34" yMin="-27" xMax="676" yMax="701">
      <contour>
        <pt x="75" y="367" on="1"/>
        <pt x="34" y="402" on="0"/>
        <pt x="34" y="472" on="1"/>
        <pt x="34" y="495" on="0"/>
        <pt x="36" y="503" on="1"/>
        <pt x="49" y="563" on="0"/>
        <pt x="101" y="616" on="1"/>
        <pt x="171" y="686" on="0"/>
        <pt x="289" y="686" on="1"/>
        <pt x="296" y="686" on="1"/>
        <pt x="356" y="683" on="0"/>
        <pt x="453" y="665" on="1"/>
        <pt x="534" y="649" on="0"/>
        <pt x="565" y="649" on="1"/>
        <pt x="606" y="649" on="0"/>
        <pt x="641" y="672" on="1"/>
        <pt x="675" y="701" on="1"/>
        <pt x="676" y="698" on="0"/>
        <pt x="676" y="692" on="1"/>
        <pt x="676" y="681" on="1"/>
        <pt x="641" y="636" on="1"/>
        <pt x="608" y="591" on="0"/>
        <pt x="602" y="588" on="1"/>
        <pt x="577" y="575" on="0"/>
        <pt x="528" y="575" on="1"/>
        <pt x="485" y="575" on="0"/>
        <pt x="438" y="583" on="1"/>
        <pt x="426" y="585" on="1"/>
        <pt x="416" y="578" on="1"/>
        <pt x="345" y="528" on="0"/>
        <pt x="336" y="476" on="1"/>
        <pt x="335" y="472" on="0"/>
        <pt x="335" y="465" on="1"/>
        <pt x="335" y="435" on="0"/>
        <pt x="380" y="383" on="1"/>
        <pt x="427" y="327" on="0"/>
        <pt x="442" y="295" on="1"/>
        <pt x="452" y="275" on="0"/>
        <pt x="452" y="259" on="1"/>
        <pt x="452" y="241" on="0"/>
        <pt x="445" y="227" on="1"/>
        <pt x="436" y="207" on="0"/>
        <pt x="406" y="171" on="1"/>
        <pt x="387" y="146" on="0"/>
        <pt x="351" y="115" on="1"/>
        <pt x="341" y="106" on="1"/>
        <pt x="358" y="97" on="1"/>
        <pt x="438" y="58" on="0"/>
        <pt x="475" y="58" on="1"/>
        <pt x="484" y="58" on="0"/>
        <pt x="488" y="59" on="1"/>
        <pt x="536" y="66" on="0"/>
        <pt x="598" y="124" on="1"/>
        <pt x="608" y="133" on="1"/>
        <pt x="616" y="120" on="0"/>
        <pt x="616" y="118" on="1"/>
        <pt x="616" y="113" on="0"/>
        <pt x="606" y="103" on="1"/>
        <pt x="524" y="12" on="0"/>
        <pt x="453" y="-25" on="1"/>
        <pt x="448" y="-27" on="1"/>
        <pt x="438" y="-25" on="1"/>
        <pt x="398" y="-18" on="0"/>
        <pt x="336" y="15" on="1"/>
        <pt x="305" y="32" on="0"/>
        <pt x="285" y="39" on="1"/>
        <pt x="254" y="48" on="0"/>
        <pt x="234" y="48" on="1"/>
        <pt x="226" y="48" on="0"/>
        <pt x="222" y="47" on="1"/>
        <pt x="180" y="41" on="0"/>
        <pt x="122" y="-3" on="1"/>
        <pt x="112" y="-11" on="1"/>
        <pt x="106" y="-3" on="1"/>
        <pt x="101" y="5" on="1"/>
        <pt x="110" y="15" on="1"/>
        <pt x="160" y="63" on="0"/>
        <pt x="209" y="105" on="1"/>
        <pt x="224" y="117" on="1"/>
        <pt x="310" y="117" on="1"/>
        <pt x="341" y="137" on="0"/>
        <pt x="384" y="188" on="0"/>
        <pt x="384" y="210" on="1"/>
        <pt x="384" y="241" on="0"/>
        <pt x="330" y="302" on="1"/>
        <pt x="274" y="366" on="0"/>
        <pt x="263" y="398" on="1"/>
        <pt x="260" y="406" on="0"/>
        <pt x="267" y="426" on="1"/>
        <pt x="288" y="494" on="0"/>
        <pt x="368" y="580" on="1"/>
        <pt x="383" y="596" on="0"/>
        <pt x="381" y="596" on="1"/>
        <pt x="316" y="622" on="0"/>
        <pt x="228" y="622" on="1"/>
        <pt x="145" y="622" on="0"/>
        <pt x="102" y="579" on="1"/>
        <pt x="76" y="553" on="0"/>
        <pt x="76" y="516" on="1"/>
        <pt x="76" y="457" on="0"/>
        <pt x="139" y="431" on="1"/>
        <pt x="107" y="399" on="1"/>
      </contour>
    </TTGlyph>
    <TTGlyph name="U" xMin="-25" yMin="-27" xMax="665" yMax="697">
      <contour>
        <pt x="35" y="37" on="1"/>
        <pt x="28" y="36" on="0"/>
        <pt x="13" y="26" on="0"/>
        <pt x="4" y="17" on="0"/>
        <pt x="-12" y="-1" on="0"/>
        <pt x="-16" y="-5" on="1"/>
        <pt x="-25" y="8" on="0"/>
        <pt x="-25" y="11" on="1"/>
        <pt x="15" y="57" on="1"/>
        <pt x="54" y="101" on="1"/>
        <pt x="70" y="104" on="0"/>
        <pt x="86" y="116" on="1"/>
        <pt x="94" y="121" on="0"/>
        <pt x="132" y="159" on="0"/>
        <pt x="137" y="166" on="1"/>
        <pt x="160" y="201" on="0"/>
        <pt x="160" y="247" on="1"/>
        <pt x="160" y="262" on="0"/>
        <pt x="157" y="276" on="1"/>
        <pt x="147" y="315" on="0"/>
        <pt x="108" y="386" on="1"/>
        <pt x="59" y="463" on="0"/>
        <pt x="59" y="505" on="1"/>
        <pt x="59" y="526" on="0"/>
        <pt x="75" y="553" on="1"/>
        <pt x="96" y="590" on="0"/>
        <pt x="144" y="638" on="1"/>
        <pt x="177" y="669" on="0"/>
        <pt x="207" y="690" on="1"/>
        <pt x="218" y="697" on="1"/>
        <pt x="228" y="682" on="0"/>
        <pt x="229" y="682" on="1"/>
        <pt x="229" y="681" on="0"/>
        <pt x="219" y="673" on="1"/>
        <pt x="191" y="650" on="0"/>
        <pt x="170" y="625" on="1"/>
        <pt x="144" y="589" on="0"/>
        <pt x="144" y="552" on="1"/>
        <pt x="144" y="535" on="0"/>
        <pt x="151" y="515" on="1"/>
        <pt x="156" y="499" on="0"/>
        <pt x="179" y="451" on="1"/>
        <pt x="211" y="386" on="0"/>
        <pt x="222" y="341" on="1"/>
        <pt x="228" y="320" on="0"/>
        <pt x="228" y="291" on="1"/>
        <pt x="228" y="261" on="0"/>
        <pt x="222" y="242" on="1"/>
        <pt x="218" y="226" on="0"/>
        <pt x="205" y="209" on="0"/>
        <pt x="166" y="163" on="1"/>
        <pt x="118" y="107" on="1"/>
        <pt x="121" y="106" on="1"/>
        <pt x="148" y="104" on="0"/>
        <pt x="174" y="94" on="1"/>
        <pt x="195" y="87" on="0"/>
        <pt x="220" y="77" on="1"/>
        <pt x="298" y="47" on="0"/>
        <pt x="317" y="47" on="1"/>
        <pt x="354" y="47" on="0"/>
        <pt x="409" y="105" on="1"/>
        <pt x="451" y="150" on="0"/>
        <pt x="455" y="175" on="1"/>
        <pt x="458" y="194" on="0"/>
        <pt x="458" y="277" on="1"/>
        <pt x="458" y="503" on="0"/>
        <pt x="448" y="591" on="1"/>
        <pt x="447" y="596" on="1"/>
        <pt x="469" y="611" on="0"/>
        <pt x="554" y="671" on="0"/>
        <pt x="575" y="686" on="1"/>
        <pt x="578" y="684" on="0"/>
        <pt x="589" y="678" on="0"/>
        <pt x="591" y="676" on="1"/>
        <pt x="583" y="668" on="1"/>
        <pt x="557" y="640" on="0"/>
        <pt x="536" y="575" on="0"/>
        <pt x="533" y="522" on="1"/>
        <pt x="533" y="518" on="0"/>
        <pt x="532" y="471" on="0"/>
        <pt x="532" y="402" on="0"/>
        <pt x="532" y="342" on="0"/>
        <pt x="532" y="275" on="0"/>
        <pt x="533" y="231" on="0"/>
        <pt x="533" y="229" on="1"/>
        <pt x="537" y="186" on="0"/>
        <pt x="571" y="89" on="0"/>
        <pt x="593" y="81" on="1"/>
        <pt x="601" y="79" on="0"/>
        <pt x="605" y="79" on="1"/>
        <pt x="629" y="79" on="0"/>
        <pt x="657" y="96" on="1"/>
        <pt x="658" y="97" on="0"/>
        <pt x="662" y="99" on="0"/>
        <pt x="664" y="100" on="1"/>
        <pt x="665" y="100" on="1"/>
        <pt x="665" y="79" on="1"/>
        <pt x="595" y="27" on="1"/>
        <pt x="578" y="15" on="0"/>
        <pt x="542" y="-12" on="0"/>
        <pt x="532" y="-19" on="1"/>
        <pt x="523" y="-26" on="1"/>
        <pt x="459" y="109" on="0"/>
        <pt x="458" y="111" on="1"/>
        <pt x="430" y="84" on="0"/>
        <pt x="397" y="50" on="1"/>
        <pt x="347" y="0" on="0"/>
        <pt x="326" y="-17" on="0"/>
        <pt x="311" y="-22" on="1"/>
        <pt x="295" y="-27" on="0"/>
        <pt x="274" y="-27" on="1"/>
        <pt x="232" y="-25" on="0"/>
        <pt x="152" y="6" on="1"/>
        <pt x="98" y="28" on="0"/>
        <pt x="73" y="32" on="1"/>
        <pt x="50" y="37" on="0"/>
      </contour>
    </TTGlyph>
    <TTGlyph name="V" xMin="27" yMin="-26" xMax="825" yMax="686">
      <contour>
        <pt x="90" y="27" on="1"/>
        <pt x="88" y="31" on="0"/>
        <pt x="80" y="43" on="1"/>
        <pt x="95" y="59" on="1"/>
        <pt x="146" y="114" on="0"/>
        <pt x="198" y="147" on="1"/>
        <pt x="208" y="154" on="0"/>
        <pt x="213" y="154" on="1"/>
        <pt x="228" y="154" on="0"/>
        <pt x="247" y="161" on="1"/>
        <pt x="276" y="170" on="0"/>
        <pt x="300" y="195" on="1"/>
        <pt x="335" y="228" on="0"/>
        <pt x="345" y="295" on="1"/>
        <pt x="352" y="338" on="0"/>
        <pt x="352" y="406" on="1"/>
        <pt x="352" y="562" on="0"/>
        <pt x="255" y="611" on="1"/>
        <pt x="222" y="627" on="0"/>
        <pt x="187" y="627" on="1"/>
        <pt x="141" y="627" on="0"/>
        <pt x="115" y="598" on="1"/>
        <pt x="96" y="579" on="0"/>
        <pt x="96" y="559" on="1"/>
        <pt x="96" y="542" on="0"/>
        <pt x="108" y="521" on="1"/>
        <pt x="122" y="495" on="0"/>
        <pt x="145" y="468" on="1"/>
        <pt x="174" y="433" on="0"/>
        <pt x="184" y="414" on="1"/>
        <pt x="192" y="395" on="0"/>
        <pt x="192" y="381" on="1"/>
        <pt x="192" y="380" on="0"/>
        <pt x="191" y="372" on="0"/>
        <pt x="191" y="371" on="1"/>
        <pt x="186" y="345" on="0"/>
        <pt x="126" y="282" on="0"/>
        <pt x="80" y="256" on="1"/>
        <pt x="70" y="250" on="1"/>
        <pt x="54" y="266" on="1"/>
        <pt x="104" y="297" on="0"/>
        <pt x="115" y="324" on="1"/>
        <pt x="118" y="332" on="0"/>
        <pt x="118" y="339" on="1"/>
        <pt x="118" y="362" on="0"/>
        <pt x="85" y="399" on="1"/>
        <pt x="30" y="461" on="0"/>
        <pt x="27" y="493" on="1"/>
        <pt x="25" y="537" on="0"/>
        <pt x="68" y="591" on="1"/>
        <pt x="142" y="686" on="0"/>
        <pt x="256" y="686" on="1"/>
        <pt x="376" y="686" on="0"/>
        <pt x="420" y="579" on="1"/>
        <pt x="427" y="553" on="0"/>
        <pt x="429" y="553" on="1"/>
        <pt x="432" y="553" on="0"/>
        <pt x="463" y="584" on="1"/>
        <pt x="539" y="664" on="0"/>
        <pt x="599" y="683" on="1"/>
        <pt x="611" y="686" on="0"/>
        <pt x="624" y="686" on="1"/>
        <pt x="667" y="686" on="0"/>
        <pt x="710" y="655" on="1"/>
        <pt x="740" y="635" on="0"/>
        <pt x="750" y="630" on="1"/>
        <pt x="774" y="617" on="0"/>
        <pt x="798" y="617" on="1"/>
        <pt x="812" y="617" on="0"/>
        <pt x="825" y="622" on="1"/>
        <pt x="825" y="606" on="1"/>
        <pt x="815" y="599" on="1"/>
        <pt x="785" y="576" on="0"/>
        <pt x="762" y="546" on="1"/>
        <pt x="724" y="495" on="0"/>
        <pt x="724" y="432" on="1"/>
        <pt x="724" y="398" on="0"/>
        <pt x="736" y="322" on="1"/>
        <pt x="744" y="278" on="0"/>
        <pt x="749" y="234" on="1"/>
        <pt x="750" y="228" on="0"/>
        <pt x="750" y="217" on="1"/>
        <pt x="750" y="150" on="0"/>
        <pt x="711" y="96" on="1"/>
        <pt x="702" y="82" on="0"/>
        <pt x="675" y="60" on="0"/>
        <pt x="624" y="23" on="1"/>
        <pt x="588" y="-1" on="0"/>
        <pt x="578" y="-10" on="1"/>
        <pt x="563" y="-21" on="0"/>
        <pt x="546" y="-26" on="0"/>
        <pt x="522" y="-26" on="1"/>
        <pt x="490" y="-26" on="0"/>
        <pt x="463" y="-17" on="1"/>
        <pt x="419" y="-4" on="0"/>
        <pt x="363" y="29" on="1"/>
        <pt x="267" y="82" on="0"/>
        <pt x="229" y="88" on="1"/>
        <pt x="223" y="89" on="0"/>
        <pt x="211" y="89" on="1"/>
        <pt x="153" y="89" on="0"/>
        <pt x="103" y="39" on="1"/>
        <pt x="91" y="27" on="0"/>
      </contour>
      <contour>
        <pt x="660" y="198" on="1"/>
        <pt x="660" y="222" on="0"/>
        <pt x="650" y="371" on="0"/>
        <pt x="650" y="387" on="1"/>
        <pt x="650" y="418" on="0"/>
        <pt x="658" y="452" on="1"/>
        <pt x="660" y="462" on="1"/>
        <pt x="685" y="490" on="0"/>
        <pt x="735" y="548" on="1"/>
        <pt x="727" y="548" on="1"/>
        <pt x="701" y="551" on="0"/>
        <pt x="652" y="582" on="1"/>
        <pt x="613" y="607" on="0"/>
        <pt x="589" y="614" on="1"/>
        <pt x="578" y="617" on="0"/>
        <pt x="567" y="617" on="1"/>
        <pt x="560" y="617" on="0"/>
        <pt x="554" y="615" on="1"/>
        <pt x="530" y="609" on="0"/>
        <pt x="497" y="576" on="1"/>
        <pt x="466" y="544" on="0"/>
        <pt x="445" y="501" on="1"/>
        <pt x="437" y="485" on="1"/>
        <pt x="437" y="465" on="1"/>
        <pt x="432" y="325" on="0"/>
        <pt x="382" y="231" on="1"/>
        <pt x="378" y="223" on="1"/>
        <pt x="350" y="198" on="0"/>
        <pt x="294" y="150" on="1"/>
        <pt x="323" y="143" on="0"/>
        <pt x="396" y="101" on="1"/>
        <pt x="520" y="31" on="0"/>
        <pt x="560" y="31" on="1"/>
        <pt x="608" y="31" on="0"/>
        <pt x="634" y="64" on="1"/>
        <pt x="660" y="102" on="0"/>
      </contour>
      <contour>
        <pt x="264" y="150" on="1"/>
        <pt x="265" y="151" on="0"/>
        <pt x="263" y="151" on="1"/>
        <pt x="261" y="151" on="1"/>
        <pt x="261" y="150" on="0"/>
      </contour>
      <contour>
        <pt x="280" y="150" on="1"/>
        <pt x="276" y="150" on="1"/>
        <pt x="276" y="149" on="1"/>
        <pt x="280" y="149" on="0"/>
      </contour>
    </TTGlyph>
    <TTGlyph name="W" xMin="32" yMin="-27" xMax="1054" yMax="686">
      <contour>
        <pt x="195" y="628" on="1"/>
        <pt x="154" y="628" on="0"/>
        <pt x="101" y="586" on="0"/>
        <pt x="101" y="549" on="1"/>
        <pt x="101" y="538" on="0"/>
        <pt x="104" y="528" on="1"/>
        <pt x="113" y="502" on="0"/>
        <pt x="152" y="459" on="1"/>
        <pt x="192" y="414" on="0"/>
        <pt x="192" y="382" on="1"/>
        <pt x="192" y="361" on="0"/>
        <pt x="179" y="340" on="1"/>
        <pt x="166" y="318" on="0"/>
        <pt x="109" y="266" on="0"/>
        <pt x="85" y="254" on="1"/>
        <pt x="75" y="250" on="1"/>
        <pt x="64" y="258" on="1"/>
        <pt x="55" y="266" on="1"/>
        <pt x="69" y="274" on="1"/>
        <pt x="86" y="284" on="0"/>
        <pt x="103" y="296" on="0"/>
        <pt x="118" y="322" on="0"/>
        <pt x="118" y="339" on="1"/>
        <pt x="118" y="361" on="0"/>
        <pt x="85" y="400" on="1"/>
        <pt x="57" y="432" on="0"/>
        <pt x="41" y="462" on="1"/>
        <pt x="32" y="481" on="0"/>
        <pt x="32" y="501" on="1"/>
        <pt x="35" y="550" on="0"/>
        <pt x="84" y="605" on="1"/>
        <pt x="158" y="686" on="0"/>
        <pt x="264" y="686" on="1"/>
        <pt x="326" y="686" on="0"/>
        <pt x="365" y="652" on="1"/>
        <pt x="403" y="615" on="0"/>
        <pt x="420" y="564" on="1"/>
        <pt x="441" y="585" on="1"/>
        <pt x="486" y="630" on="0"/>
        <pt x="539" y="670" on="1"/>
        <pt x="559" y="686" on="1"/>
        <pt x="572" y="672" on="1"/>
        <pt x="639" y="602" on="0"/>
        <pt x="665" y="559" on="1"/>
        <pt x="682" y="576" on="1"/>
        <pt x="771" y="668" on="0"/>
        <pt x="825" y="683" on="1"/>
        <pt x="836" y="686" on="0"/>
        <pt x="845" y="686" on="1"/>
        <pt x="883" y="686" on="0"/>
        <pt x="952" y="642" on="1"/>
        <pt x="954" y="641" on="0"/>
        <pt x="964" y="634" on="0"/>
        <pt x="967" y="633" on="0"/>
        <pt x="975" y="628" on="0"/>
        <pt x="978" y="627" on="0"/>
        <pt x="985" y="624" on="0"/>
        <pt x="989" y="623" on="0"/>
        <pt x="996" y="622" on="0"/>
        <pt x="1003" y="621" on="0"/>
        <pt x="1011" y="621" on="0"/>
        <pt x="1016" y="621" on="1"/>
        <pt x="1039" y="621" on="0"/>
        <pt x="1054" y="628" on="1"/>
        <pt x="1051" y="617" on="1"/>
        <pt x="1047" y="606" on="1"/>
        <pt x="1042" y="602" on="0"/>
        <pt x="1037" y="597" on="1"/>
        <pt x="998" y="568" on="0"/>
        <pt x="978" y="537" on="1"/>
        <pt x="954" y="502" on="0"/>
        <pt x="954" y="434" on="1"/>
        <pt x="954" y="397" on="0"/>
        <pt x="958" y="363" on="1"/>
        <pt x="968" y="286" on="0"/>
        <pt x="968" y="221" on="1"/>
        <pt x="968" y="132" on="0"/>
        <pt x="937" y="97" on="1"/>
        <pt x="933" y="91" on="0"/>
        <pt x="887" y="50" on="1"/>
        <pt x="855" y="26" on="0"/>
        <pt x="816" y="-2" on="1"/>
        <pt x="794" y="-17" on="0"/>
        <pt x="765" y="-25" on="0"/>
        <pt x="735" y="-25" on="1"/>
        <pt x="690" y="-25" on="0"/>
        <pt x="648" y="-7" on="1"/>
        <pt x="571" y="23" on="0"/>
        <pt x="549" y="29" on="1"/>
        <pt x="530" y="35" on="0"/>
        <pt x="505" y="37" on="1"/>
        <pt x="496" y="37" on="1"/>
        <pt x="463" y="21" on="1"/>
        <pt x="420" y="0" on="0"/>
        <pt x="389" y="-20" on="1"/>
        <pt x="378" y="-27" on="1"/>
        <pt x="362" y="-27" on="1"/>
        <pt x="298" y="-27" on="0"/>
        <pt x="224" y="16" on="1"/>
        <pt x="192" y="35" on="0"/>
        <pt x="170" y="43" on="1"/>
        <pt x="162" y="46" on="0"/>
        <pt x="150" y="46" on="1"/>
        <pt x="137" y="46" on="0"/>
        <pt x="132" y="44" on="1"/>
        <pt x="101" y="34" on="0"/>
        <pt x="59" y="-5" on="1"/>
        <pt x="48" y="-16" on="1"/>
        <pt x="41" y="-6" on="1"/>
        <pt x="40" y="-4" on="0"/>
        <pt x="36" y="1" on="0"/>
        <pt x="34" y="2" on="1"/>
        <pt x="33" y="4" on="1"/>
        <pt x="33" y="8" on="0"/>
        <pt x="77" y="54" on="1"/>
        <pt x="111" y="87" on="0"/>
        <pt x="142" y="112" on="1"/>
        <pt x="154" y="122" on="1"/>
        <pt x="166" y="122" on="1"/>
        <pt x="239" y="127" on="0"/>
        <pt x="288" y="182" on="1"/>
        <pt x="346" y="245" on="0"/>
        <pt x="346" y="406" on="1"/>
        <pt x="346" y="517" on="0"/>
        <pt x="307" y="570" on="1"/>
        <pt x="287" y="593" on="0"/>
        <pt x="227" y="628" on="0"/>
      </contour>
      <contour>
        <pt x="809" y="616" on="1"/>
        <pt x="804" y="617" on="0"/>
        <pt x="796" y="617" on="1"/>
        <pt x="782" y="617" on="0"/>
        <pt x="773" y="613" on="1"/>
        <pt x="730" y="597" on="0"/>
        <pt x="682" y="525" on="1"/>
        <pt x="676" y="516" on="1"/>
        <pt x="677" y="498" on="1"/>
        <pt x="678" y="486" on="0"/>
        <pt x="678" y="425" on="1"/>
        <pt x="678" y="300" on="0"/>
        <pt x="652" y="206" on="1"/>
        <pt x="650" y="197" on="0"/>
        <pt x="642" y="189" on="1"/>
        <pt x="628" y="174" on="0"/>
        <pt x="588" y="119" on="1"/>
        <pt x="575" y="103" on="0"/>
        <pt x="577" y="101" on="1"/>
        <pt x="577" y="100" on="0"/>
        <pt x="582" y="100" on="1"/>
        <pt x="596" y="100" on="0"/>
        <pt x="625" y="91" on="1"/>
        <pt x="662" y="79" on="0"/>
        <pt x="720" y="51" on="1"/>
        <pt x="761" y="32" on="0"/>
        <pt x="790" y="32" on="1"/>
        <pt x="806" y="32" on="0"/>
        <pt x="813" y="34" on="1"/>
        <pt x="850" y="45" on="0"/>
        <pt x="869" y="83" on="1"/>
        <pt x="884" y="110" on="0"/>
        <pt x="884" y="189" on="1"/>
        <pt x="884" y="238" on="0"/>
        <pt x="878" y="298" on="1"/>
        <pt x="873" y="361" on="0"/>
        <pt x="873" y="400" on="1"/>
        <pt x="874" y="443" on="0"/>
        <pt x="882" y="463" on="1"/>
        <pt x="887" y="478" on="0"/>
        <pt x="925" y="517" on="1"/>
        <pt x="933" y="526" on="0"/>
        <pt x="950" y="545" on="0"/>
        <pt x="952" y="547" on="1"/>
        <pt x="922" y="558" on="0"/>
        <pt x="885" y="581" on="1"/>
        <pt x="838" y="611" on="0"/>
      </contour>
      <contour>
        <pt x="607" y="358" on="1"/>
        <pt x="607" y="435" on="0"/>
        <pt x="563" y="556" on="0"/>
        <pt x="524" y="587" on="1"/>
        <pt x="520" y="589" on="0"/>
        <pt x="504" y="599" on="0"/>
        <pt x="500" y="601" on="1"/>
        <pt x="479" y="580" on="1"/>
        <pt x="449" y="550" on="0"/>
        <pt x="433" y="526" on="1"/>
        <pt x="426" y="516" on="1"/>
        <pt x="426" y="503" on="1"/>
        <pt x="426" y="415" on="0"/>
        <pt x="389" y="251" on="0"/>
        <pt x="357" y="200" on="1"/>
        <pt x="352" y="191" on="1"/>
        <pt x="296" y="149" on="1"/>
        <pt x="241" y="107" on="0"/>
        <pt x="241" y="105" on="1"/>
        <pt x="241" y="104" on="0"/>
        <pt x="271" y="83" on="0"/>
        <pt x="280" y="78" on="1"/>
        <pt x="338" y="42" on="0"/>
        <pt x="393" y="42" on="1"/>
        <pt x="412" y="42" on="0"/>
        <pt x="435" y="47" on="1"/>
        <pt x="497" y="61" on="0"/>
        <pt x="547" y="109" on="1"/>
        <pt x="607" y="172" on="0"/>
      </contour>
    </TTGlyph>
    <TTGlyph name="X" xMin="28" yMin="-27" xMax="709" yMax="688">
      <contour>
        <pt x="96" y="511" on="1"/>
        <pt x="84" y="521" on="0"/>
        <pt x="78" y="527" on="1"/>
        <pt x="149" y="603" on="1"/>
        <pt x="202" y="660" on="0"/>
        <pt x="227" y="686" on="1"/>
        <pt x="237" y="685" on="1"/>
        <pt x="318" y="675" on="0"/>
        <pt x="354" y="629" on="1"/>
        <pt x="375" y="602" on="0"/>
        <pt x="395" y="533" on="1"/>
        <pt x="400" y="516" on="1"/>
        <pt x="406" y="527" on="1"/>
        <pt x="445" y="605" on="0"/>
        <pt x="523" y="653" on="1"/>
        <pt x="542" y="666" on="0"/>
        <pt x="587" y="688" on="1"/>
        <pt x="588" y="688" on="0"/>
        <pt x="595" y="674" on="1"/>
        <pt x="623" y="615" on="0"/>
        <pt x="629" y="606" on="1"/>
        <pt x="643" y="588" on="0"/>
        <pt x="665" y="588" on="1"/>
        <pt x="676" y="588" on="0"/>
        <pt x="696" y="597" on="1"/>
        <pt x="699" y="598" on="0"/>
        <pt x="705" y="601" on="0"/>
        <pt x="707" y="602" on="1"/>
        <pt x="709" y="603" on="1"/>
        <pt x="709" y="585" on="1"/>
        <pt x="675" y="566" on="0"/>
        <pt x="607" y="526" on="1"/>
        <pt x="585" y="535" on="0"/>
        <pt x="525" y="592" on="0"/>
        <pt x="512" y="614" on="1"/>
        <pt x="484" y="591" on="0"/>
        <pt x="465" y="563" on="1"/>
        <pt x="410" y="481" on="0"/>
        <pt x="405" y="381" on="1"/>
        <pt x="405" y="367" on="1"/>
        <pt x="581" y="367" on="1"/>
        <pt x="563" y="347" on="1"/>
        <pt x="561" y="344" on="0"/>
        <pt x="555" y="337" on="0"/>
        <pt x="551" y="332" on="0"/>
        <pt x="547" y="328" on="0"/>
        <pt x="546" y="326" on="1"/>
        <pt x="545" y="325" on="1"/>
        <pt x="521" y="326" on="1"/>
        <pt x="455" y="334" on="0"/>
        <pt x="411" y="334" on="1"/>
        <pt x="405" y="334" on="1"/>
        <pt x="404" y="333" on="0"/>
        <pt x="408" y="273" on="0"/>
        <pt x="409" y="261" on="1"/>
        <pt x="416" y="185" on="0"/>
        <pt x="488" y="67" on="0"/>
        <pt x="545" y="55" on="1"/>
        <pt x="551" y="54" on="0"/>
        <pt x="585" y="54" on="0"/>
        <pt x="591" y="55" on="1"/>
        <pt x="624" y="62" on="0"/>
        <pt x="662" y="86" on="1"/>
        <pt x="675" y="95" on="0"/>
        <pt x="676" y="95" on="1"/>
        <pt x="676" y="74" on="1"/>
        <pt x="565" y="-16" on="1"/>
        <pt x="553" y="-20" on="1"/>
        <pt x="528" y="-27" on="0"/>
        <pt x="512" y="-27" on="1"/>
        <pt x="498" y="-27" on="0"/>
        <pt x="485" y="-23" on="1"/>
        <pt x="423" y="-8" on="0"/>
        <pt x="385" y="69" on="1"/>
        <pt x="376" y="86" on="0"/>
        <pt x="363" y="127" on="0"/>
        <pt x="360" y="139" on="1"/>
        <pt x="357" y="151" on="1"/>
        <pt x="354" y="151" on="0"/>
        <pt x="325" y="122" on="1"/>
        <pt x="269" y="66" on="0"/>
        <pt x="232" y="37" on="1"/>
        <pt x="172" y="-8" on="0"/>
        <pt x="129" y="-20" on="1"/>
        <pt x="119" y="-22" on="0"/>
        <pt x="113" y="-22" on="1"/>
        <pt x="68" y="-22" on="0"/>
        <pt x="33" y="23" on="1"/>
        <pt x="28" y="29" on="0"/>
        <pt x="28" y="32" on="1"/>
        <pt x="58" y="68" on="1"/>
        <pt x="86" y="101" on="1"/>
        <pt x="95" y="78" on="0"/>
        <pt x="138" y="47" on="0"/>
        <pt x="165" y="47" on="1"/>
        <pt x="180" y="47" on="0"/>
        <pt x="190" y="50" on="1"/>
        <pt x="218" y="57" on="0"/>
        <pt x="249" y="84" on="1"/>
        <pt x="302" y="128" on="0"/>
        <pt x="325" y="222" on="1"/>
        <pt x="334" y="263" on="0"/>
        <pt x="336" y="312" on="1"/>
        <pt x="336" y="334" on="1"/>
        <pt x="312" y="334" on="1"/>
        <pt x="260" y="334" on="0"/>
        <pt x="221" y="330" on="1"/>
        <pt x="179" y="328" on="0"/>
        <pt x="163" y="324" on="1"/>
        <pt x="161" y="324" on="1"/>
        <pt x="163" y="327" on="0"/>
        <pt x="177" y="342" on="0"/>
        <pt x="182" y="348" on="1"/>
        <pt x="198" y="367" on="1"/>
        <pt x="336" y="367" on="1"/>
        <pt x="336" y="398" on="1"/>
        <pt x="333" y="508" on="0"/>
        <pt x="308" y="550" on="1"/>
        <pt x="277" y="601" on="0"/>
        <pt x="227" y="601" on="1"/>
        <pt x="196" y="601" on="0"/>
        <pt x="164" y="580" on="1"/>
        <pt x="154" y="573" on="0"/>
        <pt x="105" y="523" on="0"/>
        <pt x="98" y="513" on="1"/>
      </contour>
    </TTGlyph>
    <TTGlyph name="Y" xMin="27" yMin="-218" xMax="740" yMax="686">
      <contour>
        <pt x="155" y="122" on="1"/>
        <pt x="352" y="135" on="0"/>
        <pt x="352" y="399" on="1"/>
        <pt x="352" y="410" on="1"/>
        <pt x="349" y="489" on="0"/>
        <pt x="323" y="542" on="1"/>
        <pt x="304" y="581" on="0"/>
        <pt x="235" y="628" on="0"/>
        <pt x="197" y="628" on="1"/>
        <pt x="126" y="628" on="0"/>
        <pt x="105" y="574" on="1"/>
        <pt x="102" y="566" on="0"/>
        <pt x="102" y="553" on="1"/>
        <pt x="102" y="539" on="0"/>
        <pt x="104" y="532" on="1"/>
        <pt x="112" y="505" on="0"/>
        <pt x="141" y="471" on="1"/>
        <pt x="185" y="419" on="0"/>
        <pt x="191" y="393" on="1"/>
        <pt x="192" y="390" on="0"/>
        <pt x="192" y="383" on="1"/>
        <pt x="192" y="360" on="0"/>
        <pt x="173" y="333" on="1"/>
        <pt x="143" y="292" on="0"/>
        <pt x="75" y="250" on="1"/>
        <pt x="59" y="266" on="1"/>
        <pt x="85" y="286" on="0"/>
        <pt x="123" y="331" on="0"/>
        <pt x="123" y="359" on="0"/>
        <pt x="80" y="409" on="1"/>
        <pt x="27" y="471" on="0"/>
        <pt x="27" y="496" on="1"/>
        <pt x="27" y="527" on="0"/>
        <pt x="92" y="618" on="0"/>
        <pt x="121" y="639" on="1"/>
        <pt x="169" y="677" on="0"/>
        <pt x="242" y="685" on="1"/>
        <pt x="256" y="685" on="1"/>
        <pt x="308" y="685" on="0"/>
        <pt x="361" y="665" on="0"/>
        <pt x="384" y="635" on="1"/>
        <pt x="420" y="586" on="0"/>
        <pt x="425" y="542" on="1"/>
        <pt x="471" y="588" on="0"/>
        <pt x="538" y="637" on="1"/>
        <pt x="582" y="671" on="0"/>
        <pt x="618" y="686" on="1"/>
        <pt x="636" y="661" on="0"/>
        <pt x="664" y="640" on="1"/>
        <pt x="690" y="618" on="0"/>
        <pt x="710" y="606" on="1"/>
        <pt x="724" y="595" on="0"/>
        <pt x="724" y="594" on="1"/>
        <pt x="740" y="514" on="0"/>
        <pt x="740" y="375" on="1"/>
        <pt x="740" y="285" on="0"/>
        <pt x="738" y="263" on="1"/>
        <pt x="726" y="96" on="0"/>
        <pt x="682" y="-3" on="1"/>
        <pt x="664" y="-43" on="0"/>
        <pt x="604" y="-100" on="1"/>
        <pt x="556" y="-144" on="0"/>
        <pt x="448" y="-205" on="0"/>
        <pt x="403" y="-214" on="1"/>
        <pt x="384" y="-218" on="0"/>
        <pt x="361" y="-218" on="1"/>
        <pt x="295" y="-218" on="0"/>
        <pt x="254" y="-183" on="1"/>
        <pt x="247" y="-177" on="0"/>
        <pt x="230" y="-154" on="0"/>
        <pt x="230" y="-150" on="1"/>
        <pt x="230" y="-148" on="0"/>
        <pt x="267" y="-109" on="1"/>
        <pt x="304" y="-69" on="1"/>
        <pt x="310" y="-111" on="0"/>
        <pt x="367" y="-170" on="0"/>
        <pt x="411" y="-170" on="1"/>
        <pt x="450" y="-170" on="0"/>
        <pt x="488" y="-150" on="1"/>
        <pt x="534" y="-126" on="0"/>
        <pt x="568" y="-86" on="1"/>
        <pt x="605" y="-40" on="0"/>
        <pt x="624" y="11" on="1"/>
        <pt x="660" y="111" on="0"/>
        <pt x="660" y="312" on="1"/>
        <pt x="660" y="447" on="0"/>
        <pt x="633" y="528" on="1"/>
        <pt x="612" y="549" on="1"/>
        <pt x="578" y="583" on="0"/>
        <pt x="552" y="596" on="1"/>
        <pt x="543" y="601" on="1"/>
        <pt x="528" y="592" on="1"/>
        <pt x="501" y="574" on="0"/>
        <pt x="483" y="558" on="1"/>
        <pt x="454" y="528" on="0"/>
        <pt x="436" y="494" on="1"/>
        <pt x="431" y="484" on="1"/>
        <pt x="431" y="473" on="1"/>
        <pt x="431" y="330" on="0"/>
        <pt x="376" y="230" on="1"/>
        <pt x="366" y="213" on="0"/>
        <pt x="351" y="198" on="0"/>
        <pt x="306" y="159" on="1"/>
        <pt x="250" y="112" on="1"/>
        <pt x="280" y="104" on="0"/>
        <pt x="321" y="84" on="1"/>
        <pt x="374" y="58" on="0"/>
        <pt x="399" y="58" on="1"/>
        <pt x="436" y="58" on="0"/>
        <pt x="471" y="93" on="1"/>
        <pt x="484" y="105" on="0"/>
        <pt x="485" y="104" on="1"/>
        <pt x="489" y="96" on="0"/>
        <pt x="493" y="90" on="1"/>
        <pt x="480" y="73" on="1"/>
        <pt x="453" y="39" on="0"/>
        <pt x="429" y="13" on="1"/>
        <pt x="393" y="-22" on="0"/>
        <pt x="372" y="-22" on="1"/>
        <pt x="368" y="-22" on="0"/>
        <pt x="356" y="-20" on="1"/>
        <pt x="329" y="-16" on="0"/>
        <pt x="267" y="13" on="1"/>
        <pt x="178" y="53" on="0"/>
        <pt x="153" y="53" on="1"/>
        <pt x="96" y="53" on="0"/>
        <pt x="53" y="-9" on="1"/>
        <pt x="48" y="-16" on="1"/>
        <pt x="42" y="-2" on="0"/>
        <pt x="38" y="5" on="1"/>
        <pt x="41" y="11" on="1"/>
        <pt x="75" y="60" on="0"/>
        <pt x="128" y="108" on="1"/>
        <pt x="143" y="122" on="1"/>
      </contour>
    </TTGlyph>
    <TTGlyph name="Z" xMin="11" yMin="-139" xMax="532" yMax="729">
      <contour>
        <pt x="148" y="590" on="1"/>
        <pt x="97" y="592" on="0"/>
        <pt x="91" y="627" on="1"/>
        <pt x="91" y="633" on="1"/>
        <pt x="160" y="729" on="1"/>
        <pt x="176" y="729" on="1"/>
        <pt x="169" y="710" on="0"/>
        <pt x="169" y="705" on="1"/>
        <pt x="169" y="693" on="0"/>
        <pt x="177" y="685" on="1"/>
        <pt x="193" y="670" on="0"/>
        <pt x="244" y="670" on="1"/>
        <pt x="262" y="670" on="0"/>
        <pt x="340" y="675" on="0"/>
        <pt x="357" y="675" on="1"/>
        <pt x="407" y="675" on="0"/>
        <pt x="460" y="646" on="0"/>
        <pt x="468" y="609" on="1"/>
        <pt x="469" y="605" on="0"/>
        <pt x="469" y="596" on="1"/>
        <pt x="469" y="572" on="0"/>
        <pt x="460" y="540" on="1"/>
        <pt x="445" y="498" on="0"/>
        <pt x="404" y="457" on="1"/>
        <pt x="360" y="413" on="0"/>
        <pt x="301" y="372" on="1"/>
        <pt x="325" y="378" on="0"/>
        <pt x="359" y="378" on="1"/>
        <pt x="454" y="378" on="0"/>
        <pt x="502" y="325" on="1"/>
        <pt x="516" y="310" on="0"/>
        <pt x="519" y="297" on="1"/>
        <pt x="532" y="249" on="0"/>
        <pt x="532" y="198" on="1"/>
        <pt x="532" y="86" on="0"/>
        <pt x="472" y="-17" on="1"/>
        <pt x="454" y="-47" on="0"/>
        <pt x="442" y="-57" on="1"/>
        <pt x="370" y="-112" on="0"/>
        <pt x="283" y="-131" on="1"/>
        <pt x="241" y="-139" on="0"/>
        <pt x="202" y="-139" on="1"/>
        <pt x="165" y="-139" on="0"/>
        <pt x="125" y="-131" on="1"/>
        <pt x="112" y="-129" on="1"/>
        <pt x="112" y="-100" on="1"/>
        <pt x="112" y="-47" on="0"/>
        <pt x="106" y="-33" on="1"/>
        <pt x="96" y="-17" on="0"/>
        <pt x="75" y="-17" on="1"/>
        <pt x="55" y="-17" on="0"/>
        <pt x="31" y="-35" on="1"/>
        <pt x="22" y="-42" on="1"/>
        <pt x="11" y="-26" on="1"/>
        <pt x="22" y="-18" on="1"/>
        <pt x="69" y="17" on="0"/>
        <pt x="110" y="30" on="1"/>
        <pt x="128" y="36" on="0"/>
        <pt x="151" y="36" on="1"/>
        <pt x="160" y="36" on="1"/>
        <pt x="178" y="36" on="0"/>
        <pt x="186" y="28" on="1"/>
        <pt x="193" y="22" on="0"/>
        <pt x="196" y="3" on="0"/>
        <pt x="197" y="-32" on="1"/>
        <pt x="198" y="-77" on="0"/>
        <pt x="204" y="-88" on="1"/>
        <pt x="217" y="-107" on="0"/>
        <pt x="251" y="-107" on="1"/>
        <pt x="265" y="-107" on="0"/>
        <pt x="280" y="-104" on="1"/>
        <pt x="357" y="-89" on="0"/>
        <pt x="442" y="53" on="0"/>
        <pt x="442" y="155" on="1"/>
        <pt x="442" y="240" on="0"/>
        <pt x="407" y="274" on="1"/>
        <pt x="360" y="319" on="0"/>
        <pt x="285" y="319" on="1"/>
        <pt x="235" y="319" on="0"/>
        <pt x="192" y="298" on="1"/>
        <pt x="186" y="301" on="0"/>
        <pt x="181" y="309" on="1"/>
        <pt x="188" y="319" on="0"/>
        <pt x="217" y="362" on="0"/>
        <pt x="224" y="372" on="1"/>
        <pt x="229" y="373" on="1"/>
        <pt x="274" y="377" on="0"/>
        <pt x="362" y="452" on="0"/>
        <pt x="375" y="493" on="1"/>
        <pt x="384" y="520" on="0"/>
        <pt x="384" y="540" on="1"/>
        <pt x="384" y="568" on="0"/>
        <pt x="340" y="600" on="0"/>
        <pt x="306" y="600" on="1"/>
        <pt x="282" y="600" on="0"/>
        <pt x="264" y="598" on="1"/>
        <pt x="181" y="590" on="0"/>
      </contour>
    </TTGlyph>
    <TTGlyph name="a" xMin="66" yMin="-35" xMax="497" yMax="470">
      <contour>
        <pt x="86" y="363" on="1"/>
        <pt x="97" y="370" on="0"/>
        <pt x="132" y="393" on="0"/>
        <pt x="206" y="441" on="0"/>
        <pt x="255" y="471" on="0"/>
        <pt x="255" y="470" on="1"/>
        <pt x="256" y="469" on="1"/>
        <pt x="258" y="468" on="0"/>
        <pt x="262" y="466" on="0"/>
        <pt x="264" y="465" on="1"/>
        <pt x="283" y="452" on="0"/>
        <pt x="308" y="442" on="1"/>
        <pt x="338" y="431" on="0"/>
        <pt x="346" y="431" on="1"/>
        <pt x="350" y="431" on="0"/>
        <pt x="358" y="436" on="1"/>
        <pt x="360" y="437" on="0"/>
        <pt x="384" y="450" on="0"/>
        <pt x="391" y="453" on="1"/>
        <pt x="414" y="465" on="1"/>
        <pt x="418" y="461" on="0"/>
        <pt x="421" y="459" on="1"/>
        <pt x="418" y="434" on="1"/>
        <pt x="404" y="342" on="0"/>
        <pt x="404" y="262" on="1"/>
        <pt x="404" y="189" on="0"/>
        <pt x="407" y="126" on="1"/>
        <pt x="408" y="119" on="1"/>
        <pt x="425" y="97" on="1"/>
        <pt x="443" y="74" on="0"/>
        <pt x="444" y="74" on="1"/>
        <pt x="491" y="97" on="1"/>
        <pt x="492" y="97" on="0"/>
        <pt x="497" y="83" on="1"/>
        <pt x="436" y="28" on="1"/>
        <pt x="377" y="-26" on="0"/>
        <pt x="374" y="-26" on="1"/>
        <pt x="364" y="-10" on="0"/>
        <pt x="352" y="10" on="1"/>
        <pt x="331" y="46" on="1"/>
        <pt x="330" y="54" on="0"/>
        <pt x="330" y="84" on="0"/>
        <pt x="329" y="91" on="1"/>
        <pt x="242" y="28" on="1"/>
        <pt x="155" y="-35" on="1"/>
        <pt x="154" y="-35" on="0"/>
        <pt x="117" y="5" on="0"/>
        <pt x="75" y="54" on="0"/>
        <pt x="68" y="65" on="1"/>
        <pt x="67" y="86" on="1"/>
        <pt x="66" y="100" on="0"/>
        <pt x="66" y="156" on="1"/>
        <pt x="66" y="253" on="0"/>
        <pt x="78" y="322" on="1"/>
        <pt x="81" y="349" on="0"/>
      </contour>
      <contour>
        <pt x="203" y="387" on="1"/>
        <pt x="187" y="392" on="1"/>
        <pt x="184" y="392" on="0"/>
        <pt x="176" y="379" on="1"/>
        <pt x="145" y="332" on="0"/>
        <pt x="145" y="197" on="1"/>
        <pt x="145" y="178" on="0"/>
        <pt x="147" y="138" on="1"/>
        <pt x="148" y="121" on="0"/>
        <pt x="151" y="118" on="1"/>
        <pt x="156" y="110" on="0"/>
        <pt x="187" y="78" on="1"/>
        <pt x="208" y="56" on="1"/>
        <pt x="214" y="56" on="1"/>
        <pt x="225" y="58" on="0"/>
        <pt x="308" y="109" on="1"/>
        <pt x="329" y="123" on="1"/>
        <pt x="329" y="136" on="1"/>
        <pt x="328" y="143" on="0"/>
        <pt x="328" y="257" on="1"/>
        <pt x="328" y="365" on="1"/>
        <pt x="314" y="365" on="1"/>
        <pt x="269" y="368" on="0"/>
      </contour>
    </TTGlyph>
    <TTGlyph name="ampersand" xMin="49" yMin="-11" xMax="733" yMax="698">
      <contour>
        <pt x="208" y="397" on="1"/>
        <pt x="181" y="456" on="0"/>
        <pt x="181" y="520" on="1"/>
        <pt x="181" y="589" on="0"/>
        <pt x="256" y="685" on="0"/>
        <pt x="313" y="695" on="1"/>
        <pt x="325" y="697" on="0"/>
        <pt x="328" y="697" on="1"/>
        <pt x="330" y="698" on="1"/>
        <pt x="333" y="698" on="0"/>
        <pt x="335" y="698" on="1"/>
        <pt x="336" y="698" on="0"/>
        <pt x="344" y="697" on="0"/>
        <pt x="346" y="697" on="1"/>
        <pt x="391" y="697" on="0"/>
        <pt x="446" y="643" on="0"/>
        <pt x="446" y="604" on="1"/>
        <pt x="446" y="554" on="0"/>
        <pt x="414" y="511" on="1"/>
        <pt x="384" y="467" on="0"/>
        <pt x="300" y="417" on="1"/>
        <pt x="283" y="406" on="1"/>
        <pt x="278" y="404" on="0"/>
        <pt x="317" y="337" on="1"/>
        <pt x="365" y="251" on="0"/>
        <pt x="425" y="182" on="1"/>
        <pt x="466" y="135" on="0"/>
        <pt x="469" y="135" on="1"/>
        <pt x="470" y="135" on="0"/>
        <pt x="476" y="145" on="0"/>
        <pt x="484" y="159" on="0"/>
        <pt x="486" y="165" on="1"/>
        <pt x="509" y="210" on="0"/>
        <pt x="509" y="263" on="1"/>
        <pt x="509" y="282" on="0"/>
        <pt x="507" y="292" on="1"/>
        <pt x="498" y="317" on="0"/>
        <pt x="488" y="331" on="1"/>
        <pt x="473" y="349" on="0"/>
        <pt x="447" y="361" on="0"/>
        <pt x="418" y="361" on="1"/>
        <pt x="388" y="361" on="0"/>
        <pt x="357" y="358" on="1"/>
        <pt x="346" y="356" on="1"/>
        <pt x="347" y="374" on="1"/>
        <pt x="347" y="394" on="0"/>
        <pt x="348" y="396" on="1"/>
        <pt x="348" y="399" on="1"/>
        <pt x="355" y="399" on="1"/>
        <pt x="357" y="399" on="0"/>
        <pt x="373" y="398" on="0"/>
        <pt x="403" y="397" on="0"/>
        <pt x="414" y="397" on="1"/>
        <pt x="423" y="397" on="0"/>
        <pt x="507" y="396" on="0"/>
        <pt x="535" y="396" on="1"/>
        <pt x="663" y="396" on="0"/>
        <pt x="689" y="398" on="1"/>
        <pt x="703" y="399" on="1"/>
        <pt x="703" y="398" on="0"/>
        <pt x="700" y="352" on="0"/>
        <pt x="700" y="351" on="1"/>
        <pt x="688" y="353" on="1"/>
        <pt x="655" y="356" on="0"/>
        <pt x="601" y="357" on="1"/>
        <pt x="553" y="357" on="0"/>
        <pt x="553" y="355" on="1"/>
        <pt x="562" y="332" on="0"/>
        <pt x="562" y="294" on="1"/>
        <pt x="562" y="254" on="0"/>
        <pt x="522" y="153" on="0"/>
        <pt x="494" y="122" on="1"/>
        <pt x="489" y="115" on="1"/>
        <pt x="496" y="107" on="1"/>
        <pt x="537" y="66" on="0"/>
        <pt x="576" y="56" on="1"/>
        <pt x="582" y="54" on="0"/>
        <pt x="596" y="54" on="1"/>
        <pt x="616" y="54" on="0"/>
        <pt x="628" y="59" on="1"/>
        <pt x="677" y="75" on="0"/>
        <pt x="700" y="148" on="1"/>
        <pt x="710" y="180" on="0"/>
        <pt x="710" y="187" on="1"/>
        <pt x="710" y="188" on="0"/>
        <pt x="710" y="188" on="1"/>
        <pt x="711" y="190" on="1"/>
        <pt x="713" y="190" on="0"/>
        <pt x="733" y="184" on="0"/>
        <pt x="733" y="183" on="1"/>
        <pt x="733" y="169" on="0"/>
        <pt x="723" y="135" on="1"/>
        <pt x="704" y="68" on="0"/>
        <pt x="666" y="29" on="1"/>
        <pt x="631" y="-11" on="0"/>
        <pt x="569" y="-11" on="1"/>
        <pt x="545" y="-11" on="0"/>
        <pt x="537" y="-9" on="1"/>
        <pt x="487" y="2" on="0"/>
        <pt x="443" y="41" on="1"/>
        <pt x="434" y="49" on="1"/>
        <pt x="425" y="42" on="1"/>
        <pt x="348" y="-9" on="0"/>
        <pt x="275" y="-9" on="1"/>
        <pt x="164" y="-9" on="0"/>
        <pt x="107" y="51" on="1"/>
        <pt x="49" y="112" on="0"/>
        <pt x="49" y="195" on="1"/>
        <pt x="49" y="279" on="0"/>
        <pt x="113" y="332" on="1"/>
        <pt x="144" y="359" on="0"/>
        <pt x="197" y="390" on="1"/>
      </contour>
      <contour>
        <pt x="374" y="577" on="1"/>
        <pt x="374" y="606" on="0"/>
        <pt x="338" y="651" on="0"/>
        <pt x="311" y="651" on="1"/>
        <pt x="289" y="651" on="0"/>
        <pt x="271" y="636" on="1"/>
        <pt x="242" y="614" on="0"/>
        <pt x="242" y="559" on="1"/>
        <pt x="242" y="518" on="0"/>
        <pt x="255" y="478" on="1"/>
        <pt x="267" y="435" on="0"/>
        <pt x="270" y="435" on="1"/>
        <pt x="271" y="435" on="0"/>
        <pt x="288" y="446" on="0"/>
        <pt x="309" y="460" on="0"/>
        <pt x="314" y="464" on="1"/>
        <pt x="347" y="486" on="0"/>
        <pt x="359" y="512" on="1"/>
        <pt x="374" y="542" on="0"/>
      </contour>
      <contour>
        <pt x="127" y="217" on="1"/>
        <pt x="127" y="144" on="0"/>
        <pt x="220" y="32" on="0"/>
        <pt x="291" y="32" on="1"/>
        <pt x="331" y="32" on="0"/>
        <pt x="375" y="54" on="1"/>
        <pt x="409" y="71" on="0"/>
        <pt x="409" y="75" on="1"/>
        <pt x="387" y="97" on="0"/>
        <pt x="337" y="167" on="1"/>
        <pt x="266" y="270" on="0"/>
        <pt x="227" y="351" on="1"/>
        <pt x="221" y="366" on="0"/>
        <pt x="220" y="366" on="1"/>
        <pt x="215" y="366" on="0"/>
        <pt x="178" y="338" on="1"/>
        <pt x="127" y="299" on="0"/>
      </contour>
    </TTGlyph>
    <TTGlyph name="asciicircum" xMin="0" yMin="452" xMax="495" yMax="734">
      <contour>
        <pt x="0" y="464" on="1"/>
        <pt x="42" y="509" on="0"/>
        <pt x="209" y="689" on="0"/>
        <pt x="250" y="734" on="1"/>
        <pt x="262" y="722" on="1"/>
        <pt x="274" y="712" on="0"/>
        <pt x="384" y="598" on="1"/>
        <pt x="495" y="486" on="1"/>
        <pt x="477" y="474" on="0"/>
        <pt x="467" y="467" on="1"/>
        <pt x="456" y="459" on="1"/>
        <pt x="352" y="566" on="1"/>
        <pt x="248" y="672" on="1"/>
        <pt x="154" y="580" on="1"/>
        <pt x="102" y="530" on="0"/>
        <pt x="42" y="470" on="1"/>
        <pt x="23" y="452" on="1"/>
        <pt x="7" y="460" on="0"/>
      </contour>
    </TTGlyph>
    <TTGlyph name="asterisk" xMin="34" yMin="449" xMax="233" yMax="692">
      <contour>
        <pt x="125" y="687" on="1"/>
        <pt x="125" y="692" on="1"/>
        <pt x="151" y="692" on="1"/>
        <pt x="151" y="689" on="1"/>
        <pt x="151" y="687" on="1"/>
        <pt x="151" y="685" on="0"/>
        <pt x="150" y="681" on="0"/>
        <pt x="150" y="675" on="0"/>
        <pt x="150" y="672" on="1"/>
        <pt x="145" y="628" on="0"/>
        <pt x="144" y="605" on="1"/>
        <pt x="144" y="592" on="1"/>
        <pt x="155" y="601" on="1"/>
        <pt x="167" y="610" on="0"/>
        <pt x="214" y="648" on="0"/>
        <pt x="219" y="652" on="1"/>
        <pt x="220" y="651" on="0"/>
        <pt x="233" y="634" on="0"/>
        <pt x="232" y="633" on="1"/>
        <pt x="229" y="630" on="0"/>
        <pt x="220" y="624" on="1"/>
        <pt x="195" y="610" on="0"/>
        <pt x="155" y="582" on="1"/>
        <pt x="146" y="575" on="1"/>
        <pt x="158" y="567" on="1"/>
        <pt x="177" y="553" on="0"/>
        <pt x="216" y="527" on="1"/>
        <pt x="233" y="516" on="1"/>
        <pt x="234" y="515" on="0"/>
        <pt x="219" y="496" on="0"/>
        <pt x="217" y="495" on="1"/>
        <pt x="210" y="501" on="0"/>
        <pt x="161" y="542" on="0"/>
        <pt x="152" y="549" on="1"/>
        <pt x="143" y="555" on="1"/>
        <pt x="143" y="530" on="1"/>
        <pt x="145" y="484" on="0"/>
        <pt x="148" y="461" on="1"/>
        <pt x="150" y="453" on="0"/>
        <pt x="148" y="449" on="0"/>
        <pt x="142" y="449" on="1"/>
        <pt x="125" y="449" on="1"/>
        <pt x="125" y="462" on="1"/>
        <pt x="128" y="522" on="0"/>
        <pt x="128" y="549" on="1"/>
        <pt x="128" y="562" on="1"/>
        <pt x="115" y="552" on="1"/>
        <pt x="88" y="531" on="0"/>
        <pt x="59" y="506" on="1"/>
        <pt x="45" y="495" on="1"/>
        <pt x="44" y="495" on="0"/>
        <pt x="34" y="515" on="0"/>
        <pt x="34" y="516" on="1"/>
        <pt x="34" y="519" on="0"/>
        <pt x="76" y="547" on="0"/>
        <pt x="97" y="560" on="1"/>
        <pt x="118" y="573" on="1"/>
        <pt x="118" y="575" on="0"/>
        <pt x="66" y="610" on="0"/>
        <pt x="49" y="619" on="1"/>
        <pt x="34" y="628" on="0"/>
        <pt x="34" y="629" on="1"/>
        <pt x="47" y="645" on="0"/>
        <pt x="55" y="652" on="1"/>
        <pt x="66" y="642" on="1"/>
        <pt x="76" y="633" on="0"/>
        <pt x="106" y="607" on="0"/>
        <pt x="117" y="598" on="1"/>
        <pt x="128" y="590" on="1"/>
        <pt x="128" y="663" on="0"/>
      </contour>
    </TTGlyph>
    <TTGlyph name="b" xMin="87" yMin="-31" xMax="442" yMax="685">
      <contour>
        <pt x="110" y="670" on="1"/>
        <pt x="127" y="596" on="1"/>
        <pt x="127" y="595" on="0"/>
        <pt x="132" y="597" on="1"/>
        <pt x="135" y="598" on="0"/>
        <pt x="150" y="609" on="1"/>
        <pt x="194" y="641" on="0"/>
        <pt x="255" y="685" on="1"/>
        <pt x="272" y="673" on="1"/>
        <pt x="271" y="671" on="0"/>
        <pt x="236" y="640" on="0"/>
        <pt x="234" y="639" on="1"/>
        <pt x="187" y="592" on="0"/>
        <pt x="179" y="508" on="1"/>
        <pt x="177" y="494" on="0"/>
        <pt x="177" y="427" on="1"/>
        <pt x="177" y="367" on="0"/>
        <pt x="179" y="365" on="1"/>
        <pt x="182" y="362" on="0"/>
        <pt x="199" y="376" on="1"/>
        <pt x="240" y="410" on="0"/>
        <pt x="271" y="433" on="1"/>
        <pt x="317" y="469" on="0"/>
        <pt x="323" y="469" on="1"/>
        <pt x="328" y="467" on="0"/>
        <pt x="333" y="464" on="1"/>
        <pt x="350" y="454" on="0"/>
        <pt x="440" y="409" on="1"/>
        <pt x="441" y="396" on="1"/>
        <pt x="441" y="394" on="0"/>
        <pt x="442" y="350" on="0"/>
        <pt x="442" y="334" on="1"/>
        <pt x="442" y="203" on="0"/>
        <pt x="425" y="108" on="1"/>
        <pt x="423" y="97" on="1"/>
        <pt x="400" y="83" on="1"/>
        <pt x="332" y="39" on="0"/>
        <pt x="285" y="14" on="1"/>
        <pt x="205" y="-31" on="0"/>
        <pt x="196" y="-31" on="1"/>
        <pt x="192" y="-29" on="0"/>
        <pt x="102" y="56" on="0"/>
        <pt x="87" y="71" on="1"/>
        <pt x="89" y="89" on="1"/>
        <pt x="100" y="155" on="0"/>
        <pt x="100" y="319" on="1"/>
        <pt x="100" y="500" on="0"/>
        <pt x="94" y="627" on="1"/>
        <pt x="94" y="632" on="0"/>
        <pt x="94" y="644" on="0"/>
        <pt x="94" y="652" on="0"/>
        <pt x="93" y="660" on="0"/>
        <pt x="93" y="662" on="1"/>
        <pt x="93" y="664" on="1"/>
        <pt x="93" y="668" on="0"/>
        <pt x="101" y="669" on="1"/>
        <pt x="110" y="671" on="0"/>
      </contour>
      <contour>
        <pt x="295" y="377" on="1"/>
        <pt x="274" y="385" on="1"/>
        <pt x="273" y="385" on="0"/>
        <pt x="255" y="376" on="0"/>
        <pt x="228" y="363" on="0"/>
        <pt x="223" y="361" on="1"/>
        <pt x="213" y="355" on="0"/>
        <pt x="188" y="340" on="1"/>
        <pt x="178" y="333" on="1"/>
        <pt x="178" y="123" on="1"/>
        <pt x="198" y="103" on="1"/>
        <pt x="242" y="59" on="0"/>
        <pt x="267" y="47" on="1"/>
        <pt x="279" y="42" on="0"/>
        <pt x="285" y="42" on="1"/>
        <pt x="298" y="42" on="0"/>
        <pt x="331" y="70" on="0"/>
        <pt x="339" y="85" on="1"/>
        <pt x="363" y="132" on="0"/>
        <pt x="363" y="232" on="1"/>
        <pt x="363" y="310" on="0"/>
        <pt x="358" y="343" on="1"/>
        <pt x="358" y="349" on="1"/>
        <pt x="345" y="355" on="1"/>
        <pt x="330" y="363" on="0"/>
      </contour>
    </TTGlyph>
    <TTGlyph name="bracketleft" xMin="117" yMin="-130" xMax="278" yMax="740">
      <contour>
        <pt x="277" y="711" on="1"/>
        <pt x="159" y="699" on="1"/>
        <pt x="159" y="-93" on="1"/>
        <pt x="162" y="-93" on="1"/>
        <pt x="167" y="-93" on="0"/>
        <pt x="274" y="-99" on="0"/>
        <pt x="276" y="-100" on="1"/>
        <pt x="278" y="-100" on="0"/>
        <pt x="278" y="-109" on="1"/>
        <pt x="278" y="-119" on="1"/>
        <pt x="262" y="-119" on="1"/>
        <pt x="206" y="-121" on="0"/>
        <pt x="143" y="-128" on="1"/>
        <pt x="118" y="-130" on="1"/>
        <pt x="117" y="-130" on="0"/>
        <pt x="117" y="305" on="1"/>
        <pt x="117" y="740" on="1"/>
        <pt x="122" y="740" on="1"/>
        <pt x="141" y="737" on="0"/>
        <pt x="219" y="736" on="1"/>
        <pt x="278" y="736" on="1"/>
        <pt x="278" y="723" on="1"/>
        <pt x="278" y="711" on="0"/>
      </contour>
    </TTGlyph>
    <TTGlyph name="bracketright" xMin="-4" yMin="-131" xMax="160" yMax="738">
      <contour>
        <pt x="1" y="-103" on="1"/>
        <pt x="3" y="-102" on="0"/>
        <pt x="112" y="-92" on="0"/>
        <pt x="113" y="-92" on="1"/>
        <pt x="118" y="-92" on="1"/>
        <pt x="118" y="700" on="1"/>
        <pt x="64" y="703" on="1"/>
        <pt x="7" y="707" on="0"/>
        <pt x="3" y="708" on="1"/>
        <pt x="-4" y="708" on="1"/>
        <pt x="-4" y="732" on="1"/>
        <pt x="21" y="732" on="1"/>
        <pt x="34" y="733" on="0"/>
        <pt x="64" y="733" on="1"/>
        <pt x="82" y="733" on="0"/>
        <pt x="142" y="736" on="1"/>
        <pt x="156" y="738" on="0"/>
        <pt x="158" y="738" on="1"/>
        <pt x="160" y="738" on="1"/>
        <pt x="160" y="-131" on="1"/>
        <pt x="154" y="-131" on="1"/>
        <pt x="101" y="-125" on="0"/>
        <pt x="40" y="-124" on="1"/>
        <pt x="-4" y="-124" on="1"/>
        <pt x="-4" y="-103" on="1"/>
      </contour>
    </TTGlyph>
    <TTGlyph name="c" xMin="72" yMin="-29" xMax="358" yMax="466">
      <contour>
        <pt x="177" y="390" on="1"/>
        <pt x="154" y="350" on="0"/>
        <pt x="154" y="238" on="1"/>
        <pt x="154" y="220" on="0"/>
        <pt x="156" y="158" on="1"/>
        <pt x="156" y="145" on="1"/>
        <pt x="168" y="132" on="1"/>
        <pt x="179" y="121" on="0"/>
        <pt x="237" y="64" on="0"/>
        <pt x="244" y="59" on="1"/>
        <pt x="245" y="58" on="0"/>
        <pt x="255" y="61" on="1"/>
        <pt x="282" y="70" on="0"/>
        <pt x="332" y="99" on="1"/>
        <pt x="348" y="108" on="0"/>
        <pt x="350" y="108" on="1"/>
        <pt x="352" y="104" on="1"/>
        <pt x="355" y="100" on="0"/>
        <pt x="356" y="96" on="1"/>
        <pt x="358" y="92" on="1"/>
        <pt x="358" y="91" on="0"/>
        <pt x="200" y="-21" on="0"/>
        <pt x="187" y="-29" on="1"/>
        <pt x="177" y="-20" on="1"/>
        <pt x="160" y="-6" on="0"/>
        <pt x="79" y="78" on="0"/>
        <pt x="77" y="84" on="1"/>
        <pt x="76" y="89" on="1"/>
        <pt x="76" y="94" on="0"/>
        <pt x="74" y="110" on="0"/>
        <pt x="74" y="118" on="1"/>
        <pt x="72" y="158" on="0"/>
        <pt x="72" y="208" on="1"/>
        <pt x="72" y="264" on="0"/>
        <pt x="74" y="288" on="1"/>
        <pt x="78" y="343" on="0"/>
        <pt x="84" y="361" on="1"/>
        <pt x="84" y="363" on="0"/>
        <pt x="167" y="414" on="1"/>
        <pt x="248" y="466" on="0"/>
        <pt x="250" y="466" on="1"/>
        <pt x="255" y="465" on="0"/>
        <pt x="260" y="465" on="1"/>
        <pt x="292" y="458" on="0"/>
        <pt x="319" y="444" on="1"/>
        <pt x="357" y="423" on="0"/>
        <pt x="357" y="422" on="1"/>
        <pt x="345" y="404" on="0"/>
        <pt x="331" y="382" on="1"/>
        <pt x="306" y="343" on="1"/>
        <pt x="301" y="342" on="1"/>
        <pt x="296" y="340" on="1"/>
        <pt x="233" y="387" on="0"/>
        <pt x="186" y="389" on="1"/>
      </contour>
    </TTGlyph>
    <TTGlyph name="colon" xMin="50" yMin="-12" xMax="168" yMax="457">
      <contour>
        <pt x="50" y="400" on="1"/>
        <pt x="50" y="422" on="0"/>
        <pt x="77" y="457" on="0"/>
        <pt x="99" y="457" on="1"/>
        <pt x="127" y="457" on="0"/>
        <pt x="165" y="423" on="0"/>
        <pt x="165" y="375" on="0"/>
        <pt x="127" y="342" on="0"/>
        <pt x="102" y="342" on="1"/>
        <pt x="79" y="342" on="0"/>
        <pt x="50" y="375" on="0"/>
      </contour>
      <contour>
        <pt x="53" y="43" on="1"/>
        <pt x="53" y="68" on="0"/>
        <pt x="80" y="105" on="0"/>
        <pt x="103" y="105" on="1"/>
        <pt x="131" y="105" on="0"/>
        <pt x="168" y="67" on="0"/>
        <pt x="168" y="41" on="1"/>
        <pt x="168" y="19" on="0"/>
        <pt x="127" y="-12" on="0"/>
        <pt x="102" y="-12" on="1"/>
        <pt x="81" y="-12" on="0"/>
        <pt x="53" y="20" on="0"/>
      </contour>
    </TTGlyph>
    <TTGlyph name="comma" xMin="99" yMin="-191" xMax="213" yMax="107">
      <contour>
        <pt x="99" y="62" on="1"/>
        <pt x="99" y="93" on="0"/>
        <pt x="134" y="105" on="1"/>
        <pt x="142" y="107" on="0"/>
        <pt x="144" y="107" on="1"/>
        <pt x="148" y="107" on="0"/>
        <pt x="156" y="103" on="1"/>
        <pt x="165" y="97" on="0"/>
        <pt x="197" y="47" on="0"/>
        <pt x="213" y="5" on="0"/>
        <pt x="213" y="-23" on="1"/>
        <pt x="213" y="-44" on="0"/>
        <pt x="211" y="-51" on="1"/>
        <pt x="205" y="-75" on="0"/>
        <pt x="181" y="-113" on="1"/>
        <pt x="128" y="-189" on="0"/>
        <pt x="122" y="-191" on="1"/>
        <pt x="121" y="-191" on="0"/>
        <pt x="111" y="-176" on="0"/>
        <pt x="111" y="-174" on="1"/>
        <pt x="111" y="-171" on="0"/>
        <pt x="117" y="-163" on="1"/>
        <pt x="130" y="-143" on="0"/>
        <pt x="139" y="-122" on="1"/>
        <pt x="156" y="-87" on="0"/>
        <pt x="156" y="-62" on="1"/>
        <pt x="156" y="-44" on="0"/>
        <pt x="147" y="-24" on="0"/>
        <pt x="127" y="4" on="1"/>
        <pt x="116" y="19" on="0"/>
        <pt x="104" y="37" on="1"/>
        <pt x="99" y="49" on="0"/>
      </contour>
    </TTGlyph>
    <TTGlyph name="d" xMin="13" yMin="-33" xMax="428" yMax="609">
      <contour>
        <pt x="27" y="527" on="1"/>
        <pt x="14" y="540" on="0"/>
        <pt x="13" y="542" on="1"/>
        <pt x="13" y="544" on="0"/>
        <pt x="116" y="596" on="1"/>
        <pt x="144" y="609" on="0"/>
        <pt x="147" y="609" on="1"/>
        <pt x="148" y="609" on="1"/>
        <pt x="187" y="599" on="0"/>
        <pt x="227" y="580" on="1"/>
        <pt x="318" y="540" on="0"/>
        <pt x="414" y="464" on="1"/>
        <pt x="427" y="454" on="1"/>
        <pt x="427" y="440" on="1"/>
        <pt x="427" y="436" on="0"/>
        <pt x="428" y="388" on="0"/>
        <pt x="428" y="372" on="1"/>
        <pt x="428" y="191" on="0"/>
        <pt x="396" y="110" on="1"/>
        <pt x="394" y="103" on="1"/>
        <pt x="304" y="35" on="1"/>
        <pt x="285" y="21" on="0"/>
        <pt x="236" y="-17" on="0"/>
        <pt x="225" y="-25" on="1"/>
        <pt x="214" y="-33" on="1"/>
        <pt x="209" y="-33" on="0"/>
        <pt x="158" y="6" on="1"/>
        <pt x="126" y="30" on="0"/>
        <pt x="97" y="59" on="1"/>
        <pt x="76" y="80" on="1"/>
        <pt x="75" y="91" on="1"/>
        <pt x="75" y="171" on="1"/>
        <pt x="75" y="253" on="0"/>
        <pt x="79" y="297" on="1"/>
        <pt x="80" y="316" on="0"/>
        <pt x="78" y="321" on="1"/>
        <pt x="78" y="323" on="0"/>
        <pt x="78" y="326" on="1"/>
        <pt x="77" y="330" on="1"/>
        <pt x="78" y="334" on="0"/>
        <pt x="114" y="367" on="1"/>
        <pt x="176" y="426" on="0"/>
        <pt x="211" y="447" on="1"/>
        <pt x="219" y="445" on="1"/>
        <pt x="221" y="445" on="0"/>
        <pt x="224" y="444" on="1"/>
        <pt x="228" y="443" on="1"/>
        <pt x="229" y="443" on="0"/>
        <pt x="223" y="435" on="1"/>
        <pt x="219" y="431" on="0"/>
        <pt x="191" y="395" on="1"/>
        <pt x="175" y="378" on="0"/>
        <pt x="162" y="339" on="1"/>
        <pt x="152" y="306" on="0"/>
        <pt x="152" y="250" on="1"/>
        <pt x="152" y="201" on="0"/>
        <pt x="159" y="140" on="1"/>
        <pt x="159" y="134" on="1"/>
        <pt x="171" y="121" on="1"/>
        <pt x="200" y="94" on="0"/>
        <pt x="246" y="67" on="1"/>
        <pt x="279" y="48" on="0"/>
        <pt x="284" y="48" on="1"/>
        <pt x="294" y="48" on="0"/>
        <pt x="306" y="70" on="1"/>
        <pt x="349" y="146" on="0"/>
        <pt x="349" y="267" on="1"/>
        <pt x="349" y="350" on="0"/>
        <pt x="336" y="400" on="1"/>
        <pt x="315" y="420" on="1"/>
        <pt x="246" y="489" on="0"/>
        <pt x="176" y="525" on="1"/>
        <pt x="130" y="545" on="0"/>
        <pt x="94" y="545" on="1"/>
        <pt x="73" y="545" on="1"/>
        <pt x="66" y="542" on="0"/>
        <pt x="34" y="530" on="0"/>
      </contour>
    </TTGlyph>
    <TTGlyph name="e" xMin="70" yMin="-30" xMax="364" yMax="467">
      <contour>
        <pt x="353" y="103" on="1"/>
        <pt x="353" y="101" on="0"/>
        <pt x="358" y="88" on="0"/>
        <pt x="358" y="87" on="1"/>
        <pt x="337" y="71" on="1"/>
        <pt x="293" y="38" on="0"/>
        <pt x="247" y="6" on="1"/>
        <pt x="191" y="-30" on="0"/>
        <pt x="189" y="-30" on="1"/>
        <pt x="188" y="-30" on="0"/>
        <pt x="167" y="-10" on="0"/>
        <pt x="137" y="19" on="0"/>
        <pt x="127" y="29" on="1"/>
        <pt x="103" y="53" on="0"/>
        <pt x="76" y="85" on="1"/>
        <pt x="74" y="99" on="1"/>
        <pt x="70" y="139" on="0"/>
        <pt x="70" y="190" on="1"/>
        <pt x="70" y="256" on="0"/>
        <pt x="77" y="312" on="1"/>
        <pt x="81" y="358" on="0"/>
        <pt x="84" y="365" on="1"/>
        <pt x="94" y="372" on="1"/>
        <pt x="105" y="378" on="0"/>
        <pt x="148" y="406" on="0"/>
        <pt x="166" y="417" on="1"/>
        <pt x="246" y="467" on="1"/>
        <pt x="284" y="417" on="0"/>
        <pt x="349" y="369" on="1"/>
        <pt x="364" y="358" on="1"/>
        <pt x="355" y="349" on="1"/>
        <pt x="249" y="249" on="0"/>
        <pt x="169" y="180" on="1"/>
        <pt x="151" y="166" on="1"/>
        <pt x="152" y="152" on="1"/>
        <pt x="152" y="139" on="1"/>
        <pt x="165" y="126" on="1"/>
        <pt x="198" y="93" on="0"/>
        <pt x="242" y="67" on="1"/>
        <pt x="252" y="62" on="0"/>
        <pt x="260" y="62" on="1"/>
        <pt x="265" y="62" on="0"/>
        <pt x="312" y="83" on="0"/>
        <pt x="332" y="93" on="1"/>
      </contour>
      <contour>
        <pt x="179" y="393" on="1"/>
        <pt x="175" y="397" on="0"/>
        <pt x="174" y="397" on="1"/>
        <pt x="171" y="395" on="0"/>
        <pt x="169" y="393" on="1"/>
        <pt x="149" y="373" on="0"/>
        <pt x="149" y="219" on="1"/>
        <pt x="149" y="211" on="1"/>
        <pt x="152" y="211" on="0"/>
        <pt x="186" y="234" on="1"/>
        <pt x="235" y="266" on="0"/>
        <pt x="268" y="299" on="1"/>
        <pt x="282" y="313" on="1"/>
        <pt x="267" y="323" on="1"/>
        <pt x="244" y="338" on="0"/>
        <pt x="219" y="358" on="1"/>
        <pt x="213" y="363" on="0"/>
        <pt x="181" y="391" on="0"/>
      </contour>
    </TTGlyph>
    <TTGlyph name="eight" xMin="40" yMin="-10" xMax="461" yMax="705">
      <contour>
        <pt x="238" y="698" on="1"/>
        <pt x="254" y="705" on="1"/>
        <pt x="262" y="704" on="1"/>
        <pt x="283" y="704" on="0"/>
        <pt x="313" y="697" on="1"/>
        <pt x="374" y="684" on="0"/>
        <pt x="402" y="656" on="1"/>
        <pt x="434" y="619" on="0"/>
        <pt x="434" y="568" on="1"/>
        <pt x="434" y="549" on="0"/>
        <pt x="433" y="543" on="1"/>
        <pt x="415" y="463" on="0"/>
        <pt x="321" y="402" on="1"/>
        <pt x="305" y="391" on="1"/>
        <pt x="319" y="380" on="0"/>
        <pt x="336" y="368" on="1"/>
        <pt x="405" y="319" on="0"/>
        <pt x="423" y="298" on="1"/>
        <pt x="461" y="254" on="0"/>
        <pt x="461" y="195" on="1"/>
        <pt x="461" y="111" on="0"/>
        <pt x="396" y="54" on="1"/>
        <pt x="335" y="4" on="0"/>
        <pt x="256" y="-8" on="1"/>
        <pt x="240" y="-10" on="0"/>
        <pt x="220" y="-10" on="1"/>
        <pt x="101" y="-10" on="0"/>
        <pt x="57" y="78" on="1"/>
        <pt x="40" y="117" on="0"/>
        <pt x="40" y="157" on="1"/>
        <pt x="40" y="223" on="0"/>
        <pt x="77" y="266" on="1"/>
        <pt x="109" y="301" on="0"/>
        <pt x="186" y="346" on="1"/>
        <pt x="206" y="358" on="0"/>
        <pt x="225" y="375" on="1"/>
        <pt x="247" y="393" on="0"/>
        <pt x="247" y="394" on="1"/>
        <pt x="206" y="361" on="1"/>
        <pt x="204" y="359" on="0"/>
        <pt x="162" y="392" on="0"/>
        <pt x="148" y="407" on="1"/>
        <pt x="103" y="452" on="0"/>
        <pt x="92" y="503" on="1"/>
        <pt x="90" y="511" on="0"/>
        <pt x="90" y="531" on="1"/>
        <pt x="90" y="580" on="0"/>
        <pt x="114" y="615" on="1"/>
        <pt x="146" y="660" on="0"/>
      </contour>
      <contour>
        <pt x="350" y="545" on="1"/>
        <pt x="350" y="636" on="0"/>
        <pt x="254" y="651" on="1"/>
        <pt x="244" y="653" on="0"/>
        <pt x="234" y="653" on="1"/>
        <pt x="224" y="654" on="1"/>
        <pt x="204" y="639" on="1"/>
        <pt x="186" y="626" on="0"/>
        <pt x="174" y="613" on="0"/>
        <pt x="168" y="597" on="1"/>
        <pt x="165" y="585" on="0"/>
        <pt x="165" y="567" on="1"/>
        <pt x="165" y="550" on="0"/>
        <pt x="168" y="540" on="1"/>
        <pt x="183" y="483" on="0"/>
        <pt x="261" y="424" on="1"/>
        <pt x="273" y="415" on="1"/>
        <pt x="325" y="451" on="0"/>
        <pt x="342" y="500" on="1"/>
        <pt x="350" y="522" on="0"/>
      </contour>
      <contour>
        <pt x="261" y="405" on="1"/>
        <pt x="263" y="407" on="1"/>
        <pt x="262" y="407" on="0"/>
      </contour>
      <contour>
        <pt x="258" y="403" on="1"/>
        <pt x="257" y="403" on="0"/>
        <pt x="255" y="401" on="1"/>
        <pt x="254" y="399" on="1"/>
        <pt x="256" y="400" on="1"/>
        <pt x="258" y="402" on="0"/>
      </contour>
      <contour>
        <pt x="252" y="398" on="1"/>
        <pt x="251" y="398" on="0"/>
        <pt x="249" y="396" on="1"/>
        <pt x="248" y="394" on="1"/>
        <pt x="250" y="395" on="1"/>
        <pt x="252" y="397" on="0"/>
      </contour>
      <contour>
        <pt x="267" y="313" on="1"/>
        <pt x="259" y="318" on="0"/>
        <pt x="239" y="329" on="0"/>
        <pt x="235" y="332" on="1"/>
        <pt x="227" y="327" on="1"/>
        <pt x="171" y="297" on="0"/>
        <pt x="148" y="265" on="1"/>
        <pt x="123" y="231" on="0"/>
        <pt x="123" y="177" on="1"/>
        <pt x="123" y="137" on="0"/>
        <pt x="155" y="69" on="0"/>
        <pt x="180" y="53" on="1"/>
        <pt x="208" y="36" on="0"/>
        <pt x="245" y="36" on="1"/>
        <pt x="328" y="36" on="0"/>
        <pt x="358" y="98" on="1"/>
        <pt x="374" y="130" on="0"/>
        <pt x="374" y="168" on="1"/>
        <pt x="374" y="209" on="0"/>
        <pt x="341" y="255" on="1"/>
        <pt x="316" y="285" on="0"/>
      </contour>
    </TTGlyph>
    <TTGlyph name="equal" xMin="54" yMin="132" xMax="725" yMax="368">
      <contour>
        <pt x="725" y="366" on="1"/>
        <pt x="724" y="365" on="0"/>
        <pt x="720" y="348" on="1"/>
        <pt x="716" y="331" on="1"/>
        <pt x="716" y="329" on="1"/>
        <pt x="385" y="329" on="1"/>
        <pt x="54" y="329" on="0"/>
        <pt x="54" y="331" on="1"/>
        <pt x="55" y="332" on="0"/>
        <pt x="63" y="367" on="0"/>
        <pt x="63" y="368" on="1"/>
        <pt x="394" y="368" on="1"/>
        <pt x="725" y="368" on="0"/>
      </contour>
      <contour>
        <pt x="725" y="169" on="1"/>
        <pt x="724" y="168" on="0"/>
        <pt x="720" y="151" on="1"/>
        <pt x="716" y="134" on="1"/>
        <pt x="716" y="132" on="1"/>
        <pt x="385" y="132" on="1"/>
        <pt x="54" y="132" on="0"/>
        <pt x="54" y="134" on="1"/>
        <pt x="55" y="135" on="0"/>
        <pt x="63" y="170" on="0"/>
        <pt x="63" y="171" on="1"/>
        <pt x="394" y="171" on="1"/>
        <pt x="725" y="171" on="0"/>
      </contour>
    </TTGlyph>
    <TTGlyph name="exclam" xMin="91" yMin="-12" xMax="204" yMax="689">
      <contour>
        <pt x="102" y="620" on="1"/>
        <pt x="102" y="657" on="0"/>
        <pt x="122" y="689" on="0"/>
        <pt x="152" y="689" on="1"/>
        <pt x="190" y="689" on="0"/>
        <pt x="190" y="638" on="1"/>
        <pt x="190" y="614" on="0"/>
        <pt x="187" y="583" on="1"/>
        <pt x="185" y="561" on="0"/>
        <pt x="167" y="373" on="1"/>
        <pt x="148" y="187" on="1"/>
        <pt x="142" y="184" on="0"/>
        <pt x="133" y="184" on="1"/>
        <pt x="132" y="185" on="0"/>
        <pt x="104" y="580" on="0"/>
        <pt x="103" y="599" on="1"/>
        <pt x="103" y="603" on="0"/>
        <pt x="102" y="617" on="0"/>
      </contour>
      <contour>
        <pt x="91" y="48" on="1"/>
        <pt x="91" y="71" on="0"/>
        <pt x="124" y="104" on="0"/>
        <pt x="148" y="104" on="1"/>
        <pt x="171" y="104" on="0"/>
        <pt x="204" y="71" on="0"/>
        <pt x="204" y="48" on="1"/>
        <pt x="204" y="23" on="0"/>
        <pt x="171" y="-12" on="0"/>
        <pt x="149" y="-12" on="1"/>
        <pt x="125" y="-12" on="0"/>
        <pt x="91" y="24" on="0"/>
      </contour>
    </TTGlyph>
    <TTGlyph name="f" xMin="30" yMin="-221" xMax="323" yMax="681">
      <contour>
        <pt x="87" y="-216" on="1"/>
        <pt x="124" y="-84" on="0"/>
        <pt x="124" y="-82" on="1"/>
        <pt x="125" y="-80" on="0"/>
        <pt x="127" y="-59" on="1"/>
        <pt x="128" y="-46" on="0"/>
        <pt x="129" y="155" on="1"/>
        <pt x="129" y="351" on="1"/>
        <pt x="30" y="351" on="1"/>
        <pt x="52" y="375" on="0"/>
        <pt x="64" y="386" on="1"/>
        <pt x="96" y="386" on="1"/>
        <pt x="128" y="386" on="0"/>
        <pt x="128" y="387" on="1"/>
        <pt x="117" y="435" on="1"/>
        <pt x="95" y="517" on="0"/>
        <pt x="92" y="546" on="1"/>
        <pt x="92" y="555" on="1"/>
        <pt x="101" y="568" on="1"/>
        <pt x="133" y="617" on="0"/>
        <pt x="183" y="670" on="1"/>
        <pt x="193" y="681" on="1"/>
        <pt x="204" y="673" on="1"/>
        <pt x="238" y="648" on="0"/>
        <pt x="262" y="648" on="1"/>
        <pt x="276" y="648" on="0"/>
        <pt x="292" y="656" on="1"/>
        <pt x="302" y="661" on="1"/>
        <pt x="302" y="660" on="0"/>
        <pt x="305" y="657" on="0"/>
        <pt x="306" y="655" on="1"/>
        <pt x="308" y="653" on="1"/>
        <pt x="308" y="652" on="0"/>
        <pt x="278" y="618" on="1"/>
        <pt x="249" y="585" on="1"/>
        <pt x="234" y="585" on="1"/>
        <pt x="194" y="587" on="0"/>
        <pt x="159" y="595" on="1"/>
        <pt x="158" y="595" on="0"/>
        <pt x="156" y="596" on="1"/>
        <pt x="153" y="596" on="1"/>
        <pt x="150" y="597" on="1"/>
        <pt x="158" y="536" on="0"/>
        <pt x="176" y="494" on="1"/>
        <pt x="199" y="436" on="0"/>
        <pt x="203" y="400" on="1"/>
        <pt x="203" y="392" on="1"/>
        <pt x="207" y="392" on="1"/>
        <pt x="323" y="386" on="1"/>
        <pt x="323" y="384" on="0"/>
        <pt x="309" y="368" on="1"/>
        <pt x="296" y="351" on="1"/>
        <pt x="203" y="351" on="1"/>
        <pt x="203" y="176" on="1"/>
        <pt x="202" y="-2" on="0"/>
        <pt x="201" y="-12" on="1"/>
        <pt x="196" y="-42" on="0"/>
        <pt x="193" y="-56" on="1"/>
        <pt x="190" y="-69" on="0"/>
        <pt x="115" y="-210" on="0"/>
        <pt x="114" y="-214" on="1"/>
        <pt x="110" y="-221" on="1"/>
        <pt x="105" y="-221" on="0"/>
        <pt x="98" y="-220" on="1"/>
        <pt x="87" y="-219" on="1"/>
      </contour>
    </TTGlyph>
    <TTGlyph name="five" xMin="47" yMin="-184" xMax="440" yMax="458">
      <contour>
        <pt x="334" y="25" on="1"/>
        <pt x="334" y="90" on="0"/>
        <pt x="268" y="169" on="0"/>
        <pt x="207" y="169" on="1"/>
        <pt x="154" y="169" on="0"/>
        <pt x="107" y="123" on="1"/>
        <pt x="98" y="114" on="1"/>
        <pt x="89" y="120" on="1"/>
        <pt x="80" y="125" on="1"/>
        <pt x="80" y="458" on="1"/>
        <pt x="420" y="458" on="1"/>
        <pt x="420" y="456" on="0"/>
        <pt x="409" y="418" on="1"/>
        <pt x="397" y="379" on="1"/>
        <pt x="397" y="378" on="0"/>
        <pt x="264" y="378" on="1"/>
        <pt x="131" y="378" on="1"/>
        <pt x="124" y="373" on="0"/>
        <pt x="122" y="370" on="1"/>
        <pt x="121" y="369" on="0"/>
        <pt x="121" y="279" on="1"/>
        <pt x="121" y="190" on="1"/>
        <pt x="124" y="188" on="0"/>
        <pt x="130" y="186" on="1"/>
        <pt x="140" y="190" on="1"/>
        <pt x="196" y="214" on="0"/>
        <pt x="260" y="214" on="1"/>
        <pt x="330" y="214" on="0"/>
        <pt x="375" y="182" on="1"/>
        <pt x="440" y="128" on="0"/>
        <pt x="440" y="42" on="1"/>
        <pt x="440" y="-51" on="0"/>
        <pt x="376" y="-112" on="1"/>
        <pt x="299" y="-184" on="0"/>
        <pt x="163" y="-184" on="1"/>
        <pt x="112" y="-184" on="0"/>
        <pt x="57" y="-163" on="1"/>
        <pt x="47" y="-159" on="1"/>
        <pt x="53" y="-147" on="1"/>
        <pt x="58" y="-134" on="1"/>
        <pt x="60" y="-134" on="1"/>
        <pt x="62" y="-135" on="0"/>
        <pt x="69" y="-137" on="0"/>
        <pt x="72" y="-138" on="1"/>
        <pt x="117" y="-153" on="0"/>
        <pt x="156" y="-153" on="1"/>
        <pt x="244" y="-153" on="0"/>
        <pt x="292" y="-95" on="1"/>
        <pt x="334" y="-44" on="0"/>
      </contour>
    </TTGlyph>
    <TTGlyph name="four" xMin="10" yMin="-191" xMax="481" yMax="476">
      <contour>
        <pt x="311" y="-191" on="1"/>
        <pt x="299" y="-179" on="1"/>
        <pt x="302" y="-171" on="0"/>
        <pt x="304" y="-114" on="1"/>
        <pt x="304" y="-110" on="0"/>
        <pt x="305" y="-89" on="0"/>
        <pt x="306" y="-58" on="0"/>
        <pt x="306" y="-48" on="1"/>
        <pt x="306" y="0" on="1"/>
        <pt x="11" y="0" on="1"/>
        <pt x="11" y="7" on="1"/>
        <pt x="10" y="10" on="0"/>
        <pt x="10" y="18" on="1"/>
        <pt x="10" y="23" on="0"/>
        <pt x="154" y="236" on="1"/>
        <pt x="298" y="449" on="1"/>
        <pt x="379" y="476" on="1"/>
        <pt x="384" y="471" on="0"/>
        <pt x="384" y="470" on="1"/>
        <pt x="384" y="466" on="1"/>
        <pt x="384" y="463" on="0"/>
        <pt x="384" y="451" on="0"/>
        <pt x="383" y="437" on="0"/>
        <pt x="383" y="417" on="0"/>
        <pt x="383" y="408" on="1"/>
        <pt x="381" y="328" on="0"/>
        <pt x="381" y="248" on="1"/>
        <pt x="381" y="46" on="0"/>
        <pt x="384" y="40" on="1"/>
        <pt x="387" y="40" on="1"/>
        <pt x="422" y="40" on="0"/>
        <pt x="460" y="44" on="1"/>
        <pt x="465" y="44" on="0"/>
        <pt x="475" y="44" on="0"/>
        <pt x="478" y="44" on="1"/>
        <pt x="481" y="45" on="1"/>
        <pt x="481" y="43" on="0"/>
        <pt x="474" y="4" on="0"/>
        <pt x="473" y="1" on="1"/>
        <pt x="473" y="-1" on="0"/>
        <pt x="464" y="-1" on="1"/>
        <pt x="462" y="-1" on="0"/>
        <pt x="440" y="0" on="0"/>
        <pt x="430" y="0" on="1"/>
        <pt x="387" y="0" on="1"/>
        <pt x="387" y="-76" on="1"/>
        <pt x="389" y="-156" on="1"/>
        <pt x="389" y="-161" on="1"/>
      </contour>
      <contour>
        <pt x="299" y="364" on="1"/>
        <pt x="287" y="364" on="1"/>
        <pt x="277" y="352" on="1"/>
        <pt x="199" y="253" on="0"/>
        <pt x="122" y="120" on="1"/>
        <pt x="87" y="62" on="0"/>
        <pt x="79" y="43" on="1"/>
        <pt x="79" y="42" on="0"/>
        <pt x="192" y="42" on="1"/>
        <pt x="306" y="42" on="1"/>
        <pt x="306" y="115" on="1"/>
        <pt x="306" y="300" on="0"/>
        <pt x="299" y="359" on="1"/>
      </contour>
    </TTGlyph>
    <TTGlyph name="g" xMin="17" yMin="-209" xMax="455" yMax="470">
      <contour>
        <pt x="17" y="-131" on="1"/>
        <pt x="146" y="-20" on="1"/>
        <pt x="143" y="-15" on="0"/>
        <pt x="97" y="41" on="0"/>
        <pt x="92" y="48" on="1"/>
        <pt x="78" y="65" on="1"/>
        <pt x="77" y="79" on="1"/>
        <pt x="75" y="103" on="0"/>
        <pt x="75" y="158" on="1"/>
        <pt x="75" y="257" on="0"/>
        <pt x="85" y="334" on="1"/>
        <pt x="89" y="366" on="0"/>
        <pt x="91" y="368" on="1"/>
        <pt x="96" y="376" on="0"/>
        <pt x="176" y="425" on="1"/>
        <pt x="187" y="432" on="0"/>
        <pt x="222" y="452" on="1"/>
        <pt x="240" y="465" on="0"/>
        <pt x="249" y="469" on="1"/>
        <pt x="251" y="470" on="1"/>
        <pt x="293" y="444" on="0"/>
        <pt x="350" y="428" on="1"/>
        <pt x="365" y="424" on="1"/>
        <pt x="389" y="437" on="0"/>
        <pt x="437" y="465" on="1"/>
        <pt x="437" y="464" on="0"/>
        <pt x="440" y="462" on="1"/>
        <pt x="442" y="459" on="1"/>
        <pt x="442" y="458" on="1"/>
        <pt x="441" y="456" on="0"/>
        <pt x="439" y="451" on="0"/>
        <pt x="439" y="449" on="1"/>
        <pt x="421" y="405" on="0"/>
        <pt x="421" y="215" on="1"/>
        <pt x="421" y="133" on="1"/>
        <pt x="423" y="119" on="1"/>
        <pt x="447" y="17" on="1"/>
        <pt x="455" y="-17" on="1"/>
        <pt x="455" y="-19" on="0"/>
        <pt x="386" y="-102" on="0"/>
        <pt x="367" y="-123" on="1"/>
        <pt x="304" y="-195" on="0"/>
        <pt x="290" y="-201" on="1"/>
        <pt x="290" y="-204" on="0"/>
        <pt x="259" y="-209" on="0"/>
        <pt x="252" y="-209" on="1"/>
        <pt x="247" y="-209" on="0"/>
        <pt x="231" y="-207" on="1"/>
        <pt x="156" y="-196" on="0"/>
        <pt x="75" y="-135" on="1"/>
        <pt x="62" y="-126" on="1"/>
        <pt x="27" y="-144" on="1"/>
      </contour>
      <contour>
        <pt x="328" y="354" on="1"/>
        <pt x="257" y="363" on="0"/>
        <pt x="178" y="389" on="1"/>
        <pt x="158" y="336" on="0"/>
        <pt x="156" y="296" on="1"/>
        <pt x="155" y="287" on="0"/>
        <pt x="155" y="259" on="1"/>
        <pt x="155" y="195" on="0"/>
        <pt x="159" y="135" on="1"/>
        <pt x="160" y="124" on="1"/>
        <pt x="170" y="112" on="1"/>
        <pt x="180" y="101" on="0"/>
        <pt x="228" y="53" on="0"/>
        <pt x="230" y="53" on="1"/>
        <pt x="231" y="53" on="0"/>
        <pt x="286" y="88" on="1"/>
        <pt x="340" y="123" on="1"/>
        <pt x="340" y="141" on="1"/>
        <pt x="340" y="235" on="0"/>
        <pt x="348" y="329" on="1"/>
        <pt x="348" y="334" on="0"/>
        <pt x="348" y="345" on="0"/>
        <pt x="348" y="348" on="1"/>
        <pt x="349" y="351" on="1"/>
        <pt x="344" y="351" on="0"/>
      </contour>
      <contour>
        <pt x="293" y="-134" on="1"/>
        <pt x="327" y="-134" on="0"/>
        <pt x="364" y="-100" on="0"/>
        <pt x="364" y="-69" on="1"/>
        <pt x="364" y="-59" on="1"/>
        <pt x="364" y="-26" on="0"/>
        <pt x="347" y="63" on="1"/>
        <pt x="341" y="87" on="0"/>
        <pt x="341" y="93" on="1"/>
        <pt x="339" y="93" on="0"/>
        <pt x="277" y="47" on="1"/>
        <pt x="208" y="-6" on="0"/>
        <pt x="152" y="-54" on="1"/>
        <pt x="149" y="-57" on="1"/>
        <pt x="226" y="-134" on="0"/>
      </contour>
    </TTGlyph>
    <TTGlyph name="h" xMin="77" yMin="-205" xMax="434" yMax="688">
      <contour>
        <pt x="213" y="50" on="1"/>
        <pt x="209" y="45" on="0"/>
        <pt x="134" y="-24" on="0"/>
        <pt x="131" y="-24" on="1"/>
        <pt x="130" y="-24" on="0"/>
        <pt x="117" y="-1" on="1"/>
        <pt x="99" y="31" on="0"/>
        <pt x="77" y="65" on="1"/>
        <pt x="77" y="78" on="1"/>
        <pt x="78" y="85" on="0"/>
        <pt x="80" y="130" on="1"/>
        <pt x="88" y="296" on="0"/>
        <pt x="88" y="427" on="1"/>
        <pt x="88" y="526" on="0"/>
        <pt x="83" y="639" on="1"/>
        <pt x="83" y="643" on="0"/>
        <pt x="82" y="656" on="0"/>
        <pt x="81" y="665" on="0"/>
        <pt x="81" y="667" on="1"/>
        <pt x="81" y="673" on="0"/>
        <pt x="83" y="674" on="0"/>
        <pt x="89" y="676" on="1"/>
        <pt x="94" y="676" on="1"/>
        <pt x="110" y="626" on="0"/>
        <pt x="117" y="600" on="1"/>
        <pt x="140" y="617" on="1"/>
        <pt x="172" y="641" on="0"/>
        <pt x="200" y="661" on="1"/>
        <pt x="208" y="667" on="0"/>
        <pt x="228" y="681" on="0"/>
        <pt x="233" y="684" on="1"/>
        <pt x="238" y="688" on="1"/>
        <pt x="254" y="678" on="1"/>
        <pt x="253" y="677" on="0"/>
        <pt x="218" y="641" on="0"/>
        <pt x="216" y="637" on="1"/>
        <pt x="180" y="592" on="0"/>
        <pt x="169" y="543" on="1"/>
        <pt x="164" y="524" on="0"/>
        <pt x="164" y="442" on="1"/>
        <pt x="164" y="371" on="1"/>
        <pt x="184" y="387" on="1"/>
        <pt x="190" y="391" on="0"/>
        <pt x="249" y="434" on="0"/>
        <pt x="303" y="473" on="0"/>
        <pt x="312" y="478" on="1"/>
        <pt x="344" y="446" on="0"/>
        <pt x="411" y="423" on="1"/>
        <pt x="428" y="417" on="1"/>
        <pt x="429" y="396" on="1"/>
        <pt x="434" y="297" on="0"/>
        <pt x="434" y="218" on="1"/>
        <pt x="433" y="127" on="0"/>
        <pt x="426" y="68" on="1"/>
        <pt x="417" y="-14" on="0"/>
        <pt x="406" y="-34" on="1"/>
        <pt x="348" y="-109" on="0"/>
        <pt x="262" y="-195" on="1"/>
        <pt x="251" y="-205" on="1"/>
        <pt x="249" y="-203" on="1"/>
        <pt x="248" y="-203" on="0"/>
        <pt x="239" y="-195" on="0"/>
        <pt x="236" y="-193" on="1"/>
        <pt x="226" y="-183" on="0"/>
        <pt x="227" y="-182" on="1"/>
        <pt x="228" y="-182" on="0"/>
        <pt x="264" y="-153" on="0"/>
        <pt x="300" y="-122" on="0"/>
        <pt x="301" y="-121" on="1"/>
        <pt x="330" y="-89" on="0"/>
        <pt x="340" y="-22" on="1"/>
        <pt x="355" y="60" on="0"/>
        <pt x="355" y="171" on="1"/>
        <pt x="355" y="215" on="0"/>
        <pt x="352" y="257" on="1"/>
        <pt x="345" y="353" on="0"/>
        <pt x="344" y="354" on="1"/>
        <pt x="296" y="390" on="0"/>
        <pt x="260" y="390" on="1"/>
        <pt x="256" y="390" on="0"/>
        <pt x="248" y="388" on="1"/>
        <pt x="228" y="382" on="0"/>
        <pt x="179" y="350" on="1"/>
        <pt x="164" y="341" on="1"/>
        <pt x="164" y="121" on="1"/>
        <pt x="187" y="85" on="0"/>
        <pt x="201" y="66" on="1"/>
      </contour>
    </TTGlyph>
    <TTGlyph name="hyphen" xMin="46" yMin="236" xMax="706" yMax="275">
      <contour>
        <pt x="62" y="274" on="1"/>
        <pt x="62" y="275" on="0"/>
        <pt x="384" y="275" on="1"/>
        <pt x="706" y="275" on="1"/>
        <pt x="699" y="255" on="1"/>
        <pt x="693" y="236" on="1"/>
        <pt x="46" y="236" on="1"/>
        <pt x="55" y="258" on="0"/>
        <pt x="56" y="259" on="1"/>
        <pt x="57" y="262" on="0"/>
        <pt x="60" y="269" on="0"/>
        <pt x="61" y="272" on="1"/>
      </contour>
    </TTGlyph>
    <TTGlyph name="i" xMin="14" yMin="-20" xMax="267" yMax="673">
      <contour>
        <pt x="72" y="617" on="1"/>
        <pt x="116" y="658" on="0"/>
        <pt x="124" y="665" on="1"/>
        <pt x="132" y="673" on="0"/>
        <pt x="133" y="673" on="1"/>
        <pt x="134" y="673" on="1"/>
        <pt x="134" y="672" on="0"/>
        <pt x="149" y="655" on="1"/>
        <pt x="165" y="637" on="0"/>
        <pt x="175" y="627" on="1"/>
        <pt x="187" y="615" on="1"/>
        <pt x="130" y="555" on="1"/>
        <pt x="116" y="568" on="1"/>
        <pt x="75" y="612" on="0"/>
        <pt x="73" y="615" on="1"/>
        <pt x="73" y="616" on="0"/>
        <pt x="72" y="616" on="0"/>
      </contour>
      <contour>
        <pt x="27" y="369" on="1"/>
        <pt x="21" y="376" on="0"/>
        <pt x="14" y="382" on="1"/>
        <pt x="26" y="392" on="1"/>
        <pt x="65" y="424" on="0"/>
        <pt x="119" y="474" on="1"/>
        <pt x="154" y="439" on="0"/>
        <pt x="169" y="427" on="1"/>
        <pt x="179" y="420" on="1"/>
        <pt x="176" y="395" on="1"/>
        <pt x="166" y="304" on="0"/>
        <pt x="166" y="227" on="1"/>
        <pt x="166" y="171" on="0"/>
        <pt x="174" y="139" on="1"/>
        <pt x="179" y="113" on="0"/>
        <pt x="190" y="97" on="1"/>
        <pt x="200" y="79" on="0"/>
        <pt x="208" y="75" on="1"/>
        <pt x="210" y="75" on="0"/>
        <pt x="213" y="78" on="1"/>
        <pt x="217" y="81" on="0"/>
        <pt x="259" y="100" on="0"/>
        <pt x="261" y="100" on="1"/>
        <pt x="262" y="100" on="0"/>
        <pt x="267" y="84" on="0"/>
        <pt x="267" y="83" on="1"/>
        <pt x="267" y="78" on="0"/>
        <pt x="190" y="15" on="1"/>
        <pt x="150" y="-20" on="0"/>
        <pt x="145" y="-20" on="1"/>
        <pt x="143" y="-20" on="0"/>
        <pt x="118" y="17" on="1"/>
        <pt x="91" y="55" on="1"/>
        <pt x="98" y="117" on="0"/>
        <pt x="98" y="193" on="1"/>
        <pt x="98" y="268" on="0"/>
        <pt x="91" y="347" on="1"/>
        <pt x="90" y="363" on="0"/>
        <pt x="88" y="369" on="1"/>
        <pt x="71" y="390" on="0"/>
        <pt x="68" y="390" on="1"/>
        <pt x="63" y="390" on="0"/>
        <pt x="39" y="376" on="1"/>
      </contour>
    </TTGlyph>
    <TTGlyph name="j" xMin="-9" yMin="-208" xMax="196" yMax="672">
      <contour>
        <pt x="101" y="644" on="1"/>
        <pt x="132" y="672" on="1"/>
        <pt x="138" y="665" on="0"/>
        <pt x="145" y="657" on="1"/>
        <pt x="155" y="642" on="0"/>
        <pt x="169" y="628" on="1"/>
        <pt x="182" y="614" on="1"/>
        <pt x="169" y="600" on="1"/>
        <pt x="148" y="579" on="0"/>
        <pt x="140" y="570" on="1"/>
        <pt x="125" y="555" on="1"/>
        <pt x="112" y="568" on="1"/>
        <pt x="109" y="570" on="0"/>
        <pt x="86" y="597" on="1"/>
        <pt x="83" y="600" on="0"/>
        <pt x="76" y="609" on="0"/>
        <pt x="72" y="614" on="0"/>
        <pt x="72" y="615" on="1"/>
        <pt x="72" y="617" on="0"/>
      </contour>
      <contour>
        <pt x="26" y="381" on="1"/>
        <pt x="28" y="381" on="0"/>
        <pt x="130" y="474" on="1"/>
        <pt x="132" y="472" on="0"/>
        <pt x="174" y="437" on="0"/>
        <pt x="186" y="428" on="1"/>
        <pt x="195" y="422" on="1"/>
        <pt x="196" y="376" on="1"/>
        <pt x="196" y="119" on="0"/>
        <pt x="189" y="18" on="1"/>
        <pt x="186" y="-17" on="0"/>
        <pt x="174" y="-35" on="1"/>
        <pt x="172" y="-39" on="0"/>
        <pt x="36" y="-190" on="0"/>
        <pt x="19" y="-208" on="1"/>
        <pt x="-9" y="-186" on="0"/>
        <pt x="-9" y="-183" on="1"/>
        <pt x="-9" y="-182" on="0"/>
        <pt x="-6" y="-181" on="1"/>
        <pt x="13" y="-168" on="0"/>
        <pt x="71" y="-117" on="0"/>
        <pt x="80" y="-106" on="1"/>
        <pt x="88" y="-96" on="0"/>
        <pt x="99" y="-71" on="1"/>
        <pt x="118" y="-15" on="0"/>
        <pt x="118" y="179" on="1"/>
        <pt x="118" y="212" on="1"/>
        <pt x="117" y="318" on="0"/>
        <pt x="110" y="345" on="1"/>
        <pt x="104" y="368" on="0"/>
        <pt x="86" y="383" on="1"/>
        <pt x="78" y="389" on="0"/>
        <pt x="76" y="389" on="1"/>
        <pt x="73" y="389" on="0"/>
        <pt x="57" y="379" on="1"/>
        <pt x="39" y="367" on="1"/>
        <pt x="26" y="380" on="0"/>
      </contour>
    </TTGlyph>
    <TTGlyph name="k" xMin="24" yMin="-25" xMax="362" yMax="689">
      <contour>
        <pt x="93" y="348" on="1"/>
        <pt x="93" y="349" on="0"/>
        <pt x="90" y="494" on="0"/>
        <pt x="87" y="648" on="0"/>
        <pt x="87" y="658" on="1"/>
        <pt x="87" y="670" on="1"/>
        <pt x="87" y="671" on="0"/>
        <pt x="94" y="671" on="1"/>
        <pt x="100" y="672" on="1"/>
        <pt x="112" y="636" on="1"/>
        <pt x="124" y="603" on="0"/>
        <pt x="124" y="600" on="1"/>
        <pt x="133" y="607" on="0"/>
        <pt x="144" y="616" on="1"/>
        <pt x="196" y="659" on="0"/>
        <pt x="234" y="682" on="1"/>
        <pt x="246" y="689" on="1"/>
        <pt x="249" y="687" on="0"/>
        <pt x="266" y="681" on="0"/>
        <pt x="268" y="680" on="1"/>
        <pt x="254" y="667" on="1"/>
        <pt x="223" y="639" on="0"/>
        <pt x="195" y="607" on="0"/>
        <pt x="171" y="548" on="0"/>
        <pt x="168" y="505" on="1"/>
        <pt x="168" y="497" on="1"/>
        <pt x="178" y="504" on="1"/>
        <pt x="192" y="515" on="0"/>
        <pt x="272" y="566" on="0"/>
        <pt x="279" y="571" on="1"/>
        <pt x="300" y="584" on="1"/>
        <pt x="310" y="573" on="1"/>
        <pt x="351" y="531" on="0"/>
        <pt x="357" y="496" on="1"/>
        <pt x="359" y="486" on="0"/>
        <pt x="359" y="481" on="1"/>
        <pt x="359" y="460" on="0"/>
        <pt x="347" y="441" on="1"/>
        <pt x="346" y="440" on="0"/>
        <pt x="332" y="425" on="0"/>
        <pt x="310" y="400" on="0"/>
        <pt x="299" y="389" on="1"/>
        <pt x="255" y="343" on="1"/>
        <pt x="300" y="342" on="1"/>
        <pt x="346" y="342" on="1"/>
        <pt x="338" y="331" on="0"/>
        <pt x="320" y="309" on="1"/>
        <pt x="177" y="309" on="1"/>
        <pt x="177" y="128" on="1"/>
        <pt x="193" y="113" on="1"/>
        <pt x="214" y="92" on="0"/>
        <pt x="244" y="68" on="1"/>
        <pt x="254" y="60" on="1"/>
        <pt x="303" y="84" on="1"/>
        <pt x="351" y="108" on="0"/>
        <pt x="352" y="108" on="1"/>
        <pt x="358" y="102" on="0"/>
        <pt x="362" y="96" on="1"/>
        <pt x="352" y="81" on="0"/>
        <pt x="276" y="30" on="1"/>
        <pt x="198" y="-25" on="0"/>
        <pt x="194" y="-25" on="1"/>
        <pt x="89" y="60" on="0"/>
        <pt x="89" y="69" on="1"/>
        <pt x="89" y="87" on="0"/>
        <pt x="93" y="103" on="1"/>
        <pt x="93" y="105" on="0"/>
        <pt x="94" y="124" on="0"/>
        <pt x="94" y="154" on="0"/>
        <pt x="94" y="168" on="1"/>
        <pt x="94" y="184" on="0"/>
        <pt x="93" y="253" on="0"/>
        <pt x="93" y="268" on="1"/>
        <pt x="93" y="309" on="1"/>
        <pt x="58" y="309" on="1"/>
        <pt x="24" y="310" on="1"/>
        <pt x="33" y="320" on="0"/>
        <pt x="51" y="342" on="1"/>
        <pt x="93" y="342" on="1"/>
      </contour>
      <contour>
        <pt x="241" y="517" on="1"/>
        <pt x="199" y="496" on="0"/>
        <pt x="171" y="434" on="0"/>
        <pt x="168" y="365" on="1"/>
        <pt x="168" y="342" on="1"/>
        <pt x="172" y="342" on="1"/>
        <pt x="234" y="342" on="0"/>
        <pt x="270" y="395" on="1"/>
        <pt x="287" y="420" on="0"/>
        <pt x="287" y="445" on="1"/>
        <pt x="287" y="456" on="0"/>
        <pt x="284" y="463" on="1"/>
        <pt x="276" y="483" on="0"/>
        <pt x="255" y="504" on="1"/>
        <pt x="242" y="517" on="0"/>
      </contour>
    </TTGlyph>
    <TTGlyph name="l" xMin="98" yMin="-20" xMax="276" yMax="685">
      <contour>
        <pt x="221" y="76" on="1"/>
        <pt x="267" y="99" on="1"/>
        <pt x="269" y="99" on="0"/>
        <pt x="271" y="83" on="0"/>
        <pt x="270" y="82" on="1"/>
        <pt x="262" y="76" on="1"/>
        <pt x="255" y="69" on="0"/>
        <pt x="227" y="45" on="0"/>
        <pt x="214" y="34" on="1"/>
        <pt x="193" y="17" on="0"/>
        <pt x="151" y="-18" on="0"/>
        <pt x="148" y="-20" on="1"/>
        <pt x="140" y="-8" on="0"/>
        <pt x="106" y="44" on="0"/>
        <pt x="98" y="56" on="1"/>
        <pt x="99" y="89" on="1"/>
        <pt x="107" y="247" on="0"/>
        <pt x="107" y="373" on="1"/>
        <pt x="107" y="494" on="0"/>
        <pt x="101" y="621" on="1"/>
        <pt x="101" y="653" on="0"/>
        <pt x="99" y="659" on="1"/>
        <pt x="99" y="665" on="1"/>
        <pt x="106" y="668" on="1"/>
        <pt x="113" y="672" on="1"/>
        <pt x="118" y="655" on="1"/>
        <pt x="122" y="642" on="0"/>
        <pt x="131" y="617" on="1"/>
        <pt x="138" y="597" on="1"/>
        <pt x="140" y="597" on="0"/>
        <pt x="157" y="611" on="1"/>
        <pt x="199" y="642" on="0"/>
        <pt x="240" y="670" on="1"/>
        <pt x="264" y="685" on="1"/>
        <pt x="265" y="685" on="0"/>
        <pt x="276" y="675" on="0"/>
        <pt x="276" y="674" on="1"/>
        <pt x="270" y="668" on="0"/>
        <pt x="262" y="661" on="1"/>
        <pt x="213" y="619" on="0"/>
        <pt x="171" y="521" on="0"/>
        <pt x="171" y="438" on="1"/>
        <pt x="171" y="411" on="0"/>
        <pt x="179" y="169" on="0"/>
        <pt x="179" y="147" on="1"/>
        <pt x="179" y="117" on="1"/>
        <pt x="184" y="110" on="0"/>
        <pt x="218" y="76" on="0"/>
      </contour>
    </TTGlyph>
    <TTGlyph name="m" xMin="8" yMin="-26" xMax="753" yMax="475">
      <contour>
        <pt x="20" y="367" on="1"/>
        <pt x="8" y="379" on="1"/>
        <pt x="9" y="380" on="0"/>
        <pt x="117" y="471" on="0"/>
        <pt x="118" y="471" on="1"/>
        <pt x="130" y="460" on="0"/>
        <pt x="143" y="446" on="1"/>
        <pt x="168" y="421" on="1"/>
        <pt x="168" y="398" on="1"/>
        <pt x="169" y="376" on="1"/>
        <pt x="232" y="425" on="1"/>
        <pt x="295" y="475" on="1"/>
        <pt x="361" y="434" on="0"/>
        <pt x="415" y="418" on="1"/>
        <pt x="415" y="399" on="1"/>
        <pt x="415" y="380" on="0"/>
        <pt x="416" y="380" on="1"/>
        <pt x="445" y="399" on="0"/>
        <pt x="465" y="414" on="1"/>
        <pt x="492" y="433" on="0"/>
        <pt x="529" y="462" on="1"/>
        <pt x="544" y="474" on="1"/>
        <pt x="556" y="467" on="1"/>
        <pt x="630" y="430" on="1"/>
        <pt x="639" y="427" on="0"/>
        <pt x="653" y="421" on="1"/>
        <pt x="665" y="417" on="1"/>
        <pt x="664" y="412" on="1"/>
        <pt x="664" y="411" on="0"/>
        <pt x="664" y="403" on="0"/>
        <pt x="663" y="390" on="0"/>
        <pt x="663" y="384" on="1"/>
        <pt x="660" y="342" on="0"/>
        <pt x="660" y="335" on="1"/>
        <pt x="658" y="303" on="0"/>
        <pt x="658" y="245" on="1"/>
        <pt x="658" y="186" on="0"/>
        <pt x="660" y="152" on="1"/>
        <pt x="661" y="126" on="1"/>
        <pt x="669" y="115" on="1"/>
        <pt x="681" y="95" on="0"/>
        <pt x="697" y="79" on="1"/>
        <pt x="707" y="83" on="1"/>
        <pt x="728" y="93" on="0"/>
        <pt x="732" y="96" on="1"/>
        <pt x="738" y="99" on="0"/>
        <pt x="747" y="103" on="0"/>
        <pt x="747" y="102" on="1"/>
        <pt x="753" y="88" on="0"/>
        <pt x="753" y="87" on="1"/>
        <pt x="752" y="86" on="1"/>
        <pt x="631" y="-18" on="1"/>
        <pt x="601" y="27" on="0"/>
        <pt x="589" y="43" on="1"/>
        <pt x="576" y="60" on="1"/>
        <pt x="579" y="72" on="1"/>
        <pt x="592" y="142" on="0"/>
        <pt x="592" y="218" on="1"/>
        <pt x="592" y="265" on="0"/>
        <pt x="584" y="321" on="1"/>
        <pt x="581" y="345" on="0"/>
        <pt x="575" y="355" on="0"/>
        <pt x="560" y="363" on="1"/>
        <pt x="535" y="376" on="0"/>
        <pt x="496" y="386" on="1"/>
        <pt x="481" y="390" on="1"/>
        <pt x="471" y="385" on="1"/>
        <pt x="430" y="361" on="0"/>
        <pt x="425" y="358" on="1"/>
        <pt x="415" y="351" on="1"/>
        <pt x="415" y="238" on="1"/>
        <pt x="415" y="123" on="0"/>
        <pt x="416" y="120" on="1"/>
        <pt x="417" y="116" on="0"/>
        <pt x="441" y="81" on="1"/>
        <pt x="465" y="47" on="1"/>
        <pt x="459" y="41" on="0"/>
        <pt x="420" y="8" on="1"/>
        <pt x="380" y="-26" on="1"/>
        <pt x="357" y="13" on="0"/>
        <pt x="343" y="32" on="1"/>
        <pt x="341" y="34" on="0"/>
        <pt x="338" y="39" on="0"/>
        <pt x="335" y="42" on="0"/>
        <pt x="334" y="44" on="1"/>
        <pt x="333" y="45" on="1"/>
        <pt x="331" y="47" on="0"/>
        <pt x="334" y="53" on="1"/>
        <pt x="345" y="107" on="0"/>
        <pt x="345" y="184" on="1"/>
        <pt x="345" y="245" on="0"/>
        <pt x="337" y="327" on="1"/>
        <pt x="334" y="347" on="0"/>
        <pt x="333" y="348" on="1"/>
        <pt x="328" y="354" on="0"/>
        <pt x="307" y="365" on="1"/>
        <pt x="291" y="373" on="0"/>
        <pt x="258" y="382" on="1"/>
        <pt x="240" y="388" on="1"/>
        <pt x="228" y="381" on="0"/>
        <pt x="181" y="354" on="0"/>
        <pt x="169" y="347" on="1"/>
        <pt x="168" y="240" on="1"/>
        <pt x="168" y="118" on="0"/>
        <pt x="171" y="110" on="1"/>
        <pt x="217" y="49" on="0"/>
        <pt x="217" y="48" on="1"/>
        <pt x="212" y="44" on="1"/>
        <pt x="207" y="39" on="0"/>
        <pt x="184" y="20" on="0"/>
        <pt x="175" y="12" on="1"/>
        <pt x="161" y="0" on="0"/>
        <pt x="142" y="-15" on="0"/>
        <pt x="133" y="-22" on="0"/>
        <pt x="133" y="-21" on="1"/>
        <pt x="130" y="-16" on="1"/>
        <pt x="127" y="-10" on="0"/>
        <pt x="116" y="10" on="0"/>
        <pt x="111" y="19" on="1"/>
        <pt x="89" y="56" on="0"/>
        <pt x="89" y="60" on="1"/>
        <pt x="95" y="77" on="0"/>
        <pt x="95" y="153" on="1"/>
        <pt x="95" y="227" on="0"/>
        <pt x="88" y="337" on="1"/>
        <pt x="88" y="365" on="1"/>
        <pt x="62" y="391" on="1"/>
      </contour>
    </TTGlyph>
    <TTGlyph name="n" xMin="20" yMin="-22" xMax="514" yMax="475">
      <contour>
        <pt x="31" y="368" on="1"/>
        <pt x="20" y="378" on="0"/>
        <pt x="20" y="380" on="1"/>
        <pt x="20" y="381" on="0"/>
        <pt x="72" y="427" on="1"/>
        <pt x="121" y="470" on="1"/>
        <pt x="129" y="463" on="1"/>
        <pt x="134" y="458" on="0"/>
        <pt x="171" y="429" on="0"/>
        <pt x="176" y="425" on="1"/>
        <pt x="176" y="367" on="1"/>
        <pt x="320" y="475" on="1"/>
        <pt x="329" y="469" on="1"/>
        <pt x="392" y="428" on="0"/>
        <pt x="434" y="417" on="1"/>
        <pt x="432" y="402" on="1"/>
        <pt x="429" y="362" on="0"/>
        <pt x="429" y="231" on="1"/>
        <pt x="429" y="128" on="1"/>
        <pt x="439" y="111" on="1"/>
        <pt x="442" y="106" on="0"/>
        <pt x="449" y="96" on="0"/>
        <pt x="452" y="91" on="0"/>
        <pt x="455" y="86" on="0"/>
        <pt x="457" y="84" on="0"/>
        <pt x="461" y="82" on="0"/>
        <pt x="464" y="82" on="0"/>
        <pt x="467" y="82" on="1"/>
        <pt x="488" y="94" on="1"/>
        <pt x="510" y="105" on="0"/>
        <pt x="512" y="105" on="0"/>
        <pt x="514" y="95" on="1"/>
        <pt x="514" y="88" on="1"/>
        <pt x="455" y="35" on="1"/>
        <pt x="395" y="-18" on="1"/>
        <pt x="382" y="1" on="0"/>
        <pt x="367" y="24" on="1"/>
        <pt x="340" y="65" on="1"/>
        <pt x="341" y="77" on="1"/>
        <pt x="347" y="111" on="0"/>
        <pt x="348" y="178" on="1"/>
        <pt x="348" y="254" on="0"/>
        <pt x="345" y="321" on="1"/>
        <pt x="345" y="326" on="0"/>
        <pt x="344" y="342" on="0"/>
        <pt x="343" y="352" on="0"/>
        <pt x="343" y="353" on="1"/>
        <pt x="343" y="358" on="1"/>
        <pt x="332" y="363" on="1"/>
        <pt x="298" y="377" on="0"/>
        <pt x="264" y="382" on="1"/>
        <pt x="260" y="382" on="0"/>
        <pt x="254" y="382" on="1"/>
        <pt x="249" y="383" on="1"/>
        <pt x="247" y="383" on="0"/>
        <pt x="211" y="362" on="1"/>
        <pt x="176" y="341" on="1"/>
        <pt x="176" y="229" on="1"/>
        <pt x="176" y="115" on="0"/>
        <pt x="177" y="112" on="1"/>
        <pt x="178" y="106" on="0"/>
        <pt x="217" y="54" on="0"/>
        <pt x="217" y="52" on="0"/>
        <pt x="133" y="-22" on="0"/>
        <pt x="132" y="-22" on="1"/>
        <pt x="131" y="-20" on="1"/>
        <pt x="130" y="-19" on="0"/>
        <pt x="128" y="-16" on="0"/>
        <pt x="127" y="-14" on="1"/>
        <pt x="110" y="15" on="0"/>
        <pt x="88" y="41" on="1"/>
        <pt x="84" y="45" on="0"/>
        <pt x="84" y="50" on="1"/>
        <pt x="94" y="116" on="0"/>
        <pt x="94" y="203" on="1"/>
        <pt x="94" y="222" on="0"/>
        <pt x="92" y="308" on="0"/>
        <pt x="92" y="324" on="1"/>
        <pt x="90" y="364" on="1"/>
        <pt x="74" y="380" on="0"/>
        <pt x="67" y="388" on="1"/>
        <pt x="50" y="378" on="1"/>
        <pt x="32" y="368" on="0"/>
      </contour>
    </TTGlyph>
    <TTGlyph name="nine" xMin="28" yMin="-182" xMax="466" yMax="469">
      <contour>
        <pt x="357" y="92" on="1"/>
        <pt x="353" y="93" on="0"/>
        <pt x="352" y="93" on="1"/>
        <pt x="348" y="93" on="0"/>
        <pt x="324" y="81" on="1"/>
        <pt x="266" y="53" on="0"/>
        <pt x="219" y="38" on="1"/>
        <pt x="207" y="34" on="0"/>
        <pt x="201" y="34" on="1"/>
        <pt x="196" y="34" on="0"/>
        <pt x="181" y="37" on="1"/>
        <pt x="118" y="46" on="0"/>
        <pt x="87" y="79" on="1"/>
        <pt x="28" y="138" on="0"/>
        <pt x="28" y="234" on="1"/>
        <pt x="28" y="294" on="0"/>
        <pt x="47" y="333" on="1"/>
        <pt x="64" y="369" on="0"/>
        <pt x="135" y="422" on="0"/>
        <pt x="218" y="462" on="1"/>
        <pt x="234" y="469" on="1"/>
        <pt x="243" y="469" on="1"/>
        <pt x="348" y="461" on="0"/>
        <pt x="395" y="417" on="1"/>
        <pt x="466" y="348" on="0"/>
        <pt x="466" y="201" on="1"/>
        <pt x="466" y="100" on="0"/>
        <pt x="422" y="14" on="1"/>
        <pt x="333" y="-170" on="0"/>
        <pt x="91" y="-182" on="1"/>
        <pt x="72" y="-182" on="1"/>
        <pt x="72" y="-154" on="1"/>
        <pt x="80" y="-154" on="1"/>
        <pt x="290" y="-154" on="0"/>
        <pt x="346" y="44" on="1"/>
        <pt x="357" y="88" on="0"/>
      </contour>
      <contour>
        <pt x="249" y="95" on="1"/>
        <pt x="307" y="95" on="0"/>
        <pt x="369" y="152" on="0"/>
        <pt x="369" y="208" on="1"/>
        <pt x="369" y="289" on="0"/>
        <pt x="300" y="401" on="0"/>
        <pt x="241" y="413" on="1"/>
        <pt x="227" y="415" on="0"/>
        <pt x="214" y="415" on="1"/>
        <pt x="211" y="415" on="0"/>
        <pt x="200" y="414" on="0"/>
        <pt x="199" y="414" on="1"/>
        <pt x="159" y="403" on="0"/>
        <pt x="116" y="320" on="0"/>
        <pt x="116" y="266" on="1"/>
        <pt x="116" y="208" on="0"/>
        <pt x="170" y="113" on="0"/>
        <pt x="211" y="100" on="1"/>
        <pt x="225" y="95" on="0"/>
        <pt x="238" y="95" on="1"/>
      </contour>
    </TTGlyph>
    <TTGlyph name="o" xMin="67" yMin="-28" xMax="412" yMax="480">
      <contour>
        <pt x="67" y="121" on="1"/>
        <pt x="69" y="254" on="0"/>
        <pt x="84" y="359" on="1"/>
        <pt x="84" y="364" on="1"/>
        <pt x="97" y="371" on="1"/>
        <pt x="166" y="410" on="0"/>
        <pt x="248" y="472" on="1"/>
        <pt x="257" y="480" on="0"/>
        <pt x="260" y="480" on="1"/>
        <pt x="261" y="480" on="0"/>
        <pt x="262" y="479" on="1"/>
        <pt x="332" y="434" on="0"/>
        <pt x="394" y="418" on="1"/>
        <pt x="406" y="414" on="1"/>
        <pt x="412" y="389" on="0"/>
        <pt x="412" y="300" on="1"/>
        <pt x="412" y="203" on="0"/>
        <pt x="394" y="105" on="1"/>
        <pt x="391" y="94" on="0"/>
        <pt x="391" y="92" on="1"/>
        <pt x="381" y="86" on="1"/>
        <pt x="270" y="16" on="0"/>
        <pt x="183" y="-21" on="1"/>
        <pt x="165" y="-28" on="1"/>
        <pt x="160" y="-24" on="0"/>
        <pt x="144" y="-10" on="1"/>
        <pt x="91" y="38" on="0"/>
        <pt x="74" y="60" on="1"/>
        <pt x="67" y="68" on="1"/>
      </contour>
      <contour>
        <pt x="335" y="278" on="1"/>
        <pt x="335" y="341" on="0"/>
        <pt x="333" y="349" on="1"/>
        <pt x="333" y="356" on="1"/>
        <pt x="326" y="356" on="1"/>
        <pt x="288" y="360" on="0"/>
        <pt x="208" y="388" on="1"/>
        <pt x="183" y="397" on="1"/>
        <pt x="181" y="397" on="0"/>
        <pt x="166" y="370" on="1"/>
        <pt x="142" y="317" on="0"/>
        <pt x="142" y="239" on="1"/>
        <pt x="142" y="193" on="0"/>
        <pt x="151" y="134" on="1"/>
        <pt x="152" y="124" on="0"/>
        <pt x="159" y="115" on="0"/>
        <pt x="175" y="99" on="1"/>
        <pt x="216" y="58" on="0"/>
        <pt x="254" y="47" on="1"/>
        <pt x="263" y="44" on="0"/>
        <pt x="267" y="44" on="1"/>
        <pt x="272" y="44" on="0"/>
        <pt x="281" y="53" on="1"/>
        <pt x="313" y="85" on="0"/>
        <pt x="335" y="193" on="0"/>
      </contour>
    </TTGlyph>
</ttFont>
